<?xml version="1.0" encoding="utf-8" standalone="no"?>
<!DOCTYPE svg PUBLIC "-//W3C//DTD SVG 1.1//EN"
  "http://www.w3.org/Graphics/SVG/1.1/DTD/svg11.dtd">
<!-- Created with matplotlib (http://matplotlib.org/) -->
<svg height="345.6pt" version="1.1" viewBox="0 0 460.8 345.6" width="460.8pt" xmlns="http://www.w3.org/2000/svg" xmlns:xlink="http://www.w3.org/1999/xlink">
 <defs>
  <style type="text/css">
*{stroke-linecap:butt;stroke-linejoin:round;}
  </style>
 </defs>
 <g id="figure_1">
  <g id="patch_1">
   <path d="M 0 345.6 
L 460.8 345.6 
L 460.8 0 
L 0 0 
z
" style="fill:#ffffff;"/>
  </g>
  <g id="axes_1">
   <g id="patch_2">
    <path d="M 60.32 303.64 
L 442.08 303.64 
L 442.08 13.32 
L 60.32 13.32 
z
" style="fill:#ffffff;"/>
   </g>
   <g id="matplotlib.axis_1">
    <g id="xtick_1">
     <g id="line2d_1">
      <defs>
       <path d="M 0 0 
L 0 3.5 
" id="md79af46233" style="stroke:#000000;stroke-width:0.8;"/>
      </defs>
      <g>
       <use style="stroke:#000000;stroke-width:0.8;" x="60.32" xlink:href="#md79af46233" y="303.64"/>
      </g>
     </g>
     <g id="text_1">
      <!-- 0.0 -->
      <defs>
       <path d="M 31.78125 66.40625 
Q 24.171875 66.40625 20.328125 58.90625 
Q 16.5 51.421875 16.5 36.375 
Q 16.5 21.390625 20.328125 13.890625 
Q 24.171875 6.390625 31.78125 6.390625 
Q 39.453125 6.390625 43.28125 13.890625 
Q 47.125 21.390625 47.125 36.375 
Q 47.125 51.421875 43.28125 58.90625 
Q 39.453125 66.40625 31.78125 66.40625 
z
M 31.78125 74.21875 
Q 44.046875 74.21875 50.515625 64.515625 
Q 56.984375 54.828125 56.984375 36.375 
Q 56.984375 17.96875 50.515625 8.265625 
Q 44.046875 -1.421875 31.78125 -1.421875 
Q 19.53125 -1.421875 13.0625 8.265625 
Q 6.59375 17.96875 6.59375 36.375 
Q 6.59375 54.828125 13.0625 64.515625 
Q 19.53125 74.21875 31.78125 74.21875 
z
" id="DejaVuSans-30"/>
       <path d="M 10.6875 12.40625 
L 21 12.40625 
L 21 0 
L 10.6875 0 
z
" id="DejaVuSans-2e"/>
      </defs>
      <g transform="translate(52.368438 318.238437)scale(0.1 -0.1)">
       <use xlink:href="#DejaVuSans-30"/>
       <use x="63.623047" xlink:href="#DejaVuSans-2e"/>
       <use x="95.410156" xlink:href="#DejaVuSans-30"/>
      </g>
     </g>
    </g>
    <g id="xtick_2">
     <g id="line2d_2">
      <g>
       <use style="stroke:#000000;stroke-width:0.8;" x="98.496" xlink:href="#md79af46233" y="303.64"/>
      </g>
     </g>
     <g id="text_2">
      <!-- 0.1 -->
      <defs>
       <path d="M 12.40625 8.296875 
L 28.515625 8.296875 
L 28.515625 63.921875 
L 10.984375 60.40625 
L 10.984375 69.390625 
L 28.421875 72.90625 
L 38.28125 72.90625 
L 38.28125 8.296875 
L 54.390625 8.296875 
L 54.390625 0 
L 12.40625 0 
z
" id="DejaVuSans-31"/>
      </defs>
      <g transform="translate(90.544438 318.238437)scale(0.1 -0.1)">
       <use xlink:href="#DejaVuSans-30"/>
       <use x="63.623047" xlink:href="#DejaVuSans-2e"/>
       <use x="95.410156" xlink:href="#DejaVuSans-31"/>
      </g>
     </g>
    </g>
    <g id="xtick_3">
     <g id="line2d_3">
      <g>
       <use style="stroke:#000000;stroke-width:0.8;" x="136.672" xlink:href="#md79af46233" y="303.64"/>
      </g>
     </g>
     <g id="text_3">
      <!-- 0.2 -->
      <defs>
       <path d="M 19.1875 8.296875 
L 53.609375 8.296875 
L 53.609375 0 
L 7.328125 0 
L 7.328125 8.296875 
Q 12.9375 14.109375 22.625 23.890625 
Q 32.328125 33.6875 34.8125 36.53125 
Q 39.546875 41.84375 41.421875 45.53125 
Q 43.3125 49.21875 43.3125 52.78125 
Q 43.3125 58.59375 39.234375 62.25 
Q 35.15625 65.921875 28.609375 65.921875 
Q 23.96875 65.921875 18.8125 64.3125 
Q 13.671875 62.703125 7.8125 59.421875 
L 7.8125 69.390625 
Q 13.765625 71.78125 18.9375 73 
Q 24.125 74.21875 28.421875 74.21875 
Q 39.75 74.21875 46.484375 68.546875 
Q 53.21875 62.890625 53.21875 53.421875 
Q 53.21875 48.921875 51.53125 44.890625 
Q 49.859375 40.875 45.40625 35.40625 
Q 44.1875 33.984375 37.640625 27.21875 
Q 31.109375 20.453125 19.1875 8.296875 
z
" id="DejaVuSans-32"/>
      </defs>
      <g transform="translate(128.720438 318.238437)scale(0.1 -0.1)">
       <use xlink:href="#DejaVuSans-30"/>
       <use x="63.623047" xlink:href="#DejaVuSans-2e"/>
       <use x="95.410156" xlink:href="#DejaVuSans-32"/>
      </g>
     </g>
    </g>
    <g id="xtick_4">
     <g id="line2d_4">
      <g>
       <use style="stroke:#000000;stroke-width:0.8;" x="174.848" xlink:href="#md79af46233" y="303.64"/>
      </g>
     </g>
     <g id="text_4">
      <!-- 0.3 -->
      <defs>
       <path d="M 40.578125 39.3125 
Q 47.65625 37.796875 51.625 33 
Q 55.609375 28.21875 55.609375 21.1875 
Q 55.609375 10.40625 48.1875 4.484375 
Q 40.765625 -1.421875 27.09375 -1.421875 
Q 22.515625 -1.421875 17.65625 -0.515625 
Q 12.796875 0.390625 7.625 2.203125 
L 7.625 11.71875 
Q 11.71875 9.328125 16.59375 8.109375 
Q 21.484375 6.890625 26.8125 6.890625 
Q 36.078125 6.890625 40.9375 10.546875 
Q 45.796875 14.203125 45.796875 21.1875 
Q 45.796875 27.640625 41.28125 31.265625 
Q 36.765625 34.90625 28.71875 34.90625 
L 20.21875 34.90625 
L 20.21875 43.015625 
L 29.109375 43.015625 
Q 36.375 43.015625 40.234375 45.921875 
Q 44.09375 48.828125 44.09375 54.296875 
Q 44.09375 59.90625 40.109375 62.90625 
Q 36.140625 65.921875 28.71875 65.921875 
Q 24.65625 65.921875 20.015625 65.03125 
Q 15.375 64.15625 9.8125 62.3125 
L 9.8125 71.09375 
Q 15.4375 72.65625 20.34375 73.4375 
Q 25.25 74.21875 29.59375 74.21875 
Q 40.828125 74.21875 47.359375 69.109375 
Q 53.90625 64.015625 53.90625 55.328125 
Q 53.90625 49.265625 50.4375 45.09375 
Q 46.96875 40.921875 40.578125 39.3125 
z
" id="DejaVuSans-33"/>
      </defs>
      <g transform="translate(166.896438 318.238437)scale(0.1 -0.1)">
       <use xlink:href="#DejaVuSans-30"/>
       <use x="63.623047" xlink:href="#DejaVuSans-2e"/>
       <use x="95.410156" xlink:href="#DejaVuSans-33"/>
      </g>
     </g>
    </g>
    <g id="xtick_5">
     <g id="line2d_5">
      <g>
       <use style="stroke:#000000;stroke-width:0.8;" x="213.024" xlink:href="#md79af46233" y="303.64"/>
      </g>
     </g>
     <g id="text_5">
      <!-- 0.4 -->
      <defs>
       <path d="M 37.796875 64.3125 
L 12.890625 25.390625 
L 37.796875 25.390625 
z
M 35.203125 72.90625 
L 47.609375 72.90625 
L 47.609375 25.390625 
L 58.015625 25.390625 
L 58.015625 17.1875 
L 47.609375 17.1875 
L 47.609375 0 
L 37.796875 0 
L 37.796875 17.1875 
L 4.890625 17.1875 
L 4.890625 26.703125 
z
" id="DejaVuSans-34"/>
      </defs>
      <g transform="translate(205.072438 318.238437)scale(0.1 -0.1)">
       <use xlink:href="#DejaVuSans-30"/>
       <use x="63.623047" xlink:href="#DejaVuSans-2e"/>
       <use x="95.410156" xlink:href="#DejaVuSans-34"/>
      </g>
     </g>
    </g>
    <g id="xtick_6">
     <g id="line2d_6">
      <g>
       <use style="stroke:#000000;stroke-width:0.8;" x="251.2" xlink:href="#md79af46233" y="303.64"/>
      </g>
     </g>
     <g id="text_6">
      <!-- 0.5 -->
      <defs>
       <path d="M 10.796875 72.90625 
L 49.515625 72.90625 
L 49.515625 64.59375 
L 19.828125 64.59375 
L 19.828125 46.734375 
Q 21.96875 47.46875 24.109375 47.828125 
Q 26.265625 48.1875 28.421875 48.1875 
Q 40.625 48.1875 47.75 41.5 
Q 54.890625 34.8125 54.890625 23.390625 
Q 54.890625 11.625 47.5625 5.09375 
Q 40.234375 -1.421875 26.90625 -1.421875 
Q 22.3125 -1.421875 17.546875 -0.640625 
Q 12.796875 0.140625 7.71875 1.703125 
L 7.71875 11.625 
Q 12.109375 9.234375 16.796875 8.0625 
Q 21.484375 6.890625 26.703125 6.890625 
Q 35.15625 6.890625 40.078125 11.328125 
Q 45.015625 15.765625 45.015625 23.390625 
Q 45.015625 31 40.078125 35.4375 
Q 35.15625 39.890625 26.703125 39.890625 
Q 22.75 39.890625 18.8125 39.015625 
Q 14.890625 38.140625 10.796875 36.28125 
z
" id="DejaVuSans-35"/>
      </defs>
      <g transform="translate(243.248438 318.238437)scale(0.1 -0.1)">
       <use xlink:href="#DejaVuSans-30"/>
       <use x="63.623047" xlink:href="#DejaVuSans-2e"/>
       <use x="95.410156" xlink:href="#DejaVuSans-35"/>
      </g>
     </g>
    </g>
    <g id="xtick_7">
     <g id="line2d_7">
      <g>
       <use style="stroke:#000000;stroke-width:0.8;" x="289.376" xlink:href="#md79af46233" y="303.64"/>
      </g>
     </g>
     <g id="text_7">
      <!-- 0.6 -->
      <defs>
       <path d="M 33.015625 40.375 
Q 26.375 40.375 22.484375 35.828125 
Q 18.609375 31.296875 18.609375 23.390625 
Q 18.609375 15.53125 22.484375 10.953125 
Q 26.375 6.390625 33.015625 6.390625 
Q 39.65625 6.390625 43.53125 10.953125 
Q 47.40625 15.53125 47.40625 23.390625 
Q 47.40625 31.296875 43.53125 35.828125 
Q 39.65625 40.375 33.015625 40.375 
z
M 52.59375 71.296875 
L 52.59375 62.3125 
Q 48.875 64.0625 45.09375 64.984375 
Q 41.3125 65.921875 37.59375 65.921875 
Q 27.828125 65.921875 22.671875 59.328125 
Q 17.53125 52.734375 16.796875 39.40625 
Q 19.671875 43.65625 24.015625 45.921875 
Q 28.375 48.1875 33.59375 48.1875 
Q 44.578125 48.1875 50.953125 41.515625 
Q 57.328125 34.859375 57.328125 23.390625 
Q 57.328125 12.15625 50.6875 5.359375 
Q 44.046875 -1.421875 33.015625 -1.421875 
Q 20.359375 -1.421875 13.671875 8.265625 
Q 6.984375 17.96875 6.984375 36.375 
Q 6.984375 53.65625 15.1875 63.9375 
Q 23.390625 74.21875 37.203125 74.21875 
Q 40.921875 74.21875 44.703125 73.484375 
Q 48.484375 72.75 52.59375 71.296875 
z
" id="DejaVuSans-36"/>
      </defs>
      <g transform="translate(281.424438 318.238437)scale(0.1 -0.1)">
       <use xlink:href="#DejaVuSans-30"/>
       <use x="63.623047" xlink:href="#DejaVuSans-2e"/>
       <use x="95.410156" xlink:href="#DejaVuSans-36"/>
      </g>
     </g>
    </g>
    <g id="xtick_8">
     <g id="line2d_8">
      <g>
       <use style="stroke:#000000;stroke-width:0.8;" x="327.552" xlink:href="#md79af46233" y="303.64"/>
      </g>
     </g>
     <g id="text_8">
      <!-- 0.7 -->
      <defs>
       <path d="M 8.203125 72.90625 
L 55.078125 72.90625 
L 55.078125 68.703125 
L 28.609375 0 
L 18.3125 0 
L 43.21875 64.59375 
L 8.203125 64.59375 
z
" id="DejaVuSans-37"/>
      </defs>
      <g transform="translate(319.600437 318.238437)scale(0.1 -0.1)">
       <use xlink:href="#DejaVuSans-30"/>
       <use x="63.623047" xlink:href="#DejaVuSans-2e"/>
       <use x="95.410156" xlink:href="#DejaVuSans-37"/>
      </g>
     </g>
    </g>
    <g id="xtick_9">
     <g id="line2d_9">
      <g>
       <use style="stroke:#000000;stroke-width:0.8;" x="365.728" xlink:href="#md79af46233" y="303.64"/>
      </g>
     </g>
     <g id="text_9">
      <!-- 0.8 -->
      <defs>
       <path d="M 31.78125 34.625 
Q 24.75 34.625 20.71875 30.859375 
Q 16.703125 27.09375 16.703125 20.515625 
Q 16.703125 13.921875 20.71875 10.15625 
Q 24.75 6.390625 31.78125 6.390625 
Q 38.8125 6.390625 42.859375 10.171875 
Q 46.921875 13.96875 46.921875 20.515625 
Q 46.921875 27.09375 42.890625 30.859375 
Q 38.875 34.625 31.78125 34.625 
z
M 21.921875 38.8125 
Q 15.578125 40.375 12.03125 44.71875 
Q 8.5 49.078125 8.5 55.328125 
Q 8.5 64.0625 14.71875 69.140625 
Q 20.953125 74.21875 31.78125 74.21875 
Q 42.671875 74.21875 48.875 69.140625 
Q 55.078125 64.0625 55.078125 55.328125 
Q 55.078125 49.078125 51.53125 44.71875 
Q 48 40.375 41.703125 38.8125 
Q 48.828125 37.15625 52.796875 32.3125 
Q 56.78125 27.484375 56.78125 20.515625 
Q 56.78125 9.90625 50.3125 4.234375 
Q 43.84375 -1.421875 31.78125 -1.421875 
Q 19.734375 -1.421875 13.25 4.234375 
Q 6.78125 9.90625 6.78125 20.515625 
Q 6.78125 27.484375 10.78125 32.3125 
Q 14.796875 37.15625 21.921875 38.8125 
z
M 18.3125 54.390625 
Q 18.3125 48.734375 21.84375 45.5625 
Q 25.390625 42.390625 31.78125 42.390625 
Q 38.140625 42.390625 41.71875 45.5625 
Q 45.3125 48.734375 45.3125 54.390625 
Q 45.3125 60.0625 41.71875 63.234375 
Q 38.140625 66.40625 31.78125 66.40625 
Q 25.390625 66.40625 21.84375 63.234375 
Q 18.3125 60.0625 18.3125 54.390625 
z
" id="DejaVuSans-38"/>
      </defs>
      <g transform="translate(357.776437 318.238437)scale(0.1 -0.1)">
       <use xlink:href="#DejaVuSans-30"/>
       <use x="63.623047" xlink:href="#DejaVuSans-2e"/>
       <use x="95.410156" xlink:href="#DejaVuSans-38"/>
      </g>
     </g>
    </g>
    <g id="xtick_10">
     <g id="line2d_10">
      <g>
       <use style="stroke:#000000;stroke-width:0.8;" x="403.904" xlink:href="#md79af46233" y="303.64"/>
      </g>
     </g>
     <g id="text_10">
      <!-- 0.9 -->
      <defs>
       <path d="M 10.984375 1.515625 
L 10.984375 10.5 
Q 14.703125 8.734375 18.5 7.8125 
Q 22.3125 6.890625 25.984375 6.890625 
Q 35.75 6.890625 40.890625 13.453125 
Q 46.046875 20.015625 46.78125 33.40625 
Q 43.953125 29.203125 39.59375 26.953125 
Q 35.25 24.703125 29.984375 24.703125 
Q 19.046875 24.703125 12.671875 31.3125 
Q 6.296875 37.9375 6.296875 49.421875 
Q 6.296875 60.640625 12.9375 67.421875 
Q 19.578125 74.21875 30.609375 74.21875 
Q 43.265625 74.21875 49.921875 64.515625 
Q 56.59375 54.828125 56.59375 36.375 
Q 56.59375 19.140625 48.40625 8.859375 
Q 40.234375 -1.421875 26.421875 -1.421875 
Q 22.703125 -1.421875 18.890625 -0.6875 
Q 15.09375 0.046875 10.984375 1.515625 
z
M 30.609375 32.421875 
Q 37.25 32.421875 41.125 36.953125 
Q 45.015625 41.5 45.015625 49.421875 
Q 45.015625 57.28125 41.125 61.84375 
Q 37.25 66.40625 30.609375 66.40625 
Q 23.96875 66.40625 20.09375 61.84375 
Q 16.21875 57.28125 16.21875 49.421875 
Q 16.21875 41.5 20.09375 36.953125 
Q 23.96875 32.421875 30.609375 32.421875 
z
" id="DejaVuSans-39"/>
      </defs>
      <g transform="translate(395.952437 318.238437)scale(0.1 -0.1)">
       <use xlink:href="#DejaVuSans-30"/>
       <use x="63.623047" xlink:href="#DejaVuSans-2e"/>
       <use x="95.410156" xlink:href="#DejaVuSans-39"/>
      </g>
     </g>
    </g>
    <g id="xtick_11">
     <g id="line2d_11">
      <g>
       <use style="stroke:#000000;stroke-width:0.8;" x="442.08" xlink:href="#md79af46233" y="303.64"/>
      </g>
     </g>
     <g id="text_11">
      <!-- 1.0 -->
      <g transform="translate(434.128437 318.238437)scale(0.1 -0.1)">
       <use xlink:href="#DejaVuSans-31"/>
       <use x="63.623047" xlink:href="#DejaVuSans-2e"/>
       <use x="95.410156" xlink:href="#DejaVuSans-30"/>
      </g>
     </g>
    </g>
    <g id="text_12">
     <!-- lwr -->
     <defs>
      <path d="M 9.421875 75.984375 
L 18.40625 75.984375 
L 18.40625 0 
L 9.421875 0 
z
" id="DejaVuSans-6c"/>
      <path d="M 4.203125 54.6875 
L 13.1875 54.6875 
L 24.421875 12.015625 
L 35.59375 54.6875 
L 46.1875 54.6875 
L 57.421875 12.015625 
L 68.609375 54.6875 
L 77.59375 54.6875 
L 63.28125 0 
L 52.6875 0 
L 40.921875 44.828125 
L 29.109375 0 
L 18.5 0 
z
" id="DejaVuSans-77"/>
      <path d="M 41.109375 46.296875 
Q 39.59375 47.171875 37.8125 47.578125 
Q 36.03125 48 33.890625 48 
Q 26.265625 48 22.1875 43.046875 
Q 18.109375 38.09375 18.109375 28.8125 
L 18.109375 0 
L 9.078125 0 
L 9.078125 54.6875 
L 18.109375 54.6875 
L 18.109375 46.1875 
Q 20.953125 51.171875 25.484375 53.578125 
Q 30.03125 56 36.53125 56 
Q 37.453125 56 38.578125 55.875 
Q 39.703125 55.765625 41.0625 55.515625 
z
" id="DejaVuSans-72"/>
     </defs>
     <g transform="translate(243.666406 331.916562)scale(0.1 -0.1)">
      <use xlink:href="#DejaVuSans-6c"/>
      <use x="27.783203" xlink:href="#DejaVuSans-77"/>
      <use x="109.570312" xlink:href="#DejaVuSans-72"/>
     </g>
    </g>
   </g>
   <g id="matplotlib.axis_2">
    <g id="ytick_1">
     <g id="line2d_12">
      <path clip-path="url(#pd3e845cfa0)" d="M 60.32 290.443636 
L 442.08 290.443636 
" style="fill:none;stroke:#b0b0b0;stroke-linecap:square;stroke-width:0.8;"/>
     </g>
     <g id="line2d_13">
      <defs>
       <path d="M 0 0 
L -3.5 0 
" id="m396a2e5d32" style="stroke:#000000;stroke-width:0.8;"/>
      </defs>
      <g>
       <use style="stroke:#000000;stroke-width:0.8;" x="60.32" xlink:href="#m396a2e5d32" y="290.443636"/>
      </g>
     </g>
     <g id="text_13">
      <!--   0% -->
      <defs>
       <path id="DejaVuSans-20"/>
       <path d="M 72.703125 32.078125 
Q 68.453125 32.078125 66.03125 28.46875 
Q 63.625 24.859375 63.625 18.40625 
Q 63.625 12.0625 66.03125 8.421875 
Q 68.453125 4.78125 72.703125 4.78125 
Q 76.859375 4.78125 79.265625 8.421875 
Q 81.6875 12.0625 81.6875 18.40625 
Q 81.6875 24.8125 79.265625 28.4375 
Q 76.859375 32.078125 72.703125 32.078125 
z
M 72.703125 38.28125 
Q 80.421875 38.28125 84.953125 32.90625 
Q 89.5 27.546875 89.5 18.40625 
Q 89.5 9.28125 84.9375 3.921875 
Q 80.375 -1.421875 72.703125 -1.421875 
Q 64.890625 -1.421875 60.34375 3.921875 
Q 55.8125 9.28125 55.8125 18.40625 
Q 55.8125 27.59375 60.375 32.9375 
Q 64.9375 38.28125 72.703125 38.28125 
z
M 22.3125 68.015625 
Q 18.109375 68.015625 15.6875 64.375 
Q 13.28125 60.75 13.28125 54.390625 
Q 13.28125 47.953125 15.671875 44.328125 
Q 18.0625 40.71875 22.3125 40.71875 
Q 26.5625 40.71875 28.96875 44.328125 
Q 31.390625 47.953125 31.390625 54.390625 
Q 31.390625 60.6875 28.953125 64.34375 
Q 26.515625 68.015625 22.3125 68.015625 
z
M 66.40625 74.21875 
L 74.21875 74.21875 
L 28.609375 -1.421875 
L 20.796875 -1.421875 
z
M 22.3125 74.21875 
Q 30.03125 74.21875 34.609375 68.875 
Q 39.203125 63.53125 39.203125 54.390625 
Q 39.203125 45.171875 34.640625 39.84375 
Q 30.078125 34.515625 22.3125 34.515625 
Q 14.546875 34.515625 10.03125 39.859375 
Q 5.515625 45.21875 5.515625 54.390625 
Q 5.515625 63.484375 10.046875 68.84375 
Q 14.59375 74.21875 22.3125 74.21875 
z
" id="DejaVuSans-25"/>
      </defs>
      <g transform="translate(31.099688 294.242855)scale(0.1 -0.1)">
       <use xlink:href="#DejaVuSans-20"/>
       <use x="31.787109" xlink:href="#DejaVuSans-20"/>
       <use x="63.574219" xlink:href="#DejaVuSans-30"/>
       <use x="127.197266" xlink:href="#DejaVuSans-25"/>
      </g>
     </g>
    </g>
    <g id="ytick_2">
     <g id="line2d_14">
      <path clip-path="url(#pd3e845cfa0)" d="M 60.32 224.360151 
L 442.08 224.360151 
" style="fill:none;stroke:#b0b0b0;stroke-linecap:square;stroke-width:0.8;"/>
     </g>
     <g id="line2d_15">
      <g>
       <use style="stroke:#000000;stroke-width:0.8;" x="60.32" xlink:href="#m396a2e5d32" y="224.360151"/>
      </g>
     </g>
     <g id="text_14">
      <!--  25% -->
      <g transform="translate(27.915313 228.15937)scale(0.1 -0.1)">
       <use xlink:href="#DejaVuSans-20"/>
       <use x="31.787109" xlink:href="#DejaVuSans-32"/>
       <use x="95.410156" xlink:href="#DejaVuSans-35"/>
       <use x="159.033203" xlink:href="#DejaVuSans-25"/>
      </g>
     </g>
    </g>
    <g id="ytick_3">
     <g id="line2d_16">
      <path clip-path="url(#pd3e845cfa0)" d="M 60.32 158.276666 
L 442.08 158.276666 
" style="fill:none;stroke:#b0b0b0;stroke-linecap:square;stroke-width:0.8;"/>
     </g>
     <g id="line2d_17">
      <g>
       <use style="stroke:#000000;stroke-width:0.8;" x="60.32" xlink:href="#m396a2e5d32" y="158.276666"/>
      </g>
     </g>
     <g id="text_15">
      <!--  50% -->
      <g transform="translate(27.915313 162.075885)scale(0.1 -0.1)">
       <use xlink:href="#DejaVuSans-20"/>
       <use x="31.787109" xlink:href="#DejaVuSans-35"/>
       <use x="95.410156" xlink:href="#DejaVuSans-30"/>
       <use x="159.033203" xlink:href="#DejaVuSans-25"/>
      </g>
     </g>
    </g>
    <g id="ytick_4">
     <g id="line2d_18">
      <path clip-path="url(#pd3e845cfa0)" d="M 60.32 92.193181 
L 442.08 92.193181 
" style="fill:none;stroke:#b0b0b0;stroke-linecap:square;stroke-width:0.8;"/>
     </g>
     <g id="line2d_19">
      <g>
       <use style="stroke:#000000;stroke-width:0.8;" x="60.32" xlink:href="#m396a2e5d32" y="92.193181"/>
      </g>
     </g>
     <g id="text_16">
      <!--  75% -->
      <g transform="translate(27.915313 95.9924)scale(0.1 -0.1)">
       <use xlink:href="#DejaVuSans-20"/>
       <use x="31.787109" xlink:href="#DejaVuSans-37"/>
       <use x="95.410156" xlink:href="#DejaVuSans-35"/>
       <use x="159.033203" xlink:href="#DejaVuSans-25"/>
      </g>
     </g>
    </g>
    <g id="ytick_5">
     <g id="line2d_20">
      <path clip-path="url(#pd3e845cfa0)" d="M 60.32 26.109696 
L 442.08 26.109696 
" style="fill:none;stroke:#b0b0b0;stroke-linecap:square;stroke-width:0.8;"/>
     </g>
     <g id="line2d_21">
      <g>
       <use style="stroke:#000000;stroke-width:0.8;" x="60.32" xlink:href="#m396a2e5d32" y="26.109696"/>
      </g>
     </g>
     <g id="text_17">
      <!-- 100% -->
      <g transform="translate(24.730938 29.908915)scale(0.1 -0.1)">
       <use xlink:href="#DejaVuSans-31"/>
       <use x="63.623047" xlink:href="#DejaVuSans-30"/>
       <use x="127.246094" xlink:href="#DejaVuSans-30"/>
       <use x="190.869141" xlink:href="#DejaVuSans-25"/>
      </g>
     </g>
    </g>
    <g id="text_18">
     <!-- Cumulative Frequency -->
     <defs>
      <path d="M 64.40625 67.28125 
L 64.40625 56.890625 
Q 59.421875 61.53125 53.78125 63.8125 
Q 48.140625 66.109375 41.796875 66.109375 
Q 29.296875 66.109375 22.65625 58.46875 
Q 16.015625 50.828125 16.015625 36.375 
Q 16.015625 21.96875 22.65625 14.328125 
Q 29.296875 6.6875 41.796875 6.6875 
Q 48.140625 6.6875 53.78125 8.984375 
Q 59.421875 11.28125 64.40625 15.921875 
L 64.40625 5.609375 
Q 59.234375 2.09375 53.4375 0.328125 
Q 47.65625 -1.421875 41.21875 -1.421875 
Q 24.65625 -1.421875 15.125 8.703125 
Q 5.609375 18.84375 5.609375 36.375 
Q 5.609375 53.953125 15.125 64.078125 
Q 24.65625 74.21875 41.21875 74.21875 
Q 47.75 74.21875 53.53125 72.484375 
Q 59.328125 70.75 64.40625 67.28125 
z
" id="DejaVuSans-43"/>
      <path d="M 8.5 21.578125 
L 8.5 54.6875 
L 17.484375 54.6875 
L 17.484375 21.921875 
Q 17.484375 14.15625 20.5 10.265625 
Q 23.53125 6.390625 29.59375 6.390625 
Q 36.859375 6.390625 41.078125 11.03125 
Q 45.3125 15.671875 45.3125 23.6875 
L 45.3125 54.6875 
L 54.296875 54.6875 
L 54.296875 0 
L 45.3125 0 
L 45.3125 8.40625 
Q 42.046875 3.421875 37.71875 1 
Q 33.40625 -1.421875 27.6875 -1.421875 
Q 18.265625 -1.421875 13.375 4.4375 
Q 8.5 10.296875 8.5 21.578125 
z
M 31.109375 56 
z
" id="DejaVuSans-75"/>
      <path d="M 52 44.1875 
Q 55.375 50.25 60.0625 53.125 
Q 64.75 56 71.09375 56 
Q 79.640625 56 84.28125 50.015625 
Q 88.921875 44.046875 88.921875 33.015625 
L 88.921875 0 
L 79.890625 0 
L 79.890625 32.71875 
Q 79.890625 40.578125 77.09375 44.375 
Q 74.3125 48.1875 68.609375 48.1875 
Q 61.625 48.1875 57.5625 43.546875 
Q 53.515625 38.921875 53.515625 30.90625 
L 53.515625 0 
L 44.484375 0 
L 44.484375 32.71875 
Q 44.484375 40.625 41.703125 44.40625 
Q 38.921875 48.1875 33.109375 48.1875 
Q 26.21875 48.1875 22.15625 43.53125 
Q 18.109375 38.875 18.109375 30.90625 
L 18.109375 0 
L 9.078125 0 
L 9.078125 54.6875 
L 18.109375 54.6875 
L 18.109375 46.1875 
Q 21.1875 51.21875 25.484375 53.609375 
Q 29.78125 56 35.6875 56 
Q 41.65625 56 45.828125 52.96875 
Q 50 49.953125 52 44.1875 
z
" id="DejaVuSans-6d"/>
      <path d="M 34.28125 27.484375 
Q 23.390625 27.484375 19.1875 25 
Q 14.984375 22.515625 14.984375 16.5 
Q 14.984375 11.71875 18.140625 8.90625 
Q 21.296875 6.109375 26.703125 6.109375 
Q 34.1875 6.109375 38.703125 11.40625 
Q 43.21875 16.703125 43.21875 25.484375 
L 43.21875 27.484375 
z
M 52.203125 31.203125 
L 52.203125 0 
L 43.21875 0 
L 43.21875 8.296875 
Q 40.140625 3.328125 35.546875 0.953125 
Q 30.953125 -1.421875 24.3125 -1.421875 
Q 15.921875 -1.421875 10.953125 3.296875 
Q 6 8.015625 6 15.921875 
Q 6 25.140625 12.171875 29.828125 
Q 18.359375 34.515625 30.609375 34.515625 
L 43.21875 34.515625 
L 43.21875 35.40625 
Q 43.21875 41.609375 39.140625 45 
Q 35.0625 48.390625 27.6875 48.390625 
Q 23 48.390625 18.546875 47.265625 
Q 14.109375 46.140625 10.015625 43.890625 
L 10.015625 52.203125 
Q 14.9375 54.109375 19.578125 55.046875 
Q 24.21875 56 28.609375 56 
Q 40.484375 56 46.34375 49.84375 
Q 52.203125 43.703125 52.203125 31.203125 
z
" id="DejaVuSans-61"/>
      <path d="M 18.3125 70.21875 
L 18.3125 54.6875 
L 36.8125 54.6875 
L 36.8125 47.703125 
L 18.3125 47.703125 
L 18.3125 18.015625 
Q 18.3125 11.328125 20.140625 9.421875 
Q 21.96875 7.515625 27.59375 7.515625 
L 36.8125 7.515625 
L 36.8125 0 
L 27.59375 0 
Q 17.1875 0 13.234375 3.875 
Q 9.28125 7.765625 9.28125 18.015625 
L 9.28125 47.703125 
L 2.6875 47.703125 
L 2.6875 54.6875 
L 9.28125 54.6875 
L 9.28125 70.21875 
z
" id="DejaVuSans-74"/>
      <path d="M 9.421875 54.6875 
L 18.40625 54.6875 
L 18.40625 0 
L 9.421875 0 
z
M 9.421875 75.984375 
L 18.40625 75.984375 
L 18.40625 64.59375 
L 9.421875 64.59375 
z
" id="DejaVuSans-69"/>
      <path d="M 2.984375 54.6875 
L 12.5 54.6875 
L 29.59375 8.796875 
L 46.6875 54.6875 
L 56.203125 54.6875 
L 35.6875 0 
L 23.484375 0 
z
" id="DejaVuSans-76"/>
      <path d="M 56.203125 29.59375 
L 56.203125 25.203125 
L 14.890625 25.203125 
Q 15.484375 15.921875 20.484375 11.0625 
Q 25.484375 6.203125 34.421875 6.203125 
Q 39.59375 6.203125 44.453125 7.46875 
Q 49.3125 8.734375 54.109375 11.28125 
L 54.109375 2.78125 
Q 49.265625 0.734375 44.1875 -0.34375 
Q 39.109375 -1.421875 33.890625 -1.421875 
Q 20.796875 -1.421875 13.15625 6.1875 
Q 5.515625 13.8125 5.515625 26.8125 
Q 5.515625 40.234375 12.765625 48.109375 
Q 20.015625 56 32.328125 56 
Q 43.359375 56 49.78125 48.890625 
Q 56.203125 41.796875 56.203125 29.59375 
z
M 47.21875 32.234375 
Q 47.125 39.59375 43.09375 43.984375 
Q 39.0625 48.390625 32.421875 48.390625 
Q 24.90625 48.390625 20.390625 44.140625 
Q 15.875 39.890625 15.1875 32.171875 
z
" id="DejaVuSans-65"/>
      <path d="M 9.8125 72.90625 
L 51.703125 72.90625 
L 51.703125 64.59375 
L 19.671875 64.59375 
L 19.671875 43.109375 
L 48.578125 43.109375 
L 48.578125 34.8125 
L 19.671875 34.8125 
L 19.671875 0 
L 9.8125 0 
z
" id="DejaVuSans-46"/>
      <path d="M 14.796875 27.296875 
Q 14.796875 17.390625 18.875 11.75 
Q 22.953125 6.109375 30.078125 6.109375 
Q 37.203125 6.109375 41.296875 11.75 
Q 45.40625 17.390625 45.40625 27.296875 
Q 45.40625 37.203125 41.296875 42.84375 
Q 37.203125 48.484375 30.078125 48.484375 
Q 22.953125 48.484375 18.875 42.84375 
Q 14.796875 37.203125 14.796875 27.296875 
z
M 45.40625 8.203125 
Q 42.578125 3.328125 38.25 0.953125 
Q 33.9375 -1.421875 27.875 -1.421875 
Q 17.96875 -1.421875 11.734375 6.484375 
Q 5.515625 14.40625 5.515625 27.296875 
Q 5.515625 40.1875 11.734375 48.09375 
Q 17.96875 56 27.875 56 
Q 33.9375 56 38.25 53.625 
Q 42.578125 51.265625 45.40625 46.390625 
L 45.40625 54.6875 
L 54.390625 54.6875 
L 54.390625 -20.796875 
L 45.40625 -20.796875 
z
" id="DejaVuSans-71"/>
      <path d="M 54.890625 33.015625 
L 54.890625 0 
L 45.90625 0 
L 45.90625 32.71875 
Q 45.90625 40.484375 42.875 44.328125 
Q 39.84375 48.1875 33.796875 48.1875 
Q 26.515625 48.1875 22.3125 43.546875 
Q 18.109375 38.921875 18.109375 30.90625 
L 18.109375 0 
L 9.078125 0 
L 9.078125 54.6875 
L 18.109375 54.6875 
L 18.109375 46.1875 
Q 21.34375 51.125 25.703125 53.5625 
Q 30.078125 56 35.796875 56 
Q 45.21875 56 50.046875 50.171875 
Q 54.890625 44.34375 54.890625 33.015625 
z
" id="DejaVuSans-6e"/>
      <path d="M 48.78125 52.59375 
L 48.78125 44.1875 
Q 44.96875 46.296875 41.140625 47.34375 
Q 37.3125 48.390625 33.40625 48.390625 
Q 24.65625 48.390625 19.8125 42.84375 
Q 14.984375 37.3125 14.984375 27.296875 
Q 14.984375 17.28125 19.8125 11.734375 
Q 24.65625 6.203125 33.40625 6.203125 
Q 37.3125 6.203125 41.140625 7.25 
Q 44.96875 8.296875 48.78125 10.40625 
L 48.78125 2.09375 
Q 45.015625 0.34375 40.984375 -0.53125 
Q 36.96875 -1.421875 32.421875 -1.421875 
Q 20.0625 -1.421875 12.78125 6.34375 
Q 5.515625 14.109375 5.515625 27.296875 
Q 5.515625 40.671875 12.859375 48.328125 
Q 20.21875 56 33.015625 56 
Q 37.15625 56 41.109375 55.140625 
Q 45.0625 54.296875 48.78125 52.59375 
z
" id="DejaVuSans-63"/>
      <path d="M 32.171875 -5.078125 
Q 28.375 -14.84375 24.75 -17.8125 
Q 21.140625 -20.796875 15.09375 -20.796875 
L 7.90625 -20.796875 
L 7.90625 -13.28125 
L 13.1875 -13.28125 
Q 16.890625 -13.28125 18.9375 -11.515625 
Q 21 -9.765625 23.484375 -3.21875 
L 25.09375 0.875 
L 2.984375 54.6875 
L 12.5 54.6875 
L 29.59375 11.921875 
L 46.6875 54.6875 
L 56.203125 54.6875 
z
" id="DejaVuSans-79"/>
     </defs>
     <g transform="translate(18.65125 214.904219)rotate(-90)scale(0.1 -0.1)">
      <use xlink:href="#DejaVuSans-43"/>
      <use x="69.824219" xlink:href="#DejaVuSans-75"/>
      <use x="133.203125" xlink:href="#DejaVuSans-6d"/>
      <use x="230.615234" xlink:href="#DejaVuSans-75"/>
      <use x="293.994141" xlink:href="#DejaVuSans-6c"/>
      <use x="321.777344" xlink:href="#DejaVuSans-61"/>
      <use x="383.056641" xlink:href="#DejaVuSans-74"/>
      <use x="422.265625" xlink:href="#DejaVuSans-69"/>
      <use x="450.048828" xlink:href="#DejaVuSans-76"/>
      <use x="509.228516" xlink:href="#DejaVuSans-65"/>
      <use x="570.751953" xlink:href="#DejaVuSans-20"/>
      <use x="602.539062" xlink:href="#DejaVuSans-46"/>
      <use x="659.949219" xlink:href="#DejaVuSans-72"/>
      <use x="701.03125" xlink:href="#DejaVuSans-65"/>
      <use x="762.554688" xlink:href="#DejaVuSans-71"/>
      <use x="826.03125" xlink:href="#DejaVuSans-75"/>
      <use x="889.410156" xlink:href="#DejaVuSans-65"/>
      <use x="950.933594" xlink:href="#DejaVuSans-6e"/>
      <use x="1014.3125" xlink:href="#DejaVuSans-63"/>
      <use x="1069.292969" xlink:href="#DejaVuSans-79"/>
     </g>
    </g>
   </g>
   <g id="line2d_22">
    <path clip-path="url(#pd3e845cfa0)" d="M 72.268324 290.443636 
L 87.799467 290.036969 
L 98.494855 289.630301 
L 99.791312 289.223634 
L 100.519328 288.816966 
L 102.878223 288.410298 
L 103.087428 287.596963 
L 105.095103 287.190296 
L 105.588337 286.783628 
L 115.091871 286.37696 
L 115.188074 285.563625 
L 115.556091 285.156958 
L 115.62099 284.75029 
L 117.009451 284.343622 
L 119.969236 283.936955 
L 134.718152 283.530287 
L 135.443878 283.12362 
L 136.948776 282.716952 
L 137.063686 281.903617 
L 137.241586 281.496949 
L 137.353823 279.870279 
L 137.431702 279.056944 
L 137.759252 278.650276 
L 137.882179 277.836941 
L 138.452529 277.430273 
L 138.787714 277.023606 
L 139.512676 276.616938 
L 139.855497 276.21027 
L 139.923068 275.803603 
L 141.426439 275.396935 
L 142.356406 274.990268 
L 145.700242 274.5836 
L 150.032073 274.176932 
L 151.874828 273.770265 
L 152.817776 273.363597 
L 153.137691 272.95693 
L 155.077795 272.550262 
L 158.620528 272.143594 
L 159.589816 271.736927 
L 160.878638 270.923592 
L 169.693476 270.110256 
L 170.71163 269.703589 
L 174.217332 269.296921 
L 175.814998 268.890254 
L 178.531602 268.483586 
L 180.033064 268.076918 
L 180.888207 267.670251 
L 180.901568 267.263583 
L 185.646082 266.04358 
L 187.159378 265.636913 
L 187.994287 265.230245 
L 188.235178 264.823578 
L 188.274499 264.41691 
L 188.584488 263.603575 
L 188.587924 263.196907 
L 188.818125 262.383572 
L 189.460246 259.130231 
L 189.590808 257.503561 
L 189.700373 257.096893 
L 190.126417 256.690226 
L 190.171465 256.283558 
L 190.542154 255.87689 
L 190.71051 254.656888 
L 190.882684 254.25022 
L 191.96001 253.030217 
L 193.048026 252.62355 
L 193.761536 251.810214 
L 194.373879 251.403547 
L 196.291459 250.996879 
L 196.439964 250.590212 
L 198.956526 249.370209 
L 199.184055 248.963541 
L 199.791817 248.556874 
L 200.69048 248.150206 
L 201.060405 247.743538 
L 202.12857 247.336871 
L 202.155675 246.930203 
L 202.653871 246.523536 
L 205.166997 246.116868 
L 205.387273 245.7102 
L 206.101546 245.303533 
L 206.294716 244.896865 
L 207.083433 244.08353 
L 207.272404 243.676862 
L 208.143962 242.863527 
L 208.200462 242.45686 
L 208.489073 242.050192 
L 209.57938 241.236857 
L 212.137172 240.830189 
L 213.245421 240.423522 
L 214.957233 240.016854 
L 215.335557 239.610186 
L 215.454284 239.203519 
L 218.993199 238.390183 
L 219.248215 237.983516 
L 219.888427 237.576848 
L 222.979156 236.763513 
L 223.37046 236.356845 
L 224.633322 235.950178 
L 224.644011 235.54351 
L 228.631876 235.136843 
L 230.387972 234.730175 
L 232.726252 233.91684 
L 233.407693 233.510172 
L 236.08803 232.696837 
L 236.29189 232.290169 
L 240.857358 231.476834 
L 243.325436 230.256831 
L 245.968361 229.850164 
L 247.767978 229.443496 
L 251.199618 229.036829 
L 252.12844 228.630161 
L 252.577772 228.223493 
L 252.695354 227.816826 
L 254.795034 227.410158 
L 255.112658 227.003491 
L 256.517917 226.596823 
L 256.910748 226.190155 
L 258.14536 225.783488 
L 259.751806 225.37682 
L 260.170978 224.970153 
L 262.663108 224.563485 
L 262.715409 224.156817 
L 265.599987 223.343482 
L 265.851949 222.936815 
L 267.164058 222.530147 
L 269.262974 222.123479 
L 275.632258 221.716812 
L 276.713403 221.310144 
L 281.691553 220.903477 
L 282.253885 220.496809 
L 284.904063 220.090141 
L 285.222451 219.276806 
L 286.979311 218.870139 
L 290.000559 218.463471 
L 291.315723 218.056803 
L 293.506261 217.650136 
L 293.561998 217.243468 
L 295.98961 216.836801 
L 296.177818 216.430133 
L 297.210097 216.023465 
L 299.289925 215.616798 
L 305.241182 214.803463 
L 307.640544 214.396795 
L 307.654287 213.990127 
L 314.70005 213.58346 
L 314.883294 213.176792 
L 317.179199 212.770125 
L 323.31141 212.363457 
L 325.034675 211.956789 
L 325.885618 211.550122 
L 329.677258 210.736787 
L 330.875221 210.330119 
L 330.887055 209.923451 
L 333.0398 209.516784 
L 334.241199 209.110116 
L 337.057442 208.703449 
L 338.419562 208.296781 
L 342.461637 207.890113 
L 343.966535 207.076778 
L 345.279407 206.670111 
L 345.530605 206.263443 
L 349.689117 205.856775 
L 349.957876 205.450108 
L 352.22973 205.04344 
L 353.245975 204.636773 
L 353.510535 204.230105 
L 355.449494 203.823437 
L 356.660818 202.603435 
L 356.787181 202.196767 
L 359.933265 201.790099 
L 359.997401 201.383432 
L 360.350529 200.976764 
L 363.080494 200.570097 
L 364.101321 200.163429 
L 364.321596 199.756761 
L 367.509292 199.350094 
L 371.868228 198.536759 
L 378.971636 198.130091 
L 379.672929 197.723423 
L 381.410701 197.316756 
L 381.560732 196.503421 
L 383.738292 196.096753 
L 383.993307 195.690085 
L 385.134006 195.283418 
L 387.013411 194.87675 
L 387.212689 194.470083 
L 389.713217 194.063415 
L 391.202845 193.656747 
L 391.500618 193.25008 
L 392.743246 192.843412 
L 393.560976 191.623409 
L 393.761782 191.216742 
L 394.627614 190.403407 
L 397.567548 189.590071 
L 401.038509 189.183404 
L 401.358043 188.776736 
L 401.865783 188.370069 
L 402.171191 187.963401 
L 402.184935 187.556733 
L 404.011275 186.743398 
L 404.401052 186.336731 
L 406.212884 185.523395 
L 406.756892 185.116728 
L 408.66951 184.71006 
L 408.955448 184.303393 
L 408.958502 183.896725 
L 410.071333 183.490057 
L 411.614025 183.08339 
L 412.133982 182.676722 
L 412.17903 181.863387 
L 413.900767 181.456719 
L 414.310014 181.050052 
L 416.089779 180.643384 
L 416.276078 180.236717 
L 419.555015 179.423381 
L 419.855842 179.016714 
L 419.95968 178.203379 
L 420.410539 177.796711 
L 421.10496 176.576708 
L 421.645532 174.54337 
L 422.396836 174.136703 
L 422.846549 173.730035 
L 423.696729 173.323367 
L 423.960525 172.9167 
L 423.96587 172.510032 
L 424.262116 172.103365 
L 425.043578 171.290029 
L 425.346314 170.883362 
L 425.41923 170.476694 
L 426.467925 170.070027 
L 426.556493 168.850024 
L 427.237935 168.036689 
L 427.889599 167.630021 
L 428.070172 167.223353 
L 429.038697 166.816686 
L 429.555218 166.003351 
L 429.89193 164.783348 
L 430.159544 164.37668 
L 430.959331 163.970013 
L 431.765227 163.156677 
L 431.785078 162.75001 
L 432.647092 162.343342 
L 433.120475 161.123339 
L 433.405649 160.716672 
L 433.474366 160.310004 
L 434.679582 157.869999 
L 435.611459 157.463331 
L 435.837079 156.649996 
L 436.217312 155.429993 
L 437.00641 154.20999 
L 437.291203 153.803323 
L 438.034871 151.769985 
L 438.77854 150.143314 
L 439.105708 148.923311 
L 439.301551 146.889973 
L 439.581763 146.076638 
L 439.698963 145.669971 
L 440.014297 145.263303 
L 440.555632 143.636633 
L 440.590372 142.009962 
L 440.825918 141.603295 
L 441.410775 137.943286 
L 441.584476 135.909948 
L 441.747105 133.063275 
L 441.794444 131.436605 
L 442.054422 121.269915 
L 442.079618 105.409878 
L 442.08 26.516364 
L 442.08 26.516364 
" style="fill:none;stroke:#1f77b4;stroke-linecap:square;stroke-width:1.5;"/>
   </g>
   <g id="line2d_23">
    <path clip-path="url(#pd3e845cfa0)" d="M 60.43491 290.443636 
L 60.470795 289.630301 
L 67.019888 289.223634 
L 70.347308 288.410298 
L 70.64928 288.003631 
L 71.830064 287.596963 
L 72.124019 287.190296 
L 72.929151 286.783628 
L 72.929533 286.37696 
L 73.334962 285.970293 
L 74.616912 285.563625 
L 77.199518 285.156958 
L 78.062296 284.75029 
L 80.444097 284.343622 
L 81.718412 283.936955 
L 81.940978 283.530287 
L 82.304413 283.12362 
L 82.895378 282.716952 
L 82.964094 282.310284 
L 83.277138 281.903617 
L 83.909332 281.496949 
L 86.296477 281.090282 
L 87.239806 280.683614 
L 88.663389 280.276946 
L 89.017663 279.870279 
L 89.077599 279.463611 
L 94.006884 278.650276 
L 94.757043 278.243608 
L 94.757043 277.836941 
L 95.477042 277.430273 
L 99.091164 276.616938 
L 99.329382 276.21027 
L 99.368322 275.803603 
L 100.571629 275.396935 
L 102.569761 274.990268 
L 102.891585 274.5836 
L 102.958774 273.363597 
L 103.39818 272.95693 
L 103.429484 272.550262 
L 104.176971 271.736927 
L 104.220109 271.330259 
L 104.60416 270.516924 
L 105.214594 270.110256 
L 105.909016 269.296921 
L 107.145918 268.076918 
L 108.719151 267.670251 
L 110.960464 267.263583 
L 111.958003 266.856916 
L 113.120844 266.04358 
L 114.934204 265.230245 
L 115.104087 264.010242 
L 115.314819 263.603575 
L 115.74888 263.196907 
L 116.420777 261.570237 
L 116.889579 261.163569 
L 117.058698 260.756902 
L 117.726015 260.350234 
L 117.897425 259.943566 
L 118.364699 259.536899 
L 119.546628 259.130231 
L 121.49055 258.723564 
L 121.7009 258.316896 
L 122.315915 257.910228 
L 123.229849 257.503561 
L 123.230612 257.096893 
L 123.954047 256.690226 
L 124.341152 256.283558 
L 127.655211 255.87689 
L 128.273662 255.470223 
L 129.569355 255.063555 
L 129.821317 254.656888 
L 130.364561 254.25022 
L 132.280996 253.843552 
L 132.414612 253.030217 
L 135.811131 252.62355 
L 136.40515 252.216882 
L 136.699868 250.590212 
L 137.001459 247.743538 
L 137.124386 247.336871 
L 137.396199 246.930203 
L 137.429794 246.116868 
L 137.581734 245.7102 
L 138.261267 244.896865 
L 138.728159 243.676862 
L 138.887353 242.863527 
L 139.418763 242.050192 
L 140.213969 241.643524 
L 141.263046 241.236857 
L 141.564254 240.830189 
L 142.348008 240.423522 
L 142.808792 240.016854 
L 144.433944 239.610186 
L 144.68247 239.203519 
L 145.309702 238.796851 
L 145.351695 238.390183 
L 145.74758 237.983516 
L 145.930825 237.576848 
L 145.95144 237.170181 
L 149.974045 236.763513 
L 151.084585 236.356845 
L 151.129633 235.950178 
L 153.425156 235.54351 
L 154.945324 235.136843 
L 155.07016 234.730175 
L 155.545069 234.323507 
L 155.592407 233.91684 
L 155.982566 233.510172 
L 157.208016 233.103505 
L 157.512278 232.696837 
L 157.569924 232.290169 
L 158.60144 231.883502 
L 160.580484 231.476834 
L 162.747353 230.663499 
L 163.366186 230.256831 
L 167.370085 229.850164 
L 168.652417 229.036829 
L 170.035533 227.410158 
L 170.877696 227.003491 
L 173.002954 226.596823 
L 176.110099 226.190155 
L 176.180342 225.783488 
L 176.766726 224.970153 
L 182.348057 224.563485 
L 185.011596 224.156817 
L 186.713483 223.75015 
L 186.781054 223.343482 
L 187.277342 222.936815 
L 187.37889 222.123479 
L 187.709113 221.310144 
L 187.94275 220.496809 
L 188.108434 219.683474 
L 188.19433 218.463471 
L 188.264955 217.650136 
L 188.51768 217.243468 
L 188.557002 216.836801 
L 188.737192 216.430133 
L 188.758571 216.023465 
L 189.653798 215.21013 
L 190.301645 214.803463 
L 190.384487 214.396795 
L 190.61736 213.990127 
L 191.365228 213.58346 
L 191.790509 212.770125 
L 192.540667 212.363457 
L 192.723148 211.956789 
L 193.518736 211.550122 
L 194.187962 210.736787 
L 194.353264 210.330119 
L 194.354791 209.923451 
L 195.594365 209.516784 
L 195.618416 209.110116 
L 195.932987 208.703449 
L 196.563654 208.296781 
L 197.814682 207.890113 
L 197.927683 207.483446 
L 198.241489 207.076778 
L 199.95521 206.263443 
L 200.433555 205.856775 
L 201.979301 205.450108 
L 202.394656 205.04344 
L 202.488951 204.636773 
L 203.335313 203.823437 
L 205.854165 203.41677 
L 206.865448 203.010102 
L 210.964405 202.196767 
L 216.006309 200.976764 
L 218.12126 198.943426 
L 218.227007 198.536759 
L 218.564101 198.130091 
L 220.358755 197.723423 
L 220.421364 197.316756 
L 220.81534 196.910088 
L 221.371564 196.503421 
L 227.199894 195.690085 
L 227.892025 195.283418 
L 228.014952 194.87675 
L 229.283922 194.470083 
L 229.959637 194.063415 
L 231.056815 193.656747 
L 236.253714 193.25008 
L 236.700373 192.843412 
L 238.883277 192.030077 
L 240.287772 191.623409 
L 240.677167 191.216742 
L 243.660622 190.810074 
L 243.758734 190.403407 
L 246.257735 189.996739 
L 246.914362 189.590071 
L 246.943758 189.183404 
L 249.253788 188.776736 
L 250.50367 187.963401 
L 250.781591 187.556733 
L 250.99614 186.743398 
L 251.284369 186.336731 
L 252.344135 185.930063 
L 252.694972 185.523395 
L 254.931322 185.116728 
L 255.832658 184.71006 
L 257.27342 184.303393 
L 259.632697 183.08339 
L 262.431379 182.676722 
L 263.483892 182.270055 
L 263.984379 181.863387 
L 265.146456 181.456719 
L 267.370972 181.050052 
L 267.978352 180.643384 
L 270.362443 180.236717 
L 271.772665 179.830049 
L 276.411812 179.016714 
L 276.604601 178.610046 
L 278.730241 178.203379 
L 282.263048 177.796711 
L 282.969304 177.390043 
L 283.064362 176.983376 
L 284.645994 176.576708 
L 284.80137 175.763373 
L 287.422534 174.950038 
L 288.091378 174.136703 
L 288.965226 173.730035 
L 290.497611 173.323367 
L 293.204289 172.9167 
L 293.997205 172.510032 
L 295.098582 172.103365 
L 296.420617 171.290029 
L 297.744179 170.883362 
L 298.077074 170.476694 
L 298.994825 170.070027 
L 299.454464 169.663359 
L 301.664473 169.256691 
L 302.958639 168.850024 
L 302.959403 168.443356 
L 303.218999 168.036689 
L 305.053738 167.630021 
L 308.851486 167.223353 
L 309.073289 166.816686 
L 309.653564 166.410018 
L 310.720202 166.003351 
L 310.759523 165.596683 
L 311.567327 165.190015 
L 318.169103 163.970013 
L 318.699367 163.563345 
L 318.973089 163.156677 
L 318.973853 162.75001 
L 324.741865 161.936675 
L 324.759044 161.530007 
L 328.287652 161.123339 
L 329.300461 160.716672 
L 331.775793 160.310004 
L 331.897956 159.903337 
L 332.540458 159.496669 
L 333.436067 159.090001 
L 338.51233 158.683334 
L 338.62953 158.276666 
L 342.472326 157.463331 
L 346.194486 157.056663 
L 346.577773 156.649996 
L 347.509268 156.243328 
L 350.580527 155.836661 
L 354.332082 155.023325 
L 354.750491 154.616658 
L 357.167414 154.20999 
L 357.764105 153.803323 
L 359.446521 153.396655 
L 359.786287 152.989987 
L 361.343486 152.58332 
L 363.808892 152.176652 
L 363.850886 151.769985 
L 364.441087 151.363317 
L 364.768637 150.956649 
L 366.262846 150.549982 
L 367.022166 150.143314 
L 369.112302 149.329979 
L 370.215207 148.109976 
L 370.98598 147.296641 
L 372.323286 146.889973 
L 373.210878 146.483306 
L 377.33694 146.076638 
L 378.146653 145.263303 
L 380.416598 144.856635 
L 380.777743 144.449968 
L 381.918823 144.0433 
L 384.024612 143.636633 
L 389.510884 143.229965 
L 390.039622 142.823297 
L 391.749907 142.41663 
L 394.296246 142.009962 
L 395.82405 141.603295 
L 396.445555 141.196627 
L 396.553593 140.789959 
L 400.724703 139.976624 
L 401.434013 139.569957 
L 403.802834 139.163289 
L 404.132674 138.756621 
L 406.528218 138.349954 
L 408.567962 137.129951 
L 409.108534 136.723283 
L 409.218481 136.316616 
L 409.611694 135.909948 
L 411.553325 135.503281 
L 411.641512 134.689945 
L 412.012201 134.283278 
L 413.029591 133.87661 
L 413.346834 133.469943 
L 415.596164 133.063275 
L 416.024498 132.656607 
L 417.525197 132.24994 
L 418.258176 131.843272 
L 418.273828 131.436605 
L 418.781569 131.029937 
L 419.013297 130.623269 
L 420.715947 129.403267 
L 421.156498 128.996599 
L 421.33058 128.589931 
L 422.475479 128.183264 
L 424.386951 127.776596 
L 424.606845 127.369929 
L 426.803874 126.149926 
L 427.427288 125.743258 
L 428.561497 125.336591 
L 428.614561 124.929923 
L 429.667074 124.523255 
L 430.103044 123.70992 
L 430.262237 123.303253 
L 431.157465 122.489917 
L 431.266648 121.676582 
L 431.643827 121.269915 
L 432.589828 120.863247 
L 433.088788 120.456579 
L 433.408322 119.236577 
L 434.05006 118.829909 
L 434.45358 118.016574 
L 435.051798 115.576568 
L 435.704608 114.763233 
L 435.763399 113.949898 
L 437.195381 113.54323 
L 437.473684 113.136563 
L 438.084118 110.696557 
L 438.101679 110.289889 
L 438.394489 109.476554 
L 438.554065 108.256551 
L 438.852219 107.849884 
L 439.026302 107.036549 
L 439.228635 106.629881 
L 439.258412 106.223213 
L 440.003607 105.003211 
L 440.223883 102.156537 
L 440.647636 100.123199 
L 441.028633 98.496529 
L 441.219895 96.463191 
L 441.465748 93.20985 
L 441.504306 91.989847 
L 441.642121 91.176512 
L 442.035334 78.569817 
L 442.075037 68.809794 
L 442.08 26.516364 
L 442.08 26.516364 
" style="fill:none;stroke:#ff7f0e;stroke-linecap:square;stroke-width:1.5;"/>
   </g>
   <g id="patch_3">
    <path d="M 60.32 303.64 
L 60.32 13.32 
" style="fill:none;stroke:#000000;stroke-linecap:square;stroke-linejoin:miter;stroke-width:0.8;"/>
   </g>
   <g id="patch_4">
    <path d="M 442.08 303.64 
L 442.08 13.32 
" style="fill:none;stroke:#000000;stroke-linecap:square;stroke-linejoin:miter;stroke-width:0.8;"/>
   </g>
   <g id="patch_5">
    <path d="M 60.32 303.64 
L 442.08 303.64 
" style="fill:none;stroke:#000000;stroke-linecap:square;stroke-linejoin:miter;stroke-width:0.8;"/>
   </g>
   <g id="patch_6">
    <path d="M 60.32 13.32 
L 442.08 13.32 
" style="fill:none;stroke:#000000;stroke-linecap:square;stroke-linejoin:miter;stroke-width:0.8;"/>
   </g>
   <g id="legend_1">
    <g id="patch_7">
     <path d="M 381.497187 298.64 
L 435.08 298.64 
Q 437.08 298.64 437.08 296.64 
L 437.08 268.28375 
Q 437.08 266.28375 435.08 266.28375 
L 381.497187 266.28375 
Q 379.497187 266.28375 379.497187 268.28375 
L 379.497187 296.64 
Q 379.497187 298.64 381.497187 298.64 
z
" style="fill:#ffffff;opacity:0.8;stroke:#cccccc;stroke-linejoin:miter;"/>
    </g>
    <g id="line2d_24">
     <path d="M 383.497187 274.382187 
L 403.497187 274.382187 
" style="fill:none;stroke:#1f77b4;stroke-linecap:square;stroke-width:1.5;"/>
    </g>
    <g id="line2d_25"/>
    <g id="text_19">
     <!-- long -->
     <defs>
      <path d="M 30.609375 48.390625 
Q 23.390625 48.390625 19.1875 42.75 
Q 14.984375 37.109375 14.984375 27.296875 
Q 14.984375 17.484375 19.15625 11.84375 
Q 23.34375 6.203125 30.609375 6.203125 
Q 37.796875 6.203125 41.984375 11.859375 
Q 46.1875 17.53125 46.1875 27.296875 
Q 46.1875 37.015625 41.984375 42.703125 
Q 37.796875 48.390625 30.609375 48.390625 
z
M 30.609375 56 
Q 42.328125 56 49.015625 48.375 
Q 55.71875 40.765625 55.71875 27.296875 
Q 55.71875 13.875 49.015625 6.21875 
Q 42.328125 -1.421875 30.609375 -1.421875 
Q 18.84375 -1.421875 12.171875 6.21875 
Q 5.515625 13.875 5.515625 27.296875 
Q 5.515625 40.765625 12.171875 48.375 
Q 18.84375 56 30.609375 56 
z
" id="DejaVuSans-6f"/>
      <path d="M 45.40625 27.984375 
Q 45.40625 37.75 41.375 43.109375 
Q 37.359375 48.484375 30.078125 48.484375 
Q 22.859375 48.484375 18.828125 43.109375 
Q 14.796875 37.75 14.796875 27.984375 
Q 14.796875 18.265625 18.828125 12.890625 
Q 22.859375 7.515625 30.078125 7.515625 
Q 37.359375 7.515625 41.375 12.890625 
Q 45.40625 18.265625 45.40625 27.984375 
z
M 54.390625 6.78125 
Q 54.390625 -7.171875 48.1875 -13.984375 
Q 42 -20.796875 29.203125 -20.796875 
Q 24.46875 -20.796875 20.265625 -20.09375 
Q 16.0625 -19.390625 12.109375 -17.921875 
L 12.109375 -9.1875 
Q 16.0625 -11.328125 19.921875 -12.34375 
Q 23.78125 -13.375 27.78125 -13.375 
Q 36.625 -13.375 41.015625 -8.765625 
Q 45.40625 -4.15625 45.40625 5.171875 
L 45.40625 9.625 
Q 42.625 4.78125 38.28125 2.390625 
Q 33.9375 0 27.875 0 
Q 17.828125 0 11.671875 7.65625 
Q 5.515625 15.328125 5.515625 27.984375 
Q 5.515625 40.671875 11.671875 48.328125 
Q 17.828125 56 27.875 56 
Q 33.9375 56 38.28125 53.609375 
Q 42.625 51.21875 45.40625 46.390625 
L 45.40625 54.6875 
L 54.390625 54.6875 
z
" id="DejaVuSans-67"/>
     </defs>
     <g transform="translate(411.497187 277.882187)scale(0.1 -0.1)">
      <use xlink:href="#DejaVuSans-6c"/>
      <use x="27.783203" xlink:href="#DejaVuSans-6f"/>
      <use x="88.964844" xlink:href="#DejaVuSans-6e"/>
      <use x="152.34375" xlink:href="#DejaVuSans-67"/>
     </g>
    </g>
    <g id="line2d_26">
     <path d="M 383.497187 289.060312 
L 403.497187 289.060312 
" style="fill:none;stroke:#ff7f0e;stroke-linecap:square;stroke-width:1.5;"/>
    </g>
    <g id="line2d_27"/>
    <g id="text_20">
     <!-- V4 -->
     <defs>
      <path d="M 28.609375 0 
L 0.78125 72.90625 
L 11.078125 72.90625 
L 34.1875 11.53125 
L 57.328125 72.90625 
L 67.578125 72.90625 
L 39.796875 0 
z
" id="DejaVuSans-56"/>
     </defs>
     <g transform="translate(411.497187 292.560312)scale(0.1 -0.1)">
      <use xlink:href="#DejaVuSans-56"/>
      <use x="68.408203" xlink:href="#DejaVuSans-34"/>
     </g>
    </g>
   </g>
  </g>
 </g>
 <defs>
  <clipPath id="pd3e845cfa0">
   <rect height="290.32" width="381.76" x="60.32" y="13.32"/>
  </clipPath>
 </defs>
</svg>
