<?xml version="1.0" encoding="utf-8" standalone="no"?>
<!DOCTYPE svg PUBLIC "-//W3C//DTD SVG 1.1//EN"
  "http://www.w3.org/Graphics/SVG/1.1/DTD/svg11.dtd">
<!-- Created with matplotlib (http://matplotlib.org/) -->
<svg height="396pt" version="1.1" viewBox="0 0 576 396" width="576pt" xmlns="http://www.w3.org/2000/svg" xmlns:xlink="http://www.w3.org/1999/xlink">
 <defs>
  <style type="text/css">
*{stroke-linecap:butt;stroke-linejoin:round;}
  </style>
 </defs>
 <g id="figure_1">
  <g id="patch_1">
   <path d="
M0 396
L576 396
L576 0
L0 0
z
" style="fill:#ffffff;"/>
  </g>
  <g id="axes_1">
   <g id="patch_2">
    <path d="
M88.8735 330.864
L544.851 330.864
L544.851 28.386
L88.8735 28.386
z
" style="fill:#eaeaf2;"/>
   </g>
   <g id="matplotlib.axis_1">
    <g id="xtick_1">
     <g id="line2d_1">
      <path clip-path="url(#p833ddef057)" d="
M88.8735 330.864
L88.8735 28.386" style="fill:none;stroke:#ffffff;stroke-linecap:round;"/>
     </g>
     <g id="line2d_2">
      <defs>
       <path d="
M0 0
L0 0" id="m219da94a98" style="stroke:#262626;"/>
      </defs>
      <g>
       <use style="fill:#262626;stroke:#262626;" x="88.8735" xlink:href="#m219da94a98" y="330.864"/>
      </g>
     </g>
     <g id="line2d_3">
      <g>
       <use style="fill:#262626;stroke:#262626;" x="88.8735" xlink:href="#m219da94a98" y="28.386"/>
      </g>
     </g>
     <g id="text_1">
      <!-- 0.0 -->
      <defs>
       <path d="
M9.125 0
L9.125 10.6875
L18.6562 10.6875
L18.6562 0
z
" id="LiberationSans-2e"/>
       <path d="
M51.7031 34.4219
Q51.7031 24.5156 49.8281 17.75
Q47.9531 10.9844 44.7031 6.8125
Q41.4531 2.64062 37.0625 0.828125
Q32.6719 -0.984375 27.6875 -0.984375
Q22.6562 -0.984375 18.3125 0.828125
Q13.9688 2.64062 10.7656 6.78125
Q7.5625 10.9375 5.73438 17.7031
Q3.90625 24.4688 3.90625 34.4219
Q3.90625 44.8281 5.73438 51.6406
Q7.5625 58.4531 10.7812 62.5
Q14.0156 66.5469 18.4062 68.1875
Q22.7969 69.8281 27.9844 69.8281
Q32.9062 69.8281 37.2188 68.1875
Q41.5469 66.5469 44.7656 62.5
Q48 58.4531 49.8438 51.6406
Q51.7031 44.8281 51.7031 34.4219
M42.7812 34.4219
Q42.7812 42.625 41.7969 48.0625
Q40.8281 53.5156 38.9219 56.7656
Q37.0156 60.0156 34.25 61.3594
Q31.5 62.7031 27.9844 62.7031
Q24.2656 62.7031 21.4375 61.3281
Q18.6094 59.9688 16.6719 56.7188
Q14.75 53.4688 13.7656 48.0156
Q12.7969 42.5781 12.7969 34.4219
Q12.7969 26.5156 13.7969 21.0938
Q14.7969 15.6719 16.7188 12.375
Q18.6562 9.07812 21.4375 7.64062
Q24.2188 6.20312 27.7812 6.20312
Q31.25 6.20312 34.0312 7.64062
Q36.8125 9.07812 38.7344 12.375
Q40.6719 15.6719 41.7188 21.0938
Q42.7812 26.5156 42.7812 34.4219" id="LiberationSans-30"/>
      </defs>
      <g style="fill:#262626;" transform="translate(78.3785 349.459)scale(0.16 -0.16)">
       <use xlink:href="#LiberationSans-30"/>
       <use x="55.615234375" xlink:href="#LiberationSans-2e"/>
       <use x="83.3984375" xlink:href="#LiberationSans-30"/>
      </g>
     </g>
    </g>
    <g id="xtick_2">
     <g id="line2d_4">
      <path clip-path="url(#p833ddef057)" d="
M134.471 330.864
L134.471 28.386" style="fill:none;stroke:#ffffff;stroke-linecap:round;"/>
     </g>
     <g id="line2d_5">
      <g>
       <use style="fill:#262626;stroke:#262626;" x="134.471221875" xlink:href="#m219da94a98" y="330.864"/>
      </g>
     </g>
     <g id="line2d_6">
      <g>
       <use style="fill:#262626;stroke:#262626;" x="134.471221875" xlink:href="#m219da94a98" y="28.386"/>
      </g>
     </g>
     <g id="text_2">
      <!-- 0.2 -->
      <defs>
       <path d="
M5.03125 0
L5.03125 6.20312
Q7.51562 11.9219 11.1094 16.2812
Q14.7031 20.6562 18.6562 24.1875
Q22.6094 27.7344 26.4844 30.7656
Q30.375 33.7969 33.5 36.8125
Q36.625 39.8438 38.5469 43.1562
Q40.4844 46.4844 40.4844 50.6875
Q40.4844 53.6094 39.5938 55.8281
Q38.7188 58.0625 37.0625 59.5625
Q35.4062 61.0781 33.0781 61.8281
Q30.7656 62.5938 27.9375 62.5938
Q25.2969 62.5938 22.9688 61.8594
Q20.6562 61.1406 18.8438 59.6719
Q17.0469 58.2031 15.8906 56.0312
Q14.75 53.8594 14.4062 50.9844
L5.42188 51.8125
Q5.85938 55.5156 7.46875 58.7812
Q9.07812 62.0625 11.9062 64.5312
Q14.75 67 18.7188 68.4062
Q22.7031 69.8281 27.9375 69.8281
Q33.0625 69.8281 37.0625 68.6094
Q41.0625 67.3906 43.8125 64.9844
Q46.5781 62.5938 48.0469 59.0781
Q49.5156 55.5625 49.5156 50.9844
Q49.5156 47.5156 48.2656 44.3906
Q47.0156 41.2656 44.9375 38.4219
Q42.875 35.5938 40.1406 32.9531
Q37.4062 30.3281 34.4219 27.8125
Q31.4531 25.2969 28.4219 22.8281
Q25.3906 20.3594 22.7188 17.8594
Q20.0625 15.375 17.9688 12.8125
Q15.875 10.25 14.7031 7.46875
L50.5938 7.46875
L50.5938 0
z
" id="LiberationSans-32"/>
      </defs>
      <g style="fill:#262626;" transform="translate(124.064971875 349.459)scale(0.16 -0.16)">
       <use xlink:href="#LiberationSans-30"/>
       <use x="55.615234375" xlink:href="#LiberationSans-2e"/>
       <use x="83.3984375" xlink:href="#LiberationSans-32"/>
      </g>
     </g>
    </g>
    <g id="xtick_3">
     <g id="line2d_7">
      <path clip-path="url(#p833ddef057)" d="
M180.069 330.864
L180.069 28.386" style="fill:none;stroke:#ffffff;stroke-linecap:round;"/>
     </g>
     <g id="line2d_8">
      <g>
       <use style="fill:#262626;stroke:#262626;" x="180.06894375" xlink:href="#m219da94a98" y="330.864"/>
      </g>
     </g>
     <g id="line2d_9">
      <g>
       <use style="fill:#262626;stroke:#262626;" x="180.06894375" xlink:href="#m219da94a98" y="28.386"/>
      </g>
     </g>
     <g id="text_3">
      <!-- 0.4 -->
      <defs>
       <path d="
M43.0156 15.5781
L43.0156 0
L34.7188 0
L34.7188 15.5781
L2.29688 15.5781
L2.29688 22.4062
L33.7969 68.7969
L43.0156 68.7969
L43.0156 22.5156
L52.6875 22.5156
L52.6875 15.5781
z

M34.7188 58.8906
Q34.625 58.6406 34.2344 57.9375
Q33.8438 57.2344 33.3438 56.3438
Q32.8594 55.4688 32.3438 54.5625
Q31.8438 53.6562 31.4531 53.0781
L13.8125 27.0938
Q13.5781 26.7031 13.1094 26.0625
Q12.6406 25.4375 12.1562 24.7812
Q11.6719 24.125 11.1719 23.4844
Q10.6875 22.8594 10.4062 22.5156
L34.7188 22.5156
z
" id="LiberationSans-34"/>
      </defs>
      <g style="fill:#262626;" transform="translate(169.49519375 349.459)scale(0.16 -0.16)">
       <use xlink:href="#LiberationSans-30"/>
       <use x="55.615234375" xlink:href="#LiberationSans-2e"/>
       <use x="83.3984375" xlink:href="#LiberationSans-34"/>
      </g>
     </g>
    </g>
    <g id="xtick_4">
     <g id="line2d_10">
      <path clip-path="url(#p833ddef057)" d="
M225.667 330.864
L225.667 28.386" style="fill:none;stroke:#ffffff;stroke-linecap:round;"/>
     </g>
     <g id="line2d_11">
      <g>
       <use style="fill:#262626;stroke:#262626;" x="225.666665625" xlink:href="#m219da94a98" y="330.864"/>
      </g>
     </g>
     <g id="line2d_12">
      <g>
       <use style="fill:#262626;stroke:#262626;" x="225.666665625" xlink:href="#m219da94a98" y="28.386"/>
      </g>
     </g>
     <g id="text_4">
      <!-- 0.6 -->
      <defs>
       <path d="
M51.2188 22.5156
Q51.2188 17.3281 49.7812 13
Q48.3438 8.6875 45.5312 5.57812
Q42.7188 2.48438 38.5625 0.75
Q34.4219 -0.984375 29 -0.984375
Q23 -0.984375 18.5 1.3125
Q14.0156 3.60938 11.0312 7.92188
Q8.0625 12.25 6.5625 18.5312
Q5.07812 24.8125 5.07812 32.8125
Q5.07812 42 6.76562 48.9219
Q8.45312 55.8594 11.625 60.5
Q14.7969 65.1406 19.3594 67.4844
Q23.9219 69.8281 29.6875 69.8281
Q33.2031 69.8281 36.2812 69.0938
Q39.3594 68.3594 41.875 66.7188
Q44.3906 65.0938 46.2812 62.4062
Q48.1875 59.7188 49.3125 55.8125
L40.9219 54.2969
Q39.5469 58.7344 36.5469 60.7188
Q33.5469 62.7031 29.5938 62.7031
Q25.9844 62.7031 23.0469 60.9844
Q20.125 59.2812 18.0625 55.875
Q16.0156 52.4844 14.9062 47.3594
Q13.8125 42.2344 13.8125 35.4062
Q16.2188 39.8438 20.5625 42.1562
Q24.9062 44.4844 30.5156 44.4844
Q35.2031 44.4844 39.0156 42.9688
Q42.8281 41.4531 45.5312 38.5938
Q48.25 35.75 49.7344 31.6719
Q51.2188 27.5938 51.2188 22.5156
M42.2812 22.125
Q42.2812 25.6875 41.4062 28.5625
Q40.5312 31.4531 38.7656 33.4688
Q37.0156 35.5 34.4219 36.5938
Q31.8438 37.7031 28.4219 37.7031
Q26.0312 37.7031 23.5781 36.9844
Q21.1406 36.2812 19.1562 34.6875
Q17.1875 33.1094 15.9375 30.5156
Q14.7031 27.9375 14.7031 24.2188
Q14.7031 20.4062 15.6719 17.1094
Q16.6562 13.8125 18.4844 11.375
Q20.3125 8.9375 22.8906 7.51562
Q25.4844 6.10938 28.7188 6.10938
Q31.8906 6.10938 34.4062 7.20312
Q36.9219 8.29688 38.6719 10.375
Q40.4375 12.4531 41.3594 15.4219
Q42.2812 18.4062 42.2812 22.125" id="LiberationSans-36"/>
      </defs>
      <g style="fill:#262626;" transform="translate(215.210415625 349.459)scale(0.16 -0.16)">
       <use xlink:href="#LiberationSans-30"/>
       <use x="55.615234375" xlink:href="#LiberationSans-2e"/>
       <use x="83.3984375" xlink:href="#LiberationSans-36"/>
      </g>
     </g>
    </g>
    <g id="xtick_5">
     <g id="line2d_13">
      <path clip-path="url(#p833ddef057)" d="
M271.264 330.864
L271.264 28.386" style="fill:none;stroke:#ffffff;stroke-linecap:round;"/>
     </g>
     <g id="line2d_14">
      <g>
       <use style="fill:#262626;stroke:#262626;" x="271.2643875" xlink:href="#m219da94a98" y="330.864"/>
      </g>
     </g>
     <g id="line2d_15">
      <g>
       <use style="fill:#262626;stroke:#262626;" x="271.2643875" xlink:href="#m219da94a98" y="28.386"/>
      </g>
     </g>
     <g id="text_5">
      <!-- 0.8 -->
      <defs>
       <path d="
M51.2656 19.1875
Q51.2656 14.7969 49.875 11.1094
Q48.4844 7.42188 45.625 4.73438
Q42.7812 2.04688 38.3281 0.53125
Q33.8906 -0.984375 27.8281 -0.984375
Q21.7812 -0.984375 17.3594 0.53125
Q12.9375 2.04688 10.0312 4.70312
Q7.125 7.375 5.73438 11.0625
Q4.34375 14.75 4.34375 19.0938
Q4.34375 22.8594 5.48438 25.7812
Q6.64062 28.7188 8.5625 30.8281
Q10.5 32.9531 12.9688 34.25
Q15.4375 35.5469 18.0625 35.9844
L18.0625 36.1875
Q15.1875 36.8594 12.9062 38.375
Q10.6406 39.8906 9.09375 42.0156
Q7.5625 44.1406 6.75 46.7188
Q5.95312 49.3125 5.95312 52.2031
Q5.95312 55.8125 7.34375 59
Q8.73438 62.2031 11.4688 64.625
Q14.2031 67.0469 18.25 68.4375
Q22.3125 69.8281 27.6406 69.8281
Q33.25 69.8281 37.375 68.4062
Q41.5 67 44.2031 64.5781
Q46.9219 62.1562 48.2344 58.9375
Q49.5625 55.7188 49.5625 52.0938
Q49.5625 49.2656 48.75 46.6719
Q47.9531 44.0938 46.4062 41.9688
Q44.875 39.8438 42.5938 38.3438
Q40.3281 36.8594 37.3594 36.2812
L37.3594 36.0781
Q40.3281 35.5938 42.8594 34.2969
Q45.4062 33.0156 47.2656 30.8906
Q49.125 28.7656 50.1875 25.8281
Q51.2656 22.9062 51.2656 19.1875
M40.4375 51.6094
Q40.4375 54.2031 39.7656 56.3438
Q39.1094 58.5 37.5938 60.0312
Q36.0781 61.5781 33.6406 62.4219
Q31.2031 63.2812 27.6406 63.2812
Q24.1719 63.2812 21.7812 62.4219
Q19.3906 61.5781 17.8438 60.0312
Q16.3125 58.5 15.625 56.3438
Q14.9375 54.2031 14.9375 51.6094
Q14.9375 49.5625 15.4688 47.4062
Q16.0156 45.2656 17.4219 43.5
Q18.8438 41.75 21.3281 40.625
Q23.8281 39.5 27.7344 39.5
Q31.8906 39.5 34.4062 40.625
Q36.9219 41.75 38.25 43.5
Q39.5938 45.2656 40.0156 47.4062
Q40.4375 49.5625 40.4375 51.6094
M42.1406 20.0156
Q42.1406 22.5156 41.4531 24.8281
Q40.7656 27.1562 39.1094 28.9375
Q37.4531 30.7188 34.6406 31.8125
Q31.8438 32.9062 27.6406 32.9062
Q23.7812 32.9062 21.0625 31.8125
Q18.3594 30.7188 16.6719 28.9062
Q14.9844 27.0938 14.2031 24.7188
Q13.4219 22.3594 13.4219 19.8281
Q13.4219 16.6562 14.2031 14.0312
Q14.9844 11.4219 16.6875 9.54688
Q18.4062 7.67188 21.1875 6.64062
Q23.9688 5.60938 27.9375 5.60938
Q31.9375 5.60938 34.6719 6.64062
Q37.4062 7.67188 39.0625 9.54688
Q40.7188 11.4219 41.4219 14.0781
Q42.1406 16.75 42.1406 20.0156" id="LiberationSans-38"/>
      </defs>
      <g style="fill:#262626;" transform="translate(260.8043875 349.459)scale(0.16 -0.16)">
       <use xlink:href="#LiberationSans-30"/>
       <use x="55.615234375" xlink:href="#LiberationSans-2e"/>
       <use x="83.3984375" xlink:href="#LiberationSans-38"/>
      </g>
     </g>
    </g>
    <g id="xtick_6">
     <g id="line2d_16">
      <path clip-path="url(#p833ddef057)" d="
M316.862 330.864
L316.862 28.386" style="fill:none;stroke:#ffffff;stroke-linecap:round;"/>
     </g>
     <g id="line2d_17">
      <g>
       <use style="fill:#262626;stroke:#262626;" x="316.862109375" xlink:href="#m219da94a98" y="330.864"/>
      </g>
     </g>
     <g id="line2d_18">
      <g>
       <use style="fill:#262626;stroke:#262626;" x="316.862109375" xlink:href="#m219da94a98" y="28.386"/>
      </g>
     </g>
     <g id="text_6">
      <!-- 1.0 -->
      <defs>
       <path d="
M7.625 0
L7.625 7.46875
L25.1406 7.46875
L25.1406 60.4062
L9.625 49.3125
L9.625 57.625
L25.875 68.7969
L33.9844 68.7969
L33.9844 7.46875
L50.7344 7.46875
L50.7344 0
z
" id="LiberationSans-31"/>
      </defs>
      <g style="fill:#262626;" transform="translate(306.664609375 349.459)scale(0.16 -0.16)">
       <use xlink:href="#LiberationSans-31"/>
       <use x="55.615234375" xlink:href="#LiberationSans-2e"/>
       <use x="83.3984375" xlink:href="#LiberationSans-30"/>
      </g>
     </g>
    </g>
    <g id="xtick_7">
     <g id="line2d_19">
      <path clip-path="url(#p833ddef057)" d="
M362.46 330.864
L362.46 28.386" style="fill:none;stroke:#ffffff;stroke-linecap:round;"/>
     </g>
     <g id="line2d_20">
      <g>
       <use style="fill:#262626;stroke:#262626;" x="362.45983125" xlink:href="#m219da94a98" y="330.864"/>
      </g>
     </g>
     <g id="line2d_21">
      <g>
       <use style="fill:#262626;stroke:#262626;" x="362.45983125" xlink:href="#m219da94a98" y="28.386"/>
      </g>
     </g>
     <g id="text_7">
      <!-- 1.2 -->
      <g style="fill:#262626;" transform="translate(352.35108125 349.459)scale(0.16 -0.16)">
       <use xlink:href="#LiberationSans-31"/>
       <use x="55.615234375" xlink:href="#LiberationSans-2e"/>
       <use x="83.3984375" xlink:href="#LiberationSans-32"/>
      </g>
     </g>
    </g>
    <g id="xtick_8">
     <g id="line2d_22">
      <path clip-path="url(#p833ddef057)" d="
M408.058 330.864
L408.058 28.386" style="fill:none;stroke:#ffffff;stroke-linecap:round;"/>
     </g>
     <g id="line2d_23">
      <g>
       <use style="fill:#262626;stroke:#262626;" x="408.057553125" xlink:href="#m219da94a98" y="330.864"/>
      </g>
     </g>
     <g id="line2d_24">
      <g>
       <use style="fill:#262626;stroke:#262626;" x="408.057553125" xlink:href="#m219da94a98" y="28.386"/>
      </g>
     </g>
     <g id="text_8">
      <!-- 1.4 -->
      <g style="fill:#262626;" transform="translate(397.781303125 349.459)scale(0.16 -0.16)">
       <use xlink:href="#LiberationSans-31"/>
       <use x="55.615234375" xlink:href="#LiberationSans-2e"/>
       <use x="83.3984375" xlink:href="#LiberationSans-34"/>
      </g>
     </g>
    </g>
    <g id="xtick_9">
     <g id="line2d_25">
      <path clip-path="url(#p833ddef057)" d="
M453.655 330.864
L453.655 28.386" style="fill:none;stroke:#ffffff;stroke-linecap:round;"/>
     </g>
     <g id="line2d_26">
      <g>
       <use style="fill:#262626;stroke:#262626;" x="453.655275" xlink:href="#m219da94a98" y="330.864"/>
      </g>
     </g>
     <g id="line2d_27">
      <g>
       <use style="fill:#262626;stroke:#262626;" x="453.655275" xlink:href="#m219da94a98" y="28.386"/>
      </g>
     </g>
     <g id="text_9">
      <!-- 1.6 -->
      <g style="fill:#262626;" transform="translate(443.496525 349.459)scale(0.16 -0.16)">
       <use xlink:href="#LiberationSans-31"/>
       <use x="55.615234375" xlink:href="#LiberationSans-2e"/>
       <use x="83.3984375" xlink:href="#LiberationSans-36"/>
      </g>
     </g>
    </g>
    <g id="xtick_10">
     <g id="line2d_28">
      <path clip-path="url(#p833ddef057)" d="
M499.253 330.864
L499.253 28.386" style="fill:none;stroke:#ffffff;stroke-linecap:round;"/>
     </g>
     <g id="line2d_29">
      <g>
       <use style="fill:#262626;stroke:#262626;" x="499.252996875" xlink:href="#m219da94a98" y="330.864"/>
      </g>
     </g>
     <g id="line2d_30">
      <g>
       <use style="fill:#262626;stroke:#262626;" x="499.252996875" xlink:href="#m219da94a98" y="28.386"/>
      </g>
     </g>
     <g id="text_10">
      <!-- 1.8 -->
      <g style="fill:#262626;" transform="translate(489.090496875 349.459)scale(0.16 -0.16)">
       <use xlink:href="#LiberationSans-31"/>
       <use x="55.615234375" xlink:href="#LiberationSans-2e"/>
       <use x="83.3984375" xlink:href="#LiberationSans-38"/>
      </g>
     </g>
    </g>
    <g id="xtick_11">
     <g id="line2d_31">
      <path clip-path="url(#p833ddef057)" d="
M544.851 330.864
L544.851 28.386" style="fill:none;stroke:#ffffff;stroke-linecap:round;"/>
     </g>
     <g id="line2d_32">
      <g>
       <use style="fill:#262626;stroke:#262626;" x="544.85071875" xlink:href="#m219da94a98" y="330.864"/>
      </g>
     </g>
     <g id="line2d_33">
      <g>
       <use style="fill:#262626;stroke:#262626;" x="544.85071875" xlink:href="#m219da94a98" y="28.386"/>
      </g>
     </g>
     <g id="text_11">
      <!-- 2.0 -->
      <g style="fill:#262626;" transform="translate(534.44571875 349.459)scale(0.16 -0.16)">
       <use xlink:href="#LiberationSans-32"/>
       <use x="55.615234375" xlink:href="#LiberationSans-2e"/>
       <use x="83.3984375" xlink:href="#LiberationSans-30"/>
      </g>
     </g>
    </g>
    <g id="text_12">
     <!-- wd_pl -->
     <defs>
      <path d="
M40.0938 8.5
Q37.6406 3.42188 33.6094 1.21875
Q29.5938 -0.984375 23.6406 -0.984375
Q13.625 -0.984375 8.90625 5.75
Q4.20312 12.5 4.20312 26.1719
Q4.20312 53.8125 23.6406 53.8125
Q29.6406 53.8125 33.6406 51.6094
Q37.6406 49.4219 40.0938 44.625
L40.1875 44.625
Q40.1875 45.125 40.1562 46.1719
Q40.1406 47.2188 40.1094 48.3594
Q40.0938 49.5156 40.0938 50.5312
Q40.0938 51.5625 40.0938 52
L40.0938 72.4688
L48.875 72.4688
L48.875 10.8906
Q48.875 8.98438 48.8906 7.21875
Q48.9219 5.46875 48.9688 4
Q49.0312 2.54688 49.0781 1.48438
Q49.125 0.4375 49.1719 0
L40.7656 0
Q40.6719 0.484375 40.5938 1.39062
Q40.5312 2.29688 40.4531 3.46875
Q40.375 4.64062 40.3281 5.9375
Q40.2812 7.23438 40.2812 8.5
z

M13.4219 26.4688
Q13.4219 21 14.1094 17.0938
Q14.7969 13.1875 16.3125 10.6719
Q17.8281 8.15625 20.1719 6.98438
Q22.5156 5.8125 25.875 5.8125
Q29.3438 5.8125 32 6.9375
Q34.6719 8.0625 36.4531 10.5781
Q38.2344 13.0938 39.1562 17.1406
Q40.0938 21.1875 40.0938 27.0469
Q40.0938 32.6719 39.1562 36.5469
Q38.2344 40.4375 36.4219 42.8281
Q34.625 45.2188 32 46.2656
Q29.3906 47.3125 25.9844 47.3125
Q22.75 47.3125 20.4062 46.1875
Q18.0625 45.0625 16.5 42.5781
Q14.9375 40.0938 14.1719 36.1094
Q13.4219 32.125 13.4219 26.4688" id="LiberationSans-64"/>
      <path d="
M-1.51562 -19.875
L-1.51562 -13.5312
L56.7344 -13.5312
L56.7344 -19.875
z
" id="LiberationSans-5f"/>
      <path d="
M57.3281 0
L47.125 0
L38.6719 34.0781
Q38.2812 35.4062 37.8594 37.3594
Q37.4531 39.3125 37.0625 41.1562
Q36.5781 43.3125 36.1406 45.6094
Q35.6875 43.4062 35.2031 41.2656
Q34.8125 39.4062 34.3438 37.4062
Q33.8906 35.4062 33.5 33.8906
L24.8125 0
L14.6562 0
L-0.140625 52.8281
L8.54688 52.8281
L17.4844 16.9375
Q17.8281 15.8281 18.1562 14.1875
Q18.5 12.5469 18.8438 10.9844
Q19.1875 9.1875 19.5781 7.28125
Q19.9688 9.125 20.4062 10.8906
Q20.7969 12.4062 21.1875 13.9688
Q21.5781 15.5312 21.875 16.5469
L31.4531 52.8281
L40.875 52.8281
L50.0938 16.5469
Q50.4375 15.2812 50.8281 13.6719
Q51.2188 12.0625 51.5625 10.6406
Q51.9531 8.98438 52.3438 7.28125
Q52.7344 9.125 53.125 10.8906
Q53.4688 12.4062 53.8281 14.0312
Q54.2031 15.6719 54.5469 16.9375
L63.875 52.8281
L72.4688 52.8281
z
" id="LiberationSans-77"/>
      <path d="
M6.73438 0
L6.73438 72.4688
L15.5312 72.4688
L15.5312 0
z
" id="LiberationSans-6c"/>
      <path d="
M51.4219 26.6562
Q51.4219 20.6562 50.4375 15.5781
Q49.4688 10.5 47.1875 6.82812
Q44.9219 3.17188 41.1875 1.09375
Q37.4531 -0.984375 31.9844 -0.984375
Q26.3125 -0.984375 22.0625 1.17188
Q17.8281 3.32812 15.5781 8.20312
L15.3281 8.20312
Q15.375 8.10938 15.4062 7.32812
Q15.4375 6.54688 15.4531 5.375
Q15.4844 4.20312 15.5 2.75
Q15.5312 1.3125 15.5312 -0.09375
L15.5312 -20.75
L6.73438 -20.75
L6.73438 42.0469
Q6.73438 43.9531 6.70312 45.7031
Q6.6875 47.4688 6.64062 48.9062
Q6.59375 50.3438 6.54688 51.3594
Q6.5 52.3906 6.45312 52.8281
L14.9375 52.8281
Q14.9844 52.6875 15.0625 51.7969
Q15.1406 50.9219 15.2031 49.6719
Q15.2812 48.4375 15.3594 47.0156
Q15.4375 45.6094 15.4375 44.3438
L15.625 44.3438
Q16.8438 46.875 18.4062 48.6562
Q19.9688 50.4375 21.9688 51.5781
Q23.9688 52.7344 26.4375 53.25
Q28.9062 53.7656 31.9844 53.7656
Q37.4531 53.7656 41.1875 51.8125
Q44.9219 49.8594 47.1875 46.3125
Q49.4688 42.7812 50.4375 37.7656
Q51.4219 32.7656 51.4219 26.6562
M42.1875 26.4688
Q42.1875 31.3438 41.5938 35.1562
Q41.0156 38.9688 39.5781 41.5938
Q38.1406 44.2344 35.7344 45.5938
Q33.3438 46.9688 29.7344 46.9688
Q26.8125 46.9688 24.2188 46.1406
Q21.625 45.3125 19.7031 42.9688
Q17.7812 40.625 16.6562 36.5
Q15.5312 32.375 15.5312 25.7812
Q15.5312 20.1719 16.4531 16.2812
Q17.3906 12.4062 19.1719 10.0156
Q20.9531 7.625 23.5781 6.5625
Q26.2188 5.51562 29.6406 5.51562
Q33.2969 5.51562 35.7188 6.92188
Q38.1406 8.34375 39.5781 11.0312
Q41.0156 13.7188 41.5938 17.5938
Q42.1875 21.4844 42.1875 26.4688" id="LiberationSans-70"/>
     </defs>
     <g style="fill:#262626;" transform="translate(294.446859375 370.5335)scale(0.176 -0.176)">
      <use xlink:href="#LiberationSans-77"/>
      <use x="72.216796875" xlink:href="#LiberationSans-64"/>
      <use x="127.83203125" xlink:href="#LiberationSans-5f"/>
      <use x="183.447265625" xlink:href="#LiberationSans-70"/>
      <use x="239.0625" xlink:href="#LiberationSans-6c"/>
     </g>
    </g>
   </g>
   <g id="matplotlib.axis_2">
    <g id="ytick_1">
     <g id="line2d_34">
      <path clip-path="url(#p833ddef057)" d="
M88.8735 330.864
L544.851 330.864" style="fill:none;stroke:#ffffff;stroke-linecap:round;"/>
     </g>
     <g id="line2d_35">
      <g>
       <use style="fill:#262626;stroke:#262626;" x="88.8735" xlink:href="#m219da94a98" y="330.864"/>
      </g>
     </g>
     <g id="line2d_36">
      <g>
       <use style="fill:#262626;stroke:#262626;" x="544.85071875" xlink:href="#m219da94a98" y="330.864"/>
      </g>
     </g>
     <g id="text_13">
      <!--  20% -->
      <defs>
       <path id="LiberationSans-20"/>
       <path d="
M85.3594 21.1875
Q85.3594 15.0938 84.1094 10.9062
Q82.8594 6.73438 80.7344 4.17188
Q78.6094 1.60938 75.7812 0.5
Q72.9531 -0.59375 69.7344 -0.59375
Q66.5 -0.59375 63.6875 0.5
Q60.8906 1.60938 58.8125 4.14062
Q56.7344 6.6875 55.5312 10.8594
Q54.3438 15.0469 54.3438 21.1875
Q54.3438 27.6875 55.5156 31.9375
Q56.6875 36.1875 58.7812 38.7031
Q60.8906 41.2188 63.75 42.2188
Q66.6094 43.2188 69.9219 43.2188
Q73.1406 43.2188 75.9531 42.2188
Q78.7656 41.2188 80.8281 38.7031
Q82.9062 36.1875 84.125 31.9375
Q85.3594 27.6875 85.3594 21.1875
M25.7344 0
L18.1719 0
L63.1875 68.7969
L70.8438 68.7969
z

M19.2344 69.3906
Q22.3594 69.3906 25.1406 68.3906
Q27.9375 67.3906 30.0312 64.8906
Q32.125 62.4062 33.3125 58.2031
Q34.5156 54 34.5156 47.6094
Q34.5156 41.4531 33.2969 37.25
Q32.0781 33.0625 30 30.4375
Q27.9375 27.8281 25.0938 26.7031
Q22.2656 25.5938 19.0469 25.5938
Q15.7656 25.5938 12.9375 26.7031
Q10.1094 27.8281 8.03125 30.4219
Q5.95312 33.0156 4.75 37.2031
Q3.5625 41.4062 3.5625 47.6094
Q3.5625 54 4.75 58.2031
Q5.95312 62.4062 8.04688 64.8906
Q10.1562 67.3906 13.0312 68.3906
Q15.9219 69.3906 19.2344 69.3906
M78.125 21.1875
Q78.125 26.0312 77.5781 29.2188
Q77.0469 32.4219 76 34.3281
Q74.9531 36.2344 73.4062 37.0156
Q71.875 37.7969 69.9219 37.7969
Q67.875 37.7969 66.3125 36.9844
Q64.75 36.1875 63.6719 34.2812
Q62.5938 32.375 62.0625 29.1719
Q61.5312 25.9844 61.5312 21.1875
Q61.5312 16.5469 62.0781 13.4219
Q62.6406 10.2969 63.6875 8.375
Q64.75 6.45312 66.2812 5.60938
Q67.8281 4.78125 69.8281 4.78125
Q71.7344 4.78125 73.2656 5.60938
Q74.8125 6.45312 75.875 8.375
Q76.9531 10.2969 77.5312 13.4219
Q78.125 16.5469 78.125 21.1875
M27.3438 47.6094
Q27.3438 52.3906 26.7969 55.5625
Q26.2656 58.7344 25.2344 60.6406
Q24.2188 62.5469 22.7031 63.3281
Q21.1875 64.1094 19.2344 64.1094
Q17.1406 64.1094 15.5469 63.2969
Q13.9688 62.5 12.8906 60.5938
Q11.8125 58.6875 11.2812 55.5156
Q10.75 52.3438 10.75 47.6094
Q10.75 42.9688 11.2969 39.7969
Q11.8594 36.625 12.9062 34.6875
Q13.9688 32.7656 15.5312 31.9375
Q17.0938 31.1094 19.1406 31.1094
Q21 31.1094 22.5156 31.9375
Q24.0312 32.7656 25.0938 34.6875
Q26.1719 36.625 26.75 39.7969
Q27.3438 42.9688 27.3438 47.6094" id="LiberationSans-25"/>
      </defs>
      <g style="fill:#262626;" transform="translate(45.976 335.0015)scale(0.16 -0.16)">
       <use xlink:href="#LiberationSans-20"/>
       <use x="27.783203125" xlink:href="#LiberationSans-32"/>
       <use x="83.3984375" xlink:href="#LiberationSans-30"/>
       <use x="139.013671875" xlink:href="#LiberationSans-25"/>
      </g>
     </g>
    </g>
    <g id="ytick_2">
     <g id="line2d_37">
      <path clip-path="url(#p833ddef057)" d="
M88.8735 255.244
L544.851 255.244" style="fill:none;stroke:#ffffff;stroke-linecap:round;"/>
     </g>
     <g id="line2d_38">
      <g>
       <use style="fill:#262626;stroke:#262626;" x="88.8735" xlink:href="#m219da94a98" y="255.2445"/>
      </g>
     </g>
     <g id="line2d_39">
      <g>
       <use style="fill:#262626;stroke:#262626;" x="544.85071875" xlink:href="#m219da94a98" y="255.2445"/>
      </g>
     </g>
     <g id="text_14">
      <!--  40% -->
      <g style="fill:#262626;" transform="translate(45.976 259.382)scale(0.16 -0.16)">
       <use xlink:href="#LiberationSans-20"/>
       <use x="27.783203125" xlink:href="#LiberationSans-34"/>
       <use x="83.3984375" xlink:href="#LiberationSans-30"/>
       <use x="139.013671875" xlink:href="#LiberationSans-25"/>
      </g>
     </g>
    </g>
    <g id="ytick_3">
     <g id="line2d_40">
      <path clip-path="url(#p833ddef057)" d="
M88.8735 179.625
L544.851 179.625" style="fill:none;stroke:#ffffff;stroke-linecap:round;"/>
     </g>
     <g id="line2d_41">
      <g>
       <use style="fill:#262626;stroke:#262626;" x="88.8735" xlink:href="#m219da94a98" y="179.625"/>
      </g>
     </g>
     <g id="line2d_42">
      <g>
       <use style="fill:#262626;stroke:#262626;" x="544.85071875" xlink:href="#m219da94a98" y="179.625"/>
      </g>
     </g>
     <g id="text_15">
      <!--  60% -->
      <g style="fill:#262626;" transform="translate(45.976 183.7625)scale(0.16 -0.16)">
       <use xlink:href="#LiberationSans-20"/>
       <use x="27.783203125" xlink:href="#LiberationSans-36"/>
       <use x="83.3984375" xlink:href="#LiberationSans-30"/>
       <use x="139.013671875" xlink:href="#LiberationSans-25"/>
      </g>
     </g>
    </g>
    <g id="ytick_4">
     <g id="line2d_43">
      <path clip-path="url(#p833ddef057)" d="
M88.8735 104.005
L544.851 104.005" style="fill:none;stroke:#ffffff;stroke-linecap:round;"/>
     </g>
     <g id="line2d_44">
      <g>
       <use style="fill:#262626;stroke:#262626;" x="88.8735" xlink:href="#m219da94a98" y="104.0055"/>
      </g>
     </g>
     <g id="line2d_45">
      <g>
       <use style="fill:#262626;stroke:#262626;" x="544.85071875" xlink:href="#m219da94a98" y="104.0055"/>
      </g>
     </g>
     <g id="text_16">
      <!--  80% -->
      <g style="fill:#262626;" transform="translate(45.976 108.143)scale(0.16 -0.16)">
       <use xlink:href="#LiberationSans-20"/>
       <use x="27.783203125" xlink:href="#LiberationSans-38"/>
       <use x="83.3984375" xlink:href="#LiberationSans-30"/>
       <use x="139.013671875" xlink:href="#LiberationSans-25"/>
      </g>
     </g>
    </g>
    <g id="ytick_5">
     <g id="line2d_46">
      <path clip-path="url(#p833ddef057)" d="
M88.8735 28.386
L544.851 28.386" style="fill:none;stroke:#ffffff;stroke-linecap:round;"/>
     </g>
     <g id="line2d_47">
      <g>
       <use style="fill:#262626;stroke:#262626;" x="88.8735" xlink:href="#m219da94a98" y="28.386"/>
      </g>
     </g>
     <g id="line2d_48">
      <g>
       <use style="fill:#262626;stroke:#262626;" x="544.85071875" xlink:href="#m219da94a98" y="28.386"/>
      </g>
     </g>
     <g id="text_17">
      <!-- 100% -->
      <g style="fill:#262626;" transform="translate(42.7435 32.5235)scale(0.16 -0.16)">
       <use xlink:href="#LiberationSans-31"/>
       <use x="55.615234375" xlink:href="#LiberationSans-30"/>
       <use x="111.23046875" xlink:href="#LiberationSans-30"/>
       <use x="166.845703125" xlink:href="#LiberationSans-25"/>
      </g>
     </g>
    </g>
    <g id="text_18">
     <!-- Cumulative Frequency -->
     <defs>
      <path d="
M13.4844 24.5625
Q13.4844 20.4062 14.3281 16.9062
Q15.1875 13.4219 16.9688 10.9062
Q18.75 8.40625 21.5312 7
Q24.3125 5.60938 28.2188 5.60938
Q33.9375 5.60938 37.375 7.90625
Q40.8281 10.2031 42.0469 13.7188
L49.75 11.5312
Q48.9219 9.32812 47.4375 7.10938
Q45.9531 4.89062 43.4531 3.09375
Q40.9688 1.3125 37.2344 0.15625
Q33.5 -0.984375 28.2188 -0.984375
Q16.5 -0.984375 10.375 6
Q4.25 12.9844 4.25 26.7656
Q4.25 34.1875 6.09375 39.3281
Q7.95312 44.4844 11.1719 47.7031
Q14.4062 50.9219 18.7031 52.3594
Q23 53.8125 27.875 53.8125
Q34.5156 53.8125 38.9844 51.6562
Q43.4531 49.5156 46.1562 45.7188
Q48.875 41.9375 50.0156 36.8125
Q51.1719 31.6875 51.1719 25.7344
L51.1719 24.5625
z

M42.0938 31.2969
Q41.3594 39.6562 37.8438 43.4844
Q34.3281 47.3125 27.7344 47.3125
Q25.5312 47.3125 23.1094 46.6094
Q20.7031 45.9062 18.6562 44.0938
Q16.6094 42.2812 15.1875 39.1719
Q13.7656 36.0781 13.5781 31.2969
z
" id="LiberationSans-65"/>
      <path d="
M23.6406 -0.984375
Q13.5781 -0.984375 8.89062 5.79688
Q4.20312 12.5938 4.20312 26.1719
Q4.20312 39.9375 9 46.875
Q13.8125 53.8125 23.6406 53.8125
Q26.9062 53.8125 29.4219 53.2188
Q31.9375 52.6406 33.9062 51.4844
Q35.8906 50.3438 37.375 48.625
Q38.875 46.9219 40.0938 44.625
L40.1875 44.625
Q40.1875 45.8438 40.25 47.3281
Q40.3281 48.8281 40.4062 50.1406
Q40.4844 51.4688 40.5781 52.4219
Q40.6719 53.375 40.7656 53.5156
L49.2188 53.5156
Q49.125 52.6875 49 49.1719
Q48.875 45.6562 48.875 39.1094
L48.875 -20.75
L40.0938 -20.75
L40.0938 0.6875
Q40.0938 1.95312 40.1094 3.3125
Q40.1406 4.6875 40.1875 5.90625
Q40.2344 7.28125 40.2812 8.6875
L40.1875 8.6875
Q38.9219 6.20312 37.375 4.375
Q35.8438 2.54688 33.8438 1.34375
Q31.8438 0.140625 29.3281 -0.421875
Q26.8125 -0.984375 23.6406 -0.984375
M40.0938 27.0469
Q40.0938 32.8125 39.0938 36.7188
Q38.0938 40.625 36.25 42.9688
Q34.4219 45.3125 31.8125 46.3125
Q29.2031 47.3125 25.9844 47.3125
Q22.6094 47.3125 20.2188 46.0625
Q17.8281 44.8281 16.3281 42.2656
Q14.8438 39.7031 14.125 35.7656
Q13.4219 31.8438 13.4219 26.4688
Q13.4219 21.1875 14.0781 17.2812
Q14.75 13.375 16.2344 10.8281
Q17.7188 8.29688 20.0938 7.04688
Q22.4688 5.8125 25.875 5.8125
Q28.8125 5.8125 31.3906 6.71875
Q33.9844 7.625 35.9062 9.98438
Q37.8438 12.3594 38.9688 16.4844
Q40.0938 20.6094 40.0938 27.0469" id="LiberationSans-71"/>
      <path d="
M6.9375 0
L6.9375 40.5312
Q6.9375 42.1875 6.90625 43.9219
Q6.89062 45.6562 6.82812 47.2656
Q6.78125 48.875 6.73438 50.2812
Q6.6875 51.7031 6.64062 52.8281
L14.9375 52.8281
Q14.9844 51.7031 15.0625 50.2656
Q15.1406 48.8281 15.2031 47.3125
Q15.2812 45.7969 15.2969 44.4062
Q15.3281 43.0156 15.3281 42.0469
L15.5312 42.0469
Q16.4531 45.0625 17.5 47.2812
Q18.5625 49.5156 19.9688 50.9531
Q21.3906 52.3906 23.3438 53.0938
Q25.2969 53.8125 28.0781 53.8125
Q29.1562 53.8125 30.125 53.6406
Q31.1094 53.4688 31.6406 53.3281
L31.6406 45.2656
Q30.7656 45.5156 29.5938 45.625
Q28.4219 45.75 26.9531 45.75
Q23.9219 45.75 21.7969 44.375
Q19.6719 43.0156 18.3281 40.5938
Q17 38.1875 16.3594 34.8438
Q15.7188 31.5 15.7188 27.5469
L15.7188 0
z
" id="LiberationSans-72"/>
      <path d="
M20.2188 -0.984375
Q12.25 -0.984375 8.25 3.21875
Q4.25 7.42188 4.25 14.75
Q4.25 19.9688 6.21875 23.3125
Q8.20312 26.6562 11.3906 28.5625
Q14.5938 30.4688 18.6875 31.2031
Q22.7969 31.9375 27.0469 32.0312
L38.9219 32.2344
L38.9219 35.1094
Q38.9219 38.375 38.2344 40.6719
Q37.5469 42.9688 36.125 44.375
Q34.7188 45.7969 32.5938 46.4531
Q30.4688 47.125 27.5938 47.125
Q25.0469 47.125 23 46.75
Q20.9531 46.3906 19.4375 45.4375
Q17.9219 44.4844 16.9844 42.8438
Q16.0625 41.2188 15.7656 38.7188
L6.59375 39.5469
Q7.07812 42.6719 8.4375 45.2812
Q9.8125 47.9062 12.3281 49.7969
Q14.8438 51.7031 18.625 52.75
Q22.4062 53.8125 27.7812 53.8125
Q37.75 53.8125 42.7656 49.2344
Q47.7969 44.6719 47.7969 36.0312
L47.7969 13.2812
Q47.7969 9.375 48.8281 7.39062
Q49.8594 5.42188 52.7344 5.42188
Q53.4688 5.42188 54.2031 5.51562
Q54.9375 5.60938 55.6094 5.76562
L55.6094 0.296875
Q53.9531 -0.09375 52.3125 -0.28125
Q50.6875 -0.484375 48.8281 -0.484375
Q46.3438 -0.484375 44.5625 0.171875
Q42.7812 0.828125 41.6562 2.17188
Q40.5312 3.51562 39.9375 5.48438
Q39.3594 7.46875 39.2031 10.1094
L38.9219 10.1094
Q37.5 7.5625 35.8125 5.51562
Q34.125 3.46875 31.875 2.03125
Q29.6406 0.59375 26.7812 -0.1875
Q23.9219 -0.984375 20.2188 -0.984375
M22.2188 5.60938
Q26.4219 5.60938 29.5625 7.14062
Q32.7188 8.6875 34.7812 11.0781
Q36.8594 13.4844 37.8906 16.3125
Q38.9219 19.1406 38.9219 21.7344
L38.9219 26.0781
L29.2969 25.875
Q26.0781 25.8281 23.1719 25.4062
Q20.2656 25 18.0625 23.7812
Q15.875 22.5625 14.5781 20.3594
Q13.2812 18.1719 13.2812 14.5938
Q13.2812 10.2969 15.5938 7.95312
Q17.9219 5.60938 22.2188 5.60938" id="LiberationSans-61"/>
      <path d="
M15.3281 52.8281
L15.3281 19.3438
Q15.3281 15.4844 15.8906 12.8906
Q16.4531 10.2969 17.7188 8.70312
Q19 7.125 21.0625 6.46875
Q23.1406 5.8125 26.2188 5.8125
Q29.3438 5.8125 31.8594 6.90625
Q34.375 8.01562 36.1562 10.0781
Q37.9375 12.1562 38.9062 15.2031
Q39.8906 18.2656 39.8906 22.2188
L39.8906 52.8281
L48.6875 52.8281
L48.6875 11.2812
Q48.6875 9.625 48.7031 7.78125
Q48.7344 5.95312 48.7812 4.3125
Q48.8281 2.6875 48.875 1.51562
Q48.9219 0.34375 48.9688 0
L40.6719 0
Q40.625 0.25 40.5781 1.3125
Q40.5312 2.39062 40.4531 3.78125
Q40.375 5.17188 40.3281 6.60938
Q40.2812 8.0625 40.2812 9.03125
L40.1406 9.03125
Q38.875 6.73438 37.3594 4.875
Q35.8438 3.03125 33.8438 1.73438
Q31.8438 0.4375 29.25 -0.265625
Q26.6562 -0.984375 23.25 -0.984375
Q18.8438 -0.984375 15.6719 0.09375
Q12.5 1.17188 10.4531 3.42188
Q8.40625 5.67188 7.45312 9.1875
Q6.5 12.7031 6.5 17.625
L6.5 52.8281
z
" id="LiberationSans-75"/>
      <path d="
M27.0469 0.390625
Q25.0469 -0.140625 22.9688 -0.453125
Q20.9062 -0.78125 18.1719 -0.78125
Q7.625 -0.78125 7.625 11.1875
L7.625 46.4375
L1.51562 46.4375
L1.51562 52.8281
L7.95312 52.8281
L10.5469 64.6562
L16.4062 64.6562
L16.4062 52.8281
L26.1719 52.8281
L26.1719 46.4375
L16.4062 46.4375
L16.4062 13.0938
Q16.4062 9.28125 17.6406 7.73438
Q18.8906 6.20312 21.9688 6.20312
Q23.25 6.20312 24.4375 6.39062
Q25.6406 6.59375 27.0469 6.89062
z
" id="LiberationSans-74"/>
      <path d="
M29.5 0
Q27.6406 -4.78125 25.7031 -8.60938
Q23.7812 -12.4531 21.3906 -15.1562
Q19 -17.875 16.0625 -19.3125
Q13.1406 -20.75 9.32812 -20.75
Q7.67188 -20.75 6.25 -20.6562
Q4.82812 -20.5625 3.26562 -20.2188
L3.26562 -13.625
Q4.20312 -13.7656 5.375 -13.8438
Q6.54688 -13.9219 7.375 -13.9219
Q11.2344 -13.9219 14.5469 -11.0312
Q17.875 -8.15625 20.3594 -1.85938
L21.1875 0.25
L0.25 52.8281
L9.625 52.8281
L20.75 23.6406
Q21.2344 22.3125 21.9844 20.1094
Q22.75 17.9219 23.5 15.7188
Q24.2656 13.5312 24.8438 11.7656
Q25.4375 10.0156 25.5312 9.57812
Q25.6875 10.1094 26.25 11.6875
Q26.8125 13.2812 27.5156 15.2344
Q28.2188 17.1875 28.9531 19.1875
Q29.6875 21.1875 30.1719 22.6562
L40.5312 52.8281
L49.8125 52.8281
z
" id="LiberationSans-79"/>
      <path d="
M13.4219 26.6562
Q13.4219 22.125 14.0781 18.3125
Q14.75 14.5 16.3125 11.7344
Q17.875 8.98438 20.4375 7.46875
Q23 5.95312 26.7656 5.95312
Q31.4531 5.95312 34.5938 8.48438
Q37.75 11.0312 38.4844 16.3125
L47.3594 15.7188
Q46.9219 12.4531 45.4531 9.42188
Q44 6.39062 41.4844 4.09375
Q38.9688 1.8125 35.3438 0.40625
Q31.7344 -0.984375 27 -0.984375
Q20.7969 -0.984375 16.4531 1.10938
Q12.1094 3.21875 9.39062 6.90625
Q6.6875 10.5938 5.46875 15.5938
Q4.25 20.6094 4.25 26.4688
Q4.25 31.7812 5.125 35.8594
Q6 39.9375 7.59375 42.9844
Q9.1875 46.0469 11.3281 48.125
Q13.4844 50.2031 15.9844 51.4375
Q18.5 52.6875 21.2812 53.25
Q24.0781 53.8125 26.9062 53.8125
Q31.3438 53.8125 34.8125 52.5938
Q38.2812 51.375 40.7969 49.25
Q43.3125 47.125 44.875 44.2344
Q46.4375 41.3594 47.0781 38.0312
L38.0312 37.3594
Q37.3594 41.75 34.5625 44.3281
Q31.7812 46.9219 26.6562 46.9219
Q22.9062 46.9219 20.3906 45.6719
Q17.875 44.4375 16.3125 41.9219
Q14.75 39.4062 14.0781 35.5938
Q13.4219 31.7812 13.4219 26.6562" id="LiberationSans-63"/>
      <path d="
M6.6875 64.0625
L6.6875 72.4688
L15.4844 72.4688
L15.4844 64.0625
z

M6.6875 0
L6.6875 52.8281
L15.4844 52.8281
L15.4844 0
z
" id="LiberationSans-69"/>
      <path d="
M37.5 0
L37.5 33.5
Q37.5 37.3594 37.0156 39.9375
Q36.5312 42.5312 35.375 44.1094
Q34.2344 45.7031 32.375 46.3594
Q30.5156 47.0156 27.8281 47.0156
Q25.0469 47.0156 22.7969 45.9219
Q20.5625 44.8281 18.9688 42.75
Q17.3906 40.6719 16.5312 37.625
Q15.6719 34.5781 15.6719 30.6094
L15.6719 0
L6.9375 0
L6.9375 41.5469
Q6.9375 43.2188 6.90625 45.0469
Q6.89062 46.875 6.82812 48.5
Q6.78125 50.1406 6.73438 51.3125
Q6.6875 52.4844 6.64062 52.8281
L14.9375 52.8281
Q14.9844 52.5938 15.0312 51.5156
Q15.0938 50.4375 15.1562 49.0469
Q15.2344 47.6562 15.2812 46.2188
Q15.3281 44.7812 15.3281 43.7969
L15.4844 43.7969
Q16.6562 46.0938 18.0156 47.9531
Q19.3906 49.8125 21.2188 51.0938
Q23.0469 52.3906 25.4062 53.0938
Q27.7812 53.8125 30.9062 53.8125
Q36.9219 53.8125 40.4062 51.4219
Q43.8906 49.0312 45.2656 43.7969
L45.4062 43.7969
Q46.5781 46.0938 48.0469 47.9531
Q49.5156 49.8125 51.4688 51.0938
Q53.4219 52.3906 55.8594 53.0938
Q58.2969 53.8125 61.4219 53.8125
Q65.4375 53.8125 68.3281 52.7344
Q71.2344 51.6562 73.0938 49.4062
Q74.9531 47.1719 75.8281 43.625
Q76.7031 40.0938 76.7031 35.2031
L76.7031 0
L68.0156 0
L68.0156 33.5
Q68.0156 37.3594 67.5312 39.9375
Q67.0469 42.5312 65.8906 44.1094
Q64.75 45.7031 62.8906 46.3594
Q61.0312 47.0156 58.3438 47.0156
Q55.5625 47.0156 53.3125 45.9688
Q51.0781 44.9219 49.4844 42.875
Q47.9062 40.8281 47.0469 37.75
Q46.1875 34.6719 46.1875 30.6094
L46.1875 0
z
" id="LiberationSans-6d"/>
      <path d="
M40.2812 0
L40.2812 33.5
Q40.2812 37.3594 39.7188 39.9375
Q39.1562 42.5312 37.8906 44.1094
Q36.625 45.7031 34.5469 46.3594
Q32.4688 47.0156 29.3906 47.0156
Q26.2656 47.0156 23.75 45.9219
Q21.2344 44.8281 19.4531 42.75
Q17.6719 40.6719 16.6875 37.625
Q15.7188 34.5781 15.7188 30.6094
L15.7188 0
L6.9375 0
L6.9375 41.5469
Q6.9375 43.2188 6.90625 45.0469
Q6.89062 46.875 6.82812 48.5
Q6.78125 50.1406 6.73438 51.3125
Q6.6875 52.4844 6.64062 52.8281
L14.9375 52.8281
Q14.9844 52.5938 15.0312 51.5156
Q15.0938 50.4375 15.1562 49.0469
Q15.2344 47.6562 15.2812 46.2188
Q15.3281 44.7812 15.3281 43.7969
L15.4844 43.7969
Q16.75 46.0938 18.2656 47.9531
Q19.7812 49.8125 21.7812 51.0938
Q23.7812 52.3906 26.3594 53.0938
Q28.9531 53.8125 32.375 53.8125
Q36.7656 53.8125 39.9375 52.7344
Q43.1094 51.6562 45.1562 49.4062
Q47.2188 47.1719 48.1719 43.625
Q49.125 40.0938 49.125 35.2031
L49.125 0
z
" id="LiberationSans-6e"/>
      <path d="
M17.5312 61.1875
L17.5312 35.5938
L55.9062 35.5938
L55.9062 27.875
L17.5312 27.875
L17.5312 0
L8.20312 0
L8.20312 68.7969
L57.0781 68.7969
L57.0781 61.1875
z
" id="LiberationSans-46"/>
      <path d="
M38.6719 62.2031
Q32.8125 62.2031 28.2969 60.25
Q23.7812 58.2969 20.7188 54.6875
Q17.6719 51.0781 16.1094 46
Q14.5469 40.9219 14.5469 34.7188
Q14.5469 28.5156 16.2344 23.3594
Q17.9219 18.2188 21.0625 14.5
Q24.2188 10.7969 28.7812 8.73438
Q33.3438 6.6875 39.0625 6.6875
Q43.0625 6.6875 46.3594 7.73438
Q49.6562 8.79688 52.3125 10.6875
Q54.9844 12.5938 57.0781 15.2031
Q59.1875 17.8281 60.7969 21
L68.4062 17.1875
Q66.5469 13.3281 63.8125 10
Q61.0781 6.6875 57.3906 4.25
Q53.7188 1.8125 49.0469 0.40625
Q44.3906 -0.984375 38.625 -0.984375
Q30.2812 -0.984375 24 1.67188
Q17.7188 4.34375 13.5 9.10938
Q9.28125 13.875 7.17188 20.4062
Q5.07812 26.9531 5.07812 34.7188
Q5.07812 42.7812 7.29688 49.2656
Q9.51562 55.7656 13.7812 60.3281
Q18.0625 64.8906 24.3125 67.3594
Q30.5625 69.8281 38.5781 69.8281
Q49.5625 69.8281 56.9375 65.5312
Q64.3125 61.2344 67.7812 52.7812
L58.9375 49.8594
Q57.9531 52.2969 56.2969 54.5156
Q54.6406 56.7344 52.1406 58.4375
Q49.6562 60.1562 46.3125 61.1719
Q42.9688 62.2031 38.6719 62.2031" id="LiberationSans-43"/>
      <path d="
M29.9375 0
L19.5312 0
L0.34375 52.8281
L9.71875 52.8281
L21.3438 18.4531
Q21.6875 17.3906 22.1406 15.8438
Q22.6094 14.3125 23.0938 12.6406
Q23.5781 10.9844 24 9.4375
Q24.4219 7.90625 24.7031 6.89062
Q25 7.90625 25.4531 9.4375
Q25.9219 10.9844 26.4062 12.5938
Q26.9062 14.2031 27.4219 15.7344
Q27.9375 17.2812 28.3281 18.3594
L40.3281 52.8281
L49.6562 52.8281
z
" id="LiberationSans-76"/>
     </defs>
     <g style="fill:#262626;" transform="translate(34.0915 267.6415)rotate(-90.0)scale(0.176 -0.176)">
      <use xlink:href="#LiberationSans-43"/>
      <use x="72.216796875" xlink:href="#LiberationSans-75"/>
      <use x="127.83203125" xlink:href="#LiberationSans-6d"/>
      <use x="211.1328125" xlink:href="#LiberationSans-75"/>
      <use x="266.748046875" xlink:href="#LiberationSans-6c"/>
      <use x="288.96484375" xlink:href="#LiberationSans-61"/>
      <use x="344.580078125" xlink:href="#LiberationSans-74"/>
      <use x="372.36328125" xlink:href="#LiberationSans-69"/>
      <use x="394.580078125" xlink:href="#LiberationSans-76"/>
      <use x="444.580078125" xlink:href="#LiberationSans-65"/>
      <use x="500.1953125" xlink:href="#LiberationSans-20"/>
      <use x="527.978515625" xlink:href="#LiberationSans-46"/>
      <use x="589.0625" xlink:href="#LiberationSans-72"/>
      <use x="622.36328125" xlink:href="#LiberationSans-65"/>
      <use x="677.978515625" xlink:href="#LiberationSans-71"/>
      <use x="733.59375" xlink:href="#LiberationSans-75"/>
      <use x="789.208984375" xlink:href="#LiberationSans-65"/>
      <use x="844.82421875" xlink:href="#LiberationSans-6e"/>
      <use x="900.439453125" xlink:href="#LiberationSans-63"/>
      <use x="950.439453125" xlink:href="#LiberationSans-79"/>
     </g>
    </g>
   </g>
   <g id="line2d_49">
    <path clip-path="url(#p833ddef057)" d="
M88.8735 236.049
L89.7645 235.467
L89.814 234.304
L90.1206 233.722
L90.1518 233.14
L90.4582 231.977
L90.5567 230.232
L90.9215 224.997
L91.181 224.415
L91.2619 223.252
L92.3125 222.67
L92.4837 221.507
L92.7251 220.925
L92.7475 220.343
L93.0256 219.762
L94.071 219.18
L94.5655 218.598
L94.5956 218.016
L94.9884 217.435
L95.0296 216.853
L95.572 216.271
L96.2225 215.108
L97.2589 214.526
L97.7963 213.363
L97.9274 212.781
L97.9356 212.2
L98.5295 211.618
L98.5667 210.454
L98.796 209.873
L98.905 208.709
L100.069 207.546
L100.233 206.383
L101.675 205.801
L102.613 204.056
L102.942 201.729
L103.677 200.566
L103.812 199.984
L104.193 199.402
L104.294 198.821
L105.148 198.239
L105.183 197.657
L105.436 197.076
L105.603 194.749
L106.206 193.586
L106.397 193.004
L106.726 192.422
L106.903 191.259
L107.208 190.677
L107.346 189.514
L107.606 188.932
L108.033 188.35
L108.163 187.187
L108.463 186.024
L108.814 185.442
L109.563 184.86
L111.554 180.788
L112.323 180.207
L112.682 179.625
L113.063 178.462
L113.1 177.88
L114.057 177.298
L114.683 176.135
L116.441 174.971
L116.934 174.39
L117.014 173.808
L117.611 173.226
L117.934 172.645
L118.898 172.063
L119.551 171.481
L120.439 170.9
L120.454 170.318
L120.809 169.155
L121.075 168.573
L121.129 167.991
L122.008 167.41
L122.157 166.246
L124.054 165.083
L124.933 164.501
L125.22 163.919
L126.156 163.338
L126.431 162.756
L126.512 162.174
L126.717 161.593
L127.195 161.011
L127.705 159.848
L129.063 159.266
L130.877 158.684
L131.365 157.521
L132.163 156.939
L132.389 156.357
L133.355 155.776
L134.53 153.449
L135.601 152.867
L135.8 152.286
L136.984 151.122
L138.807 150.541
L139.539 149.959
L139.798 149.377
L140.931 148.796
L142.341 148.214
L142.724 147.05
L143.161 146.469
L143.769 145.305
L144.183 144.724
L144.86 144.142
L144.915 143.56
L146.383 142.979
L146.935 142.397
L147.732 141.815
L148.061 141.234
L150.496 140.652
L150.729 140.07
L151.17 139.488
L151.422 138.907
L152.211 138.325
L152.473 137.743
L153.228 137.162
L153.873 135.998
L155.922 135.417
L156.261 134.835
L156.338 134.253
L160.802 133.09
L162.321 131.927
L162.418 131.345
L166.283 130.763
L166.691 130.181
L167.934 129.6
L168.628 127.855
L169.843 127.273
L174.041 126.691
L174.299 126.11
L177.062 124.946
L177.307 124.365
L177.868 123.783
L181.796 123.201
L182.658 122.62
L184.825 122.038
L185.979 121.456
L187.623 120.874
L188.303 120.293
L190.275 119.711
L190.634 118.548
L191.757 117.384
L191.817 116.803
L192.195 116.221
L192.268 115.639
L192.79 115.058
L194.498 114.476
L194.518 113.894
L195.232 113.313
L195.719 112.149
L203.501 111.567
L206.366 110.986
L207.042 110.404
L208.987 109.822
L209.528 109.241
L211.35 108.077
L212.578 107.496
L213.062 106.914
L213.778 105.751
L220.244 104.587
L220.543 104.005
L221.059 103.424
L221.292 102.26
L221.829 101.679
L222.092 101.097
L222.986 100.515
L224.337 99.9337
L224.67 98.7703
L227.062 98.1886
L230.205 97.6069
L232.087 97.0252
L232.329 96.4436
L232.753 95.8619
L235.788 95.2802
L237.978 94.6985
L238.037 94.1168
L239.265 92.9534
L239.504 92.3717
L239.615 91.2084
L239.927 90.6267
L240.05 89.4633
L240.235 86.5548
L240.729 85.3915
L240.853 76.6661
L240.866 75.5028
L240.991 74.9211
L241.13 73.176
L241.835 72.5943
L244.025 71.4309
L244.165 70.8493
L247.71 70.2676
L248.61 69.6859
L248.911 69.1042
L250.267 68.5225
L250.878 67.9408
L251.908 67.3591
L254.837 66.7774
L259.718 65.6141
L268.822 64.4507
L270.603 63.869
L270.745 63.2873
L271.089 62.7056
L271.264 60.3789
L271.478 59.7972
L275.472 59.2155
L277.456 58.6338
L284.114 58.0521
L284.751 57.4704
L284.963 56.8887
L305.716 56.307
L309.241 55.7254
L327.211 54.562
L334.536 53.9803
L336.205 53.3986
L336.572 52.8169
L340.703 52.2352
L348.227 51.6535
L349.04 50.4902
L349.36 49.9085
L349.492 49.3268
L349.984 48.7451
L352.483 48.1634
L353.274 47.5817
L360.335 47
L361.224 46.4183
L361.598 45.8367
L362.35 45.255
L362.419 43.5099
L362.453 40.6015
L365.713 40.0198
L370.225 39.4381
L372.022 38.8564
L392.73 38.2747
L402.358 37.693
L422.59 37.1113
L427.624 36.5296
L472.426 35.3663
L479.666 34.7846
L479.705 34.2029
L504.873 33.0395
L577 32.4763
L577 32.4763" style="fill:none;stroke:#4c72b0;stroke-linecap:round;stroke-width:1.75;"/>
   </g>
   <g id="line2d_50">
    <path clip-path="url(#p833ddef057)" d="
M88.8735 302.361
L90.1283 301.78
L90.4899 299.453
L90.5378 297.708
L90.9676 297.126
L91.499 293.636
L91.745 293.054
L91.9561 291.309
L92.4224 290.146
L92.5163 289.564
L93.1155 288.982
L94.0999 288.401
L94.1574 287.237
L94.4911 286.656
L94.6854 286.074
L95.5385 284.911
L96.2407 284.329
L96.5405 283.166
L97.4374 282.584
L98.506 281.42
L98.7023 279.675
L99.0368 279.094
L99.0682 278.512
L100.419 276.185
L100.535 275.604
L101.01 275.022
L101.107 274.44
L101.733 273.859
L102.352 272.695
L102.947 270.95
L103.946 270.368
L104.295 269.787
L104.337 269.205
L104.637 268.623
L105.713 268.042
L107.202 267.46
L111.013 265.133
L111.622 263.97
L111.747 263.388
L112.344 262.806
L112.519 262.225
L112.539 261.643
L114.453 261.061
L114.561 260.48
L115.463 259.898
L116.212 258.735
L117.755 258.153
L118.287 257.571
L118.29 256.99
L121.394 256.408
L121.454 255.826
L121.7 255.244
L123.372 254.663
L124.696 254.081
L125.211 253.499
L127.382 252.336
L127.645 251.754
L127.704 251.173
L128.114 250.591
L129.074 250.009
L130.041 248.846
L130.167 248.264
L132.609 247.683
L134.18 247.101
L134.448 246.519
L134.884 245.937
L136.684 245.356
L137.279 244.774
L137.664 244.192
L137.81 243.611
L139.925 243.029
L140.34 242.447
L140.565 241.866
L141.343 241.284
L141.913 240.702
L141.973 240.121
L142.335 239.539
L143.047 238.957
L143.176 238.376
L145.912 237.212
L146.574 236.63
L146.622 235.467
L149.43 234.885
L151.655 234.304
L152.438 233.722
L152.93 233.14
L153.235 232.559
L153.947 231.977
L154.205 231.395
L155.023 230.814
L157.326 230.232
L157.38 229.65
L157.678 229.069
L158.886 228.487
L158.978 227.905
L159.38 227.323
L160.443 226.742
L161.764 226.16
L161.972 225.578
L163.25 224.997
L164.124 224.415
L164.615 223.833
L164.976 222.67
L166.184 220.925
L167.528 220.343
L168.376 219.762
L170.027 219.18
L170.875 218.598
L172.407 218.016
L172.584 217.435
L173.117 216.853
L173.398 216.271
L173.551 215.69
L173.907 215.108
L173.913 214.526
L175.393 213.945
L175.47 213.363
L175.897 212.781
L178.516 212.2
L178.567 211.618
L179.911 211.036
L180.179 209.873
L180.316 208.709
L182.946 208.128
L183.108 207.546
L184.709 206.964
L189.247 206.383
L190.284 205.801
L190.546 205.219
L192.88 204.638
L193.948 204.056
L194.128 203.474
L194.188 202.893
L194.586 202.311
L194.81 201.729
L195.967 201.147
L196.045 200.566
L197.19 199.984
L200.612 199.402
L200.843 198.821
L201.923 198.239
L203.39 197.657
L204.329 197.076
L206.513 196.494
L207.067 195.912
L207.792 195.331
L208.012 194.749
L209.326 194.167
L209.94 193.586
L210.334 192.422
L211.74 191.259
L212.579 190.095
L212.606 189.514
L214.996 188.932
L215.641 188.35
L216.719 187.769
L217.057 187.187
L217.078 186.605
L217.538 186.024
L218.258 184.279
L218.959 183.697
L219.168 183.115
L219.686 182.533
L222.601 181.37
L223.289 180.788
L223.598 180.207
L225.145 179.625
L225.479 177.88
L227.446 177.298
L227.862 176.717
L230.007 176.135
L230.733 174.971
L233.007 174.39
L233.414 173.808
L233.585 173.226
L234.819 172.063
L234.98 171.481
L235.314 170.9
L236.718 170.318
L237.232 169.736
L238.054 169.155
L238.224 168.573
L238.559 167.991
L238.734 167.41
L239.204 166.828
L239.591 164.501
L240.031 163.338
L240.297 162.756
L240.841 151.704
L240.92 144.142
L241.672 143.56
L241.744 142.979
L242.028 142.397
L242.071 141.815
L244.581 141.234
L244.898 140.652
L246.324 139.488
L246.411 138.907
L247.637 138.325
L248.501 137.743
L248.507 137.162
L250.533 135.998
L251.156 135.417
L252.241 134.835
L252.336 134.253
L252.853 133.672
L253.015 133.09
L253.015 132.508
L255.45 131.927
L258.984 130.763
L260.077 129.6
L262.252 129.018
L262.891 128.436
L265.656 127.855
L266.2 127.273
L267.091 126.691
L267.605 126.11
L269.731 125.528
L269.861 124.946
L270.662 124.365
L270.965 122.62
L271.232 121.456
L271.273 119.711
L271.457 119.129
L273.187 118.548
L273.561 117.966
L274.276 117.384
L274.383 116.803
L275.221 116.221
L278.345 115.639
L279.548 115.058
L282.423 114.476
L283.18 113.894
L283.242 112.731
L284.721 112.149
L291.051 110.986
L292.045 110.404
L300.998 108.659
L304.596 107.496
L307.914 106.914
L309.677 106.332
L310.902 105.751
L319.593 105.169
L319.73 104.587
L323.975 104.005
L326.93 103.424
L334.999 102.842
L335.003 102.26
L342.078 101.679
L347.16 101.097
L348.201 100.515
L348.429 99.9337
L348.892 99.352
L350.326 98.7703
L352.13 98.1886
L354.448 97.6069
L354.717 97.0252
L360.739 95.8619
L360.875 95.2802
L361.692 94.1168
L361.767 93.5351
L362.008 92.9534
L362.036 92.3717
L362.243 91.2084
L362.453 88.2999
L362.544 85.9732
L363.176 85.3915
L367.188 84.8098
L369.974 84.2281
L370.747 83.6464
L372.601 83.0647
L379.605 82.483
L391.711 81.9013
L392.552 81.3197
L392.589 80.738
L392.782 80.1563
L392.839 78.9929
L393.642 78.4112
L395.986 77.8295
L397.577 77.2478
L412.337 76.6661
L414.129 76.0845
L414.275 75.5028
L419.395 74.9211
L438.768 74.3394
L440.965 73.7577
L448.874 73.176
L461.323 72.5943
L461.799 72.0126
L465.447 71.4309
L466.457 70.8493
L475.592 70.2676
L476.089 69.6859
L476.858 69.1042
L477.323 67.3591
L479.418 66.7774
L479.673 65.0324
L479.822 64.4507
L486.456 63.869
L487.653 63.2873
L491.089 62.7056
L493.061 62.1239
L493.806 61.5422
L520.588 60.9606
L539.561 60.3789
L539.689 59.7972
L543.346 59.2155
L544.541 58.6338
L544.844 58.0521
L546.023 57.4704
L546.023 57.4704" style="fill:none;stroke:#55a868;stroke-linecap:round;stroke-width:1.75;"/>
   </g>
   <g id="patch_3">
    <path d="
M88.8735 28.386
L544.851 28.386" style="fill:none;"/>
   </g>
   <g id="patch_4">
    <path d="
M544.851 330.864
L544.851 28.386" style="fill:none;"/>
   </g>
   <g id="patch_5">
    <path d="
M88.8735 330.864
L544.851 330.864" style="fill:none;"/>
   </g>
   <g id="patch_6">
    <path d="
M88.8735 330.864
L88.8735 28.386" style="fill:none;"/>
   </g>
   <g id="legend_1">
    <g id="line2d_51">
     <path d="
M457.511 284.629
L489.511 284.629" style="fill:none;stroke:#4c72b0;stroke-linecap:round;stroke-width:1.75;"/>
    </g>
    <g id="line2d_52"/>
    <g id="text_19">
     <!-- long -->
     <defs>
      <path d="
M51.4219 26.4688
Q51.4219 12.5938 45.3125 5.79688
Q39.2031 -0.984375 27.5938 -0.984375
Q22.0781 -0.984375 17.7188 0.671875
Q13.375 2.34375 10.375 5.76562
Q7.375 9.1875 5.78125 14.3281
Q4.20312 19.4844 4.20312 26.4688
Q4.20312 53.8125 27.875 53.8125
Q34.0312 53.8125 38.5 52.0938
Q42.9688 50.3906 45.8281 46.9688
Q48.6875 43.5625 50.0469 38.4219
Q51.4219 33.2969 51.4219 26.4688
M42.1875 26.4688
Q42.1875 32.625 41.2344 36.625
Q40.2812 40.625 38.4531 43.0156
Q36.625 45.4062 33.9844 46.3594
Q31.3438 47.3125 28.0312 47.3125
Q24.6562 47.3125 21.9375 46.3125
Q19.2344 45.3125 17.3281 42.8906
Q15.4375 40.4844 14.4219 36.4688
Q13.4219 32.4688 13.4219 26.4688
Q13.4219 20.3125 14.5 16.2812
Q15.5781 12.25 17.4531 9.85938
Q19.3438 7.46875 21.9062 6.48438
Q24.4688 5.51562 27.4844 5.51562
Q30.8594 5.51562 33.5938 6.46875
Q36.3281 7.42188 38.2344 9.8125
Q40.1406 12.2031 41.1562 16.25
Q42.1875 20.3125 42.1875 26.4688" id="LiberationSans-6f"/>
      <path d="
M26.7656 -20.75
Q22.2188 -20.75 18.7031 -19.8125
Q15.1875 -18.8906 12.6875 -17.1562
Q10.2031 -15.4375 8.64062 -13.0312
Q7.07812 -10.6406 6.39062 -7.71875
L15.2344 -6.45312
Q16.1094 -10.1094 19.1094 -12.0781
Q22.125 -14.0625 27 -14.0625
Q29.9844 -14.0625 32.4219 -13.2344
Q34.8594 -12.4062 36.5625 -10.5625
Q38.2812 -8.73438 39.2031 -5.79688
Q40.1406 -2.875 40.1406 1.3125
L40.1406 9.8125
L40.0469 9.8125
Q39.0625 7.8125 37.625 5.98438
Q36.1875 4.15625 34.1094 2.73438
Q32.0312 1.3125 29.2969 0.453125
Q26.5625 -0.390625 23.0469 -0.390625
Q18.0156 -0.390625 14.4219 1.29688
Q10.8438 2.98438 8.5625 6.34375
Q6.29688 9.71875 5.25 14.7188
Q4.20312 19.7344 4.20312 26.3125
Q4.20312 32.6719 5.25 37.75
Q6.29688 42.8281 8.65625 46.3594
Q11.0312 49.9062 14.8125 51.7812
Q18.6094 53.6562 24.0312 53.6562
Q29.6406 53.6562 33.7656 51.0938
Q37.8906 48.5312 40.1406 43.7969
L40.2344 43.7969
Q40.2344 45.0156 40.2969 46.5312
Q40.375 48.0469 40.4531 49.3906
Q40.5312 50.7344 40.625 51.7031
Q40.7188 52.6875 40.8281 52.8281
L49.1719 52.8281
Q49.125 52.3906 49.0781 51.3438
Q49.0312 50.2969 48.9688 48.8281
Q48.9219 47.3594 48.8906 45.5781
Q48.875 43.7969 48.875 41.8906
L48.875 1.51562
Q48.875 -9.57812 43.4219 -15.1562
Q37.9844 -20.75 26.7656 -20.75
M40.1406 26.4219
Q40.1406 31.9375 38.9375 35.8594
Q37.75 39.7969 35.7969 42.2812
Q33.8438 44.7812 31.3281 45.9531
Q28.8125 47.125 26.1719 47.125
Q22.7969 47.125 20.375 45.9531
Q17.9688 44.7812 16.375 42.2656
Q14.7969 39.75 14.0312 35.8125
Q13.2812 31.8906 13.2812 26.4219
Q13.2812 20.7031 14.0312 16.8125
Q14.7969 12.9375 16.3594 10.5469
Q17.9219 8.15625 20.3125 7.125
Q22.7031 6.10938 26.0312 6.10938
Q28.6562 6.10938 31.1719 7.21875
Q33.6875 8.34375 35.6875 10.7812
Q37.7031 13.2344 38.9219 17.0938
Q40.1406 20.9531 40.1406 26.4219" id="LiberationSans-67"/>
     </defs>
     <g style="fill:#262626;" transform="translate(502.31071875 290.229)scale(0.16 -0.16)">
      <use xlink:href="#LiberationSans-6c"/>
      <use x="22.216796875" xlink:href="#LiberationSans-6f"/>
      <use x="77.83203125" xlink:href="#LiberationSans-6e"/>
      <use x="133.447265625" xlink:href="#LiberationSans-67"/>
     </g>
    </g>
    <g id="line2d_53">
     <path d="
M457.511 307.544
L489.511 307.544" style="fill:none;stroke:#55a868;stroke-linecap:round;stroke-width:1.75;"/>
    </g>
    <g id="line2d_54"/>
    <g id="text_20">
     <!-- V4 -->
     <defs>
      <path d="
M38.1875 0
L28.5156 0
L0.4375 68.7969
L10.25 68.7969
L29.2969 20.3594
Q30.0312 18.1719 30.7656 15.9844
Q31.5 13.8125 32.0781 12.1094
Q32.7656 10.1094 33.4062 8.20312
Q33.9844 10.0156 34.6719 12.0156
Q35.25 13.7188 35.9531 15.8594
Q36.6719 18.0156 37.5 20.3594
L56.4531 68.7969
L66.2656 68.7969
z
" id="LiberationSans-56"/>
     </defs>
     <g style="fill:#262626;" transform="translate(502.31071875 313.144)scale(0.16 -0.16)">
      <use xlink:href="#LiberationSans-56"/>
      <use x="66.69921875" xlink:href="#LiberationSans-34"/>
     </g>
    </g>
   </g>
  </g>
 </g>
 <defs>
  <clipPath id="p833ddef057">
   <rect height="302.478" width="455.97721875" x="88.8735" y="28.386"/>
  </clipPath>
 </defs>
</svg>
