<?xml version="1.0" encoding="UTF-8"?>
<!DOCTYPE svg PUBLIC "-//W3C//DTD SVG 1.1//EN" "http://www.w3.org/Graphics/SVG/1.1/DTD/svg11.dtd">
<svg width="276mm" height="155mm" viewBox="0 0 27600 15500" version="1.1" baseProfile="tiny" xmlns="http://www.w3.org/2000/svg" stroke-width="28.222" stroke-linejoin="round" xml:space="preserve">
 <path fill="rgb(255,255,255)" stroke="none" d="M 13793,15516 L 0,15516 0,0 27586,0 27586,15516 13793,15516 Z"/>
 <path fill="none" stroke="rgb(179,179,179)" stroke-linejoin="round" d="M 13435,13323 L 1437,13323 1437,1789 25433,1789 25433,13323 13435,13323 Z"/>
 <path fill="none" stroke="rgb(179,179,179)" stroke-linejoin="round" d="M 25433,13322 L 1437,13322"/>
 <path fill="none" stroke="rgb(179,179,179)" stroke-linejoin="round" d="M 25433,11880 L 1437,11880"/>
 <path fill="none" stroke="rgb(179,179,179)" stroke-linejoin="round" d="M 25433,10438 L 1437,10438"/>
 <path fill="none" stroke="rgb(179,179,179)" stroke-linejoin="round" d="M 25433,8996 L 1437,8996"/>
 <path fill="none" stroke="rgb(179,179,179)" stroke-linejoin="round" d="M 25433,7555 L 1437,7555"/>
 <path fill="none" stroke="rgb(179,179,179)" stroke-linejoin="round" d="M 25433,6113 L 1437,6113"/>
 <path fill="none" stroke="rgb(179,179,179)" stroke-linejoin="round" d="M 25433,4671 L 1437,4671"/>
 <path fill="none" stroke="rgb(179,179,179)" stroke-linejoin="round" d="M 25433,3229 L 1437,3229"/>
 <path fill="none" stroke="rgb(179,179,179)" stroke-linejoin="round" d="M 25433,1788 L 1437,1788"/>
 <path fill="none" stroke="rgb(179,179,179)" stroke-linejoin="round" d="M 1437,13472 L 1437,13322"/>
 <path fill="none" stroke="rgb(179,179,179)" stroke-linejoin="round" d="M 1437,13472 L 1437,13322"/>
 <path fill="none" stroke="rgb(179,179,179)" stroke-linejoin="round" d="M 2636,13472 L 2636,13322"/>
 <path fill="none" stroke="rgb(179,179,179)" stroke-linejoin="round" d="M 2636,13472 L 2636,13322"/>
 <path fill="none" stroke="rgb(179,179,179)" stroke-linejoin="round" d="M 3836,13472 L 3836,13322"/>
 <path fill="none" stroke="rgb(179,179,179)" stroke-linejoin="round" d="M 3836,13472 L 3836,13322"/>
 <path fill="none" stroke="rgb(179,179,179)" stroke-linejoin="round" d="M 5036,13472 L 5036,13322"/>
 <path fill="none" stroke="rgb(179,179,179)" stroke-linejoin="round" d="M 5036,13472 L 5036,13322"/>
 <path fill="none" stroke="rgb(179,179,179)" stroke-linejoin="round" d="M 6236,13472 L 6236,13322"/>
 <path fill="none" stroke="rgb(179,179,179)" stroke-linejoin="round" d="M 6236,13472 L 6236,13322"/>
 <path fill="none" stroke="rgb(179,179,179)" stroke-linejoin="round" d="M 7436,13472 L 7436,13322"/>
 <path fill="none" stroke="rgb(179,179,179)" stroke-linejoin="round" d="M 7436,13472 L 7436,13322"/>
 <path fill="none" stroke="rgb(179,179,179)" stroke-linejoin="round" d="M 8636,13472 L 8636,13322"/>
 <path fill="none" stroke="rgb(179,179,179)" stroke-linejoin="round" d="M 8636,13472 L 8636,13322"/>
 <path fill="none" stroke="rgb(179,179,179)" stroke-linejoin="round" d="M 9835,13472 L 9835,13322"/>
 <path fill="none" stroke="rgb(179,179,179)" stroke-linejoin="round" d="M 9835,13472 L 9835,13322"/>
 <path fill="none" stroke="rgb(179,179,179)" stroke-linejoin="round" d="M 11035,13472 L 11035,13322"/>
 <path fill="none" stroke="rgb(179,179,179)" stroke-linejoin="round" d="M 11035,13472 L 11035,13322"/>
 <path fill="none" stroke="rgb(179,179,179)" stroke-linejoin="round" d="M 12235,13472 L 12235,13322"/>
 <path fill="none" stroke="rgb(179,179,179)" stroke-linejoin="round" d="M 12235,13472 L 12235,13322"/>
 <path fill="none" stroke="rgb(179,179,179)" stroke-linejoin="round" d="M 13435,13472 L 13435,13322"/>
 <path fill="none" stroke="rgb(179,179,179)" stroke-linejoin="round" d="M 13435,13472 L 13435,13322"/>
 <path fill="none" stroke="rgb(179,179,179)" stroke-linejoin="round" d="M 14634,13472 L 14634,13322"/>
 <path fill="none" stroke="rgb(179,179,179)" stroke-linejoin="round" d="M 14634,13472 L 14634,13322"/>
 <path fill="none" stroke="rgb(179,179,179)" stroke-linejoin="round" d="M 15834,13472 L 15834,13322"/>
 <path fill="none" stroke="rgb(179,179,179)" stroke-linejoin="round" d="M 15834,13472 L 15834,13322"/>
 <path fill="none" stroke="rgb(179,179,179)" stroke-linejoin="round" d="M 17034,13472 L 17034,13322"/>
 <path fill="none" stroke="rgb(179,179,179)" stroke-linejoin="round" d="M 17034,13472 L 17034,13322"/>
 <path fill="none" stroke="rgb(179,179,179)" stroke-linejoin="round" d="M 18233,13472 L 18233,13322"/>
 <path fill="none" stroke="rgb(179,179,179)" stroke-linejoin="round" d="M 18233,13472 L 18233,13322"/>
 <path fill="none" stroke="rgb(179,179,179)" stroke-linejoin="round" d="M 19433,13472 L 19433,13322"/>
 <path fill="none" stroke="rgb(179,179,179)" stroke-linejoin="round" d="M 19433,13472 L 19433,13322"/>
 <path fill="none" stroke="rgb(179,179,179)" stroke-linejoin="round" d="M 20633,13472 L 20633,13322"/>
 <path fill="none" stroke="rgb(179,179,179)" stroke-linejoin="round" d="M 20633,13472 L 20633,13322"/>
 <path fill="none" stroke="rgb(179,179,179)" stroke-linejoin="round" d="M 21833,13472 L 21833,13322"/>
 <path fill="none" stroke="rgb(179,179,179)" stroke-linejoin="round" d="M 21833,13472 L 21833,13322"/>
 <path fill="none" stroke="rgb(179,179,179)" stroke-linejoin="round" d="M 23033,13472 L 23033,13322"/>
 <path fill="none" stroke="rgb(179,179,179)" stroke-linejoin="round" d="M 23033,13472 L 23033,13322"/>
 <path fill="none" stroke="rgb(179,179,179)" stroke-linejoin="round" d="M 24233,13472 L 24233,13322"/>
 <path fill="none" stroke="rgb(179,179,179)" stroke-linejoin="round" d="M 24233,13472 L 24233,13322"/>
 <path fill="none" stroke="rgb(179,179,179)" stroke-linejoin="round" d="M 25433,13472 L 25433,13322"/>
 <path fill="none" stroke="rgb(179,179,179)" stroke-linejoin="round" d="M 25433,13472 L 25433,13322"/>
 <path fill="none" stroke="rgb(179,179,179)" stroke-linejoin="round" d="M 1437,13322 L 25433,13322"/>
 <path fill="none" stroke="rgb(179,179,179)" stroke-linejoin="round" d="M 1287,13322 L 1437,13322"/>
 <path fill="none" stroke="rgb(179,179,179)" stroke-linejoin="round" d="M 1287,13322 L 1437,13322"/>
 <path fill="none" stroke="rgb(179,179,179)" stroke-linejoin="round" d="M 1287,11880 L 1437,11880"/>
 <path fill="none" stroke="rgb(179,179,179)" stroke-linejoin="round" d="M 1287,11880 L 1437,11880"/>
 <path fill="none" stroke="rgb(179,179,179)" stroke-linejoin="round" d="M 1287,10438 L 1437,10438"/>
 <path fill="none" stroke="rgb(179,179,179)" stroke-linejoin="round" d="M 1287,10438 L 1437,10438"/>
 <path fill="none" stroke="rgb(179,179,179)" stroke-linejoin="round" d="M 1287,8996 L 1437,8996"/>
 <path fill="none" stroke="rgb(179,179,179)" stroke-linejoin="round" d="M 1287,8996 L 1437,8996"/>
 <path fill="none" stroke="rgb(179,179,179)" stroke-linejoin="round" d="M 1287,7555 L 1437,7555"/>
 <path fill="none" stroke="rgb(179,179,179)" stroke-linejoin="round" d="M 1287,7555 L 1437,7555"/>
 <path fill="none" stroke="rgb(179,179,179)" stroke-linejoin="round" d="M 1287,6113 L 1437,6113"/>
 <path fill="none" stroke="rgb(179,179,179)" stroke-linejoin="round" d="M 1287,6113 L 1437,6113"/>
 <path fill="none" stroke="rgb(179,179,179)" stroke-linejoin="round" d="M 1287,4671 L 1437,4671"/>
 <path fill="none" stroke="rgb(179,179,179)" stroke-linejoin="round" d="M 1287,4671 L 1437,4671"/>
 <path fill="none" stroke="rgb(179,179,179)" stroke-linejoin="round" d="M 1287,3229 L 1437,3229"/>
 <path fill="none" stroke="rgb(179,179,179)" stroke-linejoin="round" d="M 1287,3229 L 1437,3229"/>
 <path fill="none" stroke="rgb(179,179,179)" stroke-linejoin="round" d="M 1287,1788 L 1437,1788"/>
 <path fill="none" stroke="rgb(179,179,179)" stroke-linejoin="round" d="M 1287,1788 L 1437,1788"/>
 <path fill="none" stroke="rgb(179,179,179)" stroke-linejoin="round" d="M 1437,13322 L 1437,1788"/>
 <path fill="rgb(0,69,134)" stroke="none" d="M 24433,13322 L 24833,13322 24833,3287 24433,3287 24433,13322 Z"/>
 <path fill="rgb(0,69,134)" stroke="none" d="M 23233,13322 L 23633,13322 23633,12139 23233,12139 23233,13322 Z"/>
 <path fill="rgb(0,69,134)" stroke="none" d="M 22033,13322 L 22433,13322 22433,12456 22033,12456 22033,13322 Z"/>
 <path fill="rgb(0,69,134)" stroke="none" d="M 20833,13322 L 21233,13322 21233,12716 20833,12716 20833,13322 Z"/>
 <path fill="rgb(0,69,134)" stroke="none" d="M 19633,13322 L 20033,13322 20033,12687 19633,12687 19633,13322 Z"/>
 <path fill="rgb(0,69,134)" stroke="none" d="M 18433,13322 L 18833,13322 18833,12918 18433,12918 18433,13322 Z"/>
 <path fill="rgb(0,69,134)" stroke="none" d="M 17234,13322 L 17633,13322 17633,13004 17234,13004 17234,13322 Z"/>
 <path fill="rgb(0,69,134)" stroke="none" d="M 16034,13322 L 16434,13322 16434,12975 16034,12975 16034,13322 Z"/>
 <path fill="rgb(0,69,134)" stroke="none" d="M 14834,13322 L 15234,13322 15234,13033 14834,13033 14834,13322 Z"/>
 <path fill="rgb(0,69,134)" stroke="none" d="M 13635,13322 L 14034,13322 14034,12975 13635,12975 13635,13322 Z"/>
 <path fill="rgb(0,69,134)" stroke="none" d="M 12435,13322 L 12835,13322 12835,13004 12435,13004 12435,13322 Z"/>
 <path fill="rgb(0,69,134)" stroke="none" d="M 11235,13322 L 11635,13322 11635,13033 11235,13033 11235,13322 Z"/>
 <path fill="rgb(0,69,134)" stroke="none" d="M 10035,13322 L 10435,13322 10435,13033 10035,13033 10035,13322 Z"/>
 <path fill="rgb(0,69,134)" stroke="none" d="M 8836,13322 L 9236,13322 9236,11937 8836,11937 8836,13322 Z"/>
 <path fill="rgb(0,69,134)" stroke="none" d="M 7636,13322 L 8036,13322 8036,13177 7636,13177 7636,13322 Z"/>
 <path fill="rgb(0,69,134)" stroke="none" d="M 6436,13322 L 6836,13322 6836,12629 6436,12629 6436,13322 Z"/>
 <path fill="rgb(0,69,134)" stroke="none" d="M 5236,13322 L 5636,13322 5636,13062 5236,13062 5236,13322 Z"/>
 <path fill="rgb(0,69,134)" stroke="none" d="M 4036,13322 L 4436,13322 4436,13004 4036,13004 4036,13322 Z"/>
 <path fill="rgb(0,69,134)" stroke="none" d="M 2836,13322 L 3236,13322 3236,13293 2836,13293 2836,13322 Z"/>
 <path fill="rgb(255,66,14)" stroke="none" d="M 24833,13322 L 25233,13322 25233,6748 24833,6748 24833,13322 Z"/>
 <path fill="rgb(255,66,14)" stroke="none" d="M 23633,13322 L 24033,13322 24033,12601 23633,12601 23633,13322 Z"/>
 <path fill="rgb(255,66,14)" stroke="none" d="M 22433,13322 L 22833,13322 22833,12918 22433,12918 22433,13322 Z"/>
 <path fill="rgb(255,66,14)" stroke="none" d="M 21233,13322 L 21633,13322 21633,12802 21233,12802 21233,13322 Z"/>
 <path fill="rgb(255,66,14)" stroke="none" d="M 20033,13322 L 20433,13322 20433,12716 20033,12716 20033,13322 Z"/>
 <path fill="rgb(255,66,14)" stroke="none" d="M 18833,13322 L 19233,13322 19233,12860 18833,12860 18833,13322 Z"/>
 <path fill="rgb(255,66,14)" stroke="none" d="M 17633,13322 L 18033,13322 18033,12601 17633,12601 17633,13322 Z"/>
 <path fill="rgb(255,66,14)" stroke="none" d="M 16434,13322 L 16834,13322 16834,12774 16434,12774 16434,13322 Z"/>
 <path fill="rgb(255,66,14)" stroke="none" d="M 15234,13322 L 15634,13322 15634,12918 15234,12918 15234,13322 Z"/>
 <path fill="rgb(255,66,14)" stroke="none" d="M 14034,13322 L 14434,13322 14434,12860 14034,12860 14034,13322 Z"/>
 <path fill="rgb(255,66,14)" stroke="none" d="M 12835,13322 L 13235,13322 13235,12572 12835,12572 12835,13322 Z"/>
 <path fill="rgb(255,66,14)" stroke="none" d="M 11635,13322 L 12035,13322 12035,12860 11635,12860 11635,13322 Z"/>
 <path fill="rgb(255,66,14)" stroke="none" d="M 10435,13322 L 10835,13322 10835,12947 10435,12947 10435,13322 Z"/>
 <path fill="rgb(255,66,14)" stroke="none" d="M 9236,13322 L 9635,13322 9635,11130 9236,11130 9236,13322 Z"/>
 <path fill="rgb(255,66,14)" stroke="none" d="M 8036,13322 L 8436,13322 8436,13004 8036,13004 8036,13322 Z"/>
 <path fill="rgb(255,66,14)" stroke="none" d="M 6836,13322 L 7236,13322 7236,12774 6836,12774 6836,13322 Z"/>
 <path fill="rgb(255,66,14)" stroke="none" d="M 5636,13322 L 6036,13322 6036,12514 5636,12514 5636,13322 Z"/>
 <path fill="rgb(255,66,14)" stroke="none" d="M 4436,13322 L 4836,13322 4836,12197 4436,12197 4436,13322 Z"/>
 <path fill="rgb(255,66,14)" stroke="none" d="M 3236,13322 L 3636,13322 3636,12831 3236,12831 3236,13322 Z"/>
 <path fill="rgb(255,66,14)" stroke="none" d="M 2036,13322 L 2436,13322 2436,13062 2036,13062 2036,13322 Z"/>
 <text class="TextShape"><tspan class="TextParagraph" font-family="Liberation Sans, sans-serif" font-size="353px" font-weight="400"><tspan class="TextPosition" x="2156" y="14903" transform="translate(2156,14903) rotate(-90) translate(-2156,-14903)"><tspan fill="rgb(0,0,0)" stroke="none">[0, 0.05)</tspan></tspan></tspan></text>
 <text class="TextShape"><tspan class="TextParagraph" font-family="Liberation Sans, sans-serif" font-size="353px" font-weight="400"><tspan class="TextPosition" x="3356" y="15206" transform="translate(3356,15206) rotate(-90) translate(-3356,-15206)"><tspan fill="rgb(0,0,0)" stroke="none">[0.05, 0.1)</tspan></tspan></tspan></text>
 <text class="TextShape"><tspan class="TextParagraph" font-family="Liberation Sans, sans-serif" font-size="353px" font-weight="400"><tspan class="TextPosition" x="4556" y="15206" transform="translate(4556,15206) rotate(-90) translate(-4556,-15206)"><tspan fill="rgb(0,0,0)" stroke="none">[0.1, 0.15)</tspan></tspan></tspan></text>
 <text class="TextShape"><tspan class="TextParagraph" font-family="Liberation Sans, sans-serif" font-size="353px" font-weight="400"><tspan class="TextPosition" x="5756" y="15206" transform="translate(5756,15206) rotate(-90) translate(-5756,-15206)"><tspan fill="rgb(0,0,0)" stroke="none">[0.15, 0.2)</tspan></tspan></tspan></text>
 <text class="TextShape"><tspan class="TextParagraph" font-family="Liberation Sans, sans-serif" font-size="353px" font-weight="400"><tspan class="TextPosition" x="6956" y="15206" transform="translate(6956,15206) rotate(-90) translate(-6956,-15206)"><tspan fill="rgb(0,0,0)" stroke="none">[0.2, 0.25)</tspan></tspan></tspan></text>
 <text class="TextShape"><tspan class="TextParagraph" font-family="Liberation Sans, sans-serif" font-size="353px" font-weight="400"><tspan class="TextPosition" x="8156" y="15206" transform="translate(8156,15206) rotate(-90) translate(-8156,-15206)"><tspan fill="rgb(0,0,0)" stroke="none">[0.25, 0.3)</tspan></tspan></tspan></text>
 <text class="TextShape"><tspan class="TextParagraph" font-family="Liberation Sans, sans-serif" font-size="353px" font-weight="400"><tspan class="TextPosition" x="9356" y="15206" transform="translate(9356,15206) rotate(-90) translate(-9356,-15206)"><tspan fill="rgb(0,0,0)" stroke="none">[0.3, 0.35)</tspan></tspan></tspan></text>
 <text class="TextShape"><tspan class="TextParagraph" font-family="Liberation Sans, sans-serif" font-size="353px" font-weight="400"><tspan class="TextPosition" x="10555" y="15206" transform="translate(10555,15206) rotate(-90) translate(-10555,-15206)"><tspan fill="rgb(0,0,0)" stroke="none">[0.35, 0.4)</tspan></tspan></tspan></text>
 <text class="TextShape"><tspan class="TextParagraph" font-family="Liberation Sans, sans-serif" font-size="353px" font-weight="400"><tspan class="TextPosition" x="11755" y="15206" transform="translate(11755,15206) rotate(-90) translate(-11755,-15206)"><tspan fill="rgb(0,0,0)" stroke="none">[0.4, 0.45)</tspan></tspan></tspan></text>
 <text class="TextShape"><tspan class="TextParagraph" font-family="Liberation Sans, sans-serif" font-size="353px" font-weight="400"><tspan class="TextPosition" x="12955" y="15206" transform="translate(12955,15206) rotate(-90) translate(-12955,-15206)"><tspan fill="rgb(0,0,0)" stroke="none">[0.45, 0.5)</tspan></tspan></tspan></text>
 <text class="TextShape"><tspan class="TextParagraph" font-family="Liberation Sans, sans-serif" font-size="353px" font-weight="400"><tspan class="TextPosition" x="14154" y="15206" transform="translate(14154,15206) rotate(-90) translate(-14154,-15206)"><tspan fill="rgb(0,0,0)" stroke="none">[0.5, 0.55)</tspan></tspan></tspan></text>
 <text class="TextShape"><tspan class="TextParagraph" font-family="Liberation Sans, sans-serif" font-size="353px" font-weight="400"><tspan class="TextPosition" x="15354" y="15206" transform="translate(15354,15206) rotate(-90) translate(-15354,-15206)"><tspan fill="rgb(0,0,0)" stroke="none">[0.55, 0.6)</tspan></tspan></tspan></text>
 <text class="TextShape"><tspan class="TextParagraph" font-family="Liberation Sans, sans-serif" font-size="353px" font-weight="400"><tspan class="TextPosition" x="16554" y="15206" transform="translate(16554,15206) rotate(-90) translate(-16554,-15206)"><tspan fill="rgb(0,0,0)" stroke="none">[0.6, 0.65)</tspan></tspan></tspan></text>
 <text class="TextShape"><tspan class="TextParagraph" font-family="Liberation Sans, sans-serif" font-size="353px" font-weight="400"><tspan class="TextPosition" x="17753" y="15206" transform="translate(17753,15206) rotate(-90) translate(-17753,-15206)"><tspan fill="rgb(0,0,0)" stroke="none">[0.65, 0.7)</tspan></tspan></tspan></text>
 <text class="TextShape"><tspan class="TextParagraph" font-family="Liberation Sans, sans-serif" font-size="353px" font-weight="400"><tspan class="TextPosition" x="18953" y="15206" transform="translate(18953,15206) rotate(-90) translate(-18953,-15206)"><tspan fill="rgb(0,0,0)" stroke="none">[0.7, 0.75)</tspan></tspan></tspan></text>
 <text class="TextShape"><tspan class="TextParagraph" font-family="Liberation Sans, sans-serif" font-size="353px" font-weight="400"><tspan class="TextPosition" x="20153" y="15206" transform="translate(20153,15206) rotate(-90) translate(-20153,-15206)"><tspan fill="rgb(0,0,0)" stroke="none">[0.75, 0.8)</tspan></tspan></tspan></text>
 <text class="TextShape"><tspan class="TextParagraph" font-family="Liberation Sans, sans-serif" font-size="353px" font-weight="400"><tspan class="TextPosition" x="21353" y="15206" transform="translate(21353,15206) rotate(-90) translate(-21353,-15206)"><tspan fill="rgb(0,0,0)" stroke="none">[0.8, 0.85)</tspan></tspan></tspan></text>
 <text class="TextShape"><tspan class="TextParagraph" font-family="Liberation Sans, sans-serif" font-size="353px" font-weight="400"><tspan class="TextPosition" x="22553" y="15206" transform="translate(22553,15206) rotate(-90) translate(-22553,-15206)"><tspan fill="rgb(0,0,0)" stroke="none">[0.85, 0.9)</tspan></tspan></tspan></text>
 <text class="TextShape"><tspan class="TextParagraph" font-family="Liberation Sans, sans-serif" font-size="353px" font-weight="400"><tspan class="TextPosition" x="23753" y="15206" transform="translate(23753,15206) rotate(-90) translate(-23753,-15206)"><tspan fill="rgb(0,0,0)" stroke="none">[0.9, 0.95)</tspan></tspan></tspan></text>
 <text class="TextShape"><tspan class="TextParagraph" font-family="Liberation Sans, sans-serif" font-size="353px" font-weight="400"><tspan class="TextPosition" x="24953" y="14903" transform="translate(24953,14903) rotate(-90) translate(-24953,-14903)"><tspan fill="rgb(0,0,0)" stroke="none">[0.95, 1)</tspan></tspan></tspan></text>
 <text class="TextShape"><tspan class="TextParagraph" font-family="Liberation Sans, sans-serif" font-size="353px" font-weight="400"><tspan class="TextPosition" x="975" y="13444"><tspan fill="rgb(0,0,0)" stroke="none">0</tspan></tspan></tspan></text>
 <text class="TextShape"><tspan class="TextParagraph" font-family="Liberation Sans, sans-serif" font-size="353px" font-weight="400"><tspan class="TextPosition" x="764" y="12002"><tspan fill="rgb(0,0,0)" stroke="none">50</tspan></tspan></tspan></text>
 <text class="TextShape"><tspan class="TextParagraph" font-family="Liberation Sans, sans-serif" font-size="353px" font-weight="400"><tspan class="TextPosition" x="552" y="10560"><tspan fill="rgb(0,0,0)" stroke="none">100</tspan></tspan></tspan></text>
 <text class="TextShape"><tspan class="TextParagraph" font-family="Liberation Sans, sans-serif" font-size="353px" font-weight="400"><tspan class="TextPosition" x="552" y="9118"><tspan fill="rgb(0,0,0)" stroke="none">150</tspan></tspan></tspan></text>
 <text class="TextShape"><tspan class="TextParagraph" font-family="Liberation Sans, sans-serif" font-size="353px" font-weight="400"><tspan class="TextPosition" x="552" y="7676"><tspan fill="rgb(0,0,0)" stroke="none">200</tspan></tspan></tspan></text>
 <text class="TextShape"><tspan class="TextParagraph" font-family="Liberation Sans, sans-serif" font-size="353px" font-weight="400"><tspan class="TextPosition" x="552" y="6234"><tspan fill="rgb(0,0,0)" stroke="none">250</tspan></tspan></tspan></text>
 <text class="TextShape"><tspan class="TextParagraph" font-family="Liberation Sans, sans-serif" font-size="353px" font-weight="400"><tspan class="TextPosition" x="552" y="4792"><tspan fill="rgb(0,0,0)" stroke="none">300</tspan></tspan></tspan></text>
 <text class="TextShape"><tspan class="TextParagraph" font-family="Liberation Sans, sans-serif" font-size="353px" font-weight="400"><tspan class="TextPosition" x="552" y="3350"><tspan fill="rgb(0,0,0)" stroke="none">350</tspan></tspan></tspan></text>
 <text class="TextShape"><tspan class="TextParagraph" font-family="Liberation Sans, sans-serif" font-size="353px" font-weight="400"><tspan class="TextPosition" x="552" y="1909"><tspan fill="rgb(0,0,0)" stroke="none">400</tspan></tspan></tspan></text>
 <text class="TextShape"><tspan class="TextParagraph" font-family="Liberation Sans, sans-serif" font-size="459px" font-weight="400"><tspan class="TextPosition" x="11873" y="1006"><tspan fill="rgb(0,0,0)" stroke="none">LWR of placed read</tspan></tspan></tspan></text>
 <path fill="rgb(0,69,134)" stroke="none" d="M 26206,7601 L 26100,7601 26100,7390 26311,7390 26311,7601 26206,7601 Z"/>
 <path fill="rgb(255,66,14)" stroke="none" d="M 26206,8125 L 26100,8125 26100,7914 26311,7914 26311,8125 26206,8125 Z"/>
 <text class="TextShape"><tspan class="TextParagraph" font-family="Liberation Sans, sans-serif" font-size="353px" font-weight="400"><tspan class="TextPosition" x="26411" y="7616"><tspan fill="rgb(0,0,0)" stroke="none">Long</tspan></tspan></tspan></text>
 <text class="TextShape"><tspan class="TextParagraph" font-family="Liberation Sans, sans-serif" font-size="353px" font-weight="400"><tspan class="TextPosition" x="26411" y="8140"><tspan fill="rgb(0,0,0)" stroke="none">V4</tspan></tspan></tspan></text>
</svg>