<?xml version="1.0" encoding="UTF-8"?>
<!DOCTYPE svg PUBLIC "-//W3C//DTD SVG 1.1//EN" "http://www.w3.org/Graphics/SVG/1.1/DTD/svg11.dtd">
<svg width="276mm" height="155mm" viewBox="0 0 27600 15500" version="1.1" baseProfile="tiny" xmlns="http://www.w3.org/2000/svg" stroke-width="28.222" stroke-linejoin="round" xml:space="preserve">
 <path fill="rgb(255,255,255)" stroke="none" d="M 13794,15517 L 0,15517 0,1 27588,1 27588,15517 13794,15517 Z"/>
 <path fill="none" stroke="rgb(179,179,179)" stroke-linejoin="round" d="M 13436,12689 L 1437,12689 1437,1790 25435,1790 25435,12689 13436,12689 Z"/>
 <path fill="none" stroke="rgb(179,179,179)" stroke-linejoin="round" d="M 25435,12688 L 1437,12688"/>
 <path fill="none" stroke="rgb(179,179,179)" stroke-linejoin="round" d="M 25435,11598 L 1437,11598"/>
 <path fill="none" stroke="rgb(179,179,179)" stroke-linejoin="round" d="M 25435,10508 L 1437,10508"/>
 <path fill="none" stroke="rgb(179,179,179)" stroke-linejoin="round" d="M 25435,9418 L 1437,9418"/>
 <path fill="none" stroke="rgb(179,179,179)" stroke-linejoin="round" d="M 25435,8328 L 1437,8328"/>
 <path fill="none" stroke="rgb(179,179,179)" stroke-linejoin="round" d="M 25435,7239 L 1437,7239"/>
 <path fill="none" stroke="rgb(179,179,179)" stroke-linejoin="round" d="M 25435,6149 L 1437,6149"/>
 <path fill="none" stroke="rgb(179,179,179)" stroke-linejoin="round" d="M 25435,5059 L 1437,5059"/>
 <path fill="none" stroke="rgb(179,179,179)" stroke-linejoin="round" d="M 25435,3969 L 1437,3969"/>
 <path fill="none" stroke="rgb(179,179,179)" stroke-linejoin="round" d="M 25435,2879 L 1437,2879"/>
 <path fill="none" stroke="rgb(179,179,179)" stroke-linejoin="round" d="M 25435,1789 L 1437,1789"/>
 <path fill="none" stroke="rgb(179,179,179)" stroke-linejoin="round" d="M 1437,12838 L 1437,12688"/>
 <path fill="none" stroke="rgb(179,179,179)" stroke-linejoin="round" d="M 1437,12838 L 1437,12688"/>
 <path fill="none" stroke="rgb(179,179,179)" stroke-linejoin="round" d="M 2636,12838 L 2636,12688"/>
 <path fill="none" stroke="rgb(179,179,179)" stroke-linejoin="round" d="M 2636,12838 L 2636,12688"/>
 <path fill="none" stroke="rgb(179,179,179)" stroke-linejoin="round" d="M 3836,12838 L 3836,12688"/>
 <path fill="none" stroke="rgb(179,179,179)" stroke-linejoin="round" d="M 3836,12838 L 3836,12688"/>
 <path fill="none" stroke="rgb(179,179,179)" stroke-linejoin="round" d="M 5036,12838 L 5036,12688"/>
 <path fill="none" stroke="rgb(179,179,179)" stroke-linejoin="round" d="M 5036,12838 L 5036,12688"/>
 <path fill="none" stroke="rgb(179,179,179)" stroke-linejoin="round" d="M 6236,12838 L 6236,12688"/>
 <path fill="none" stroke="rgb(179,179,179)" stroke-linejoin="round" d="M 6236,12838 L 6236,12688"/>
 <path fill="none" stroke="rgb(179,179,179)" stroke-linejoin="round" d="M 7436,12838 L 7436,12688"/>
 <path fill="none" stroke="rgb(179,179,179)" stroke-linejoin="round" d="M 7436,12838 L 7436,12688"/>
 <path fill="none" stroke="rgb(179,179,179)" stroke-linejoin="round" d="M 8636,12838 L 8636,12688"/>
 <path fill="none" stroke="rgb(179,179,179)" stroke-linejoin="round" d="M 8636,12838 L 8636,12688"/>
 <path fill="none" stroke="rgb(179,179,179)" stroke-linejoin="round" d="M 9836,12838 L 9836,12688"/>
 <path fill="none" stroke="rgb(179,179,179)" stroke-linejoin="round" d="M 9836,12838 L 9836,12688"/>
 <path fill="none" stroke="rgb(179,179,179)" stroke-linejoin="round" d="M 11036,12838 L 11036,12688"/>
 <path fill="none" stroke="rgb(179,179,179)" stroke-linejoin="round" d="M 11036,12838 L 11036,12688"/>
 <path fill="none" stroke="rgb(179,179,179)" stroke-linejoin="round" d="M 12236,12838 L 12236,12688"/>
 <path fill="none" stroke="rgb(179,179,179)" stroke-linejoin="round" d="M 12236,12838 L 12236,12688"/>
 <path fill="none" stroke="rgb(179,179,179)" stroke-linejoin="round" d="M 13436,12838 L 13436,12688"/>
 <path fill="none" stroke="rgb(179,179,179)" stroke-linejoin="round" d="M 13436,12838 L 13436,12688"/>
 <path fill="none" stroke="rgb(179,179,179)" stroke-linejoin="round" d="M 14635,12838 L 14635,12688"/>
 <path fill="none" stroke="rgb(179,179,179)" stroke-linejoin="round" d="M 14635,12838 L 14635,12688"/>
 <path fill="none" stroke="rgb(179,179,179)" stroke-linejoin="round" d="M 15835,12838 L 15835,12688"/>
 <path fill="none" stroke="rgb(179,179,179)" stroke-linejoin="round" d="M 15835,12838 L 15835,12688"/>
 <path fill="none" stroke="rgb(179,179,179)" stroke-linejoin="round" d="M 17035,12838 L 17035,12688"/>
 <path fill="none" stroke="rgb(179,179,179)" stroke-linejoin="round" d="M 17035,12838 L 17035,12688"/>
 <path fill="none" stroke="rgb(179,179,179)" stroke-linejoin="round" d="M 18235,12838 L 18235,12688"/>
 <path fill="none" stroke="rgb(179,179,179)" stroke-linejoin="round" d="M 18235,12838 L 18235,12688"/>
 <path fill="none" stroke="rgb(179,179,179)" stroke-linejoin="round" d="M 19435,12838 L 19435,12688"/>
 <path fill="none" stroke="rgb(179,179,179)" stroke-linejoin="round" d="M 19435,12838 L 19435,12688"/>
 <path fill="none" stroke="rgb(179,179,179)" stroke-linejoin="round" d="M 20635,12838 L 20635,12688"/>
 <path fill="none" stroke="rgb(179,179,179)" stroke-linejoin="round" d="M 20635,12838 L 20635,12688"/>
 <path fill="none" stroke="rgb(179,179,179)" stroke-linejoin="round" d="M 21835,12838 L 21835,12688"/>
 <path fill="none" stroke="rgb(179,179,179)" stroke-linejoin="round" d="M 21835,12838 L 21835,12688"/>
 <path fill="none" stroke="rgb(179,179,179)" stroke-linejoin="round" d="M 23035,12838 L 23035,12688"/>
 <path fill="none" stroke="rgb(179,179,179)" stroke-linejoin="round" d="M 23035,12838 L 23035,12688"/>
 <path fill="none" stroke="rgb(179,179,179)" stroke-linejoin="round" d="M 24235,12838 L 24235,12688"/>
 <path fill="none" stroke="rgb(179,179,179)" stroke-linejoin="round" d="M 24235,12838 L 24235,12688"/>
 <path fill="none" stroke="rgb(179,179,179)" stroke-linejoin="round" d="M 25435,12838 L 25435,12688"/>
 <path fill="none" stroke="rgb(179,179,179)" stroke-linejoin="round" d="M 25435,12838 L 25435,12688"/>
 <path fill="none" stroke="rgb(179,179,179)" stroke-linejoin="round" d="M 1437,12688 L 25435,12688"/>
 <path fill="none" stroke="rgb(179,179,179)" stroke-linejoin="round" d="M 1287,12688 L 1437,12688"/>
 <path fill="none" stroke="rgb(179,179,179)" stroke-linejoin="round" d="M 1287,12688 L 1437,12688"/>
 <path fill="none" stroke="rgb(179,179,179)" stroke-linejoin="round" d="M 1287,11598 L 1437,11598"/>
 <path fill="none" stroke="rgb(179,179,179)" stroke-linejoin="round" d="M 1287,11598 L 1437,11598"/>
 <path fill="none" stroke="rgb(179,179,179)" stroke-linejoin="round" d="M 1287,10508 L 1437,10508"/>
 <path fill="none" stroke="rgb(179,179,179)" stroke-linejoin="round" d="M 1287,10508 L 1437,10508"/>
 <path fill="none" stroke="rgb(179,179,179)" stroke-linejoin="round" d="M 1287,9418 L 1437,9418"/>
 <path fill="none" stroke="rgb(179,179,179)" stroke-linejoin="round" d="M 1287,9418 L 1437,9418"/>
 <path fill="none" stroke="rgb(179,179,179)" stroke-linejoin="round" d="M 1287,8328 L 1437,8328"/>
 <path fill="none" stroke="rgb(179,179,179)" stroke-linejoin="round" d="M 1287,8328 L 1437,8328"/>
 <path fill="none" stroke="rgb(179,179,179)" stroke-linejoin="round" d="M 1287,7239 L 1437,7239"/>
 <path fill="none" stroke="rgb(179,179,179)" stroke-linejoin="round" d="M 1287,7239 L 1437,7239"/>
 <path fill="none" stroke="rgb(179,179,179)" stroke-linejoin="round" d="M 1287,6149 L 1437,6149"/>
 <path fill="none" stroke="rgb(179,179,179)" stroke-linejoin="round" d="M 1287,6149 L 1437,6149"/>
 <path fill="none" stroke="rgb(179,179,179)" stroke-linejoin="round" d="M 1287,5058 L 1437,5058"/>
 <path fill="none" stroke="rgb(179,179,179)" stroke-linejoin="round" d="M 1287,5058 L 1437,5058"/>
 <path fill="none" stroke="rgb(179,179,179)" stroke-linejoin="round" d="M 1287,3969 L 1437,3969"/>
 <path fill="none" stroke="rgb(179,179,179)" stroke-linejoin="round" d="M 1287,3969 L 1437,3969"/>
 <path fill="none" stroke="rgb(179,179,179)" stroke-linejoin="round" d="M 1287,2879 L 1437,2879"/>
 <path fill="none" stroke="rgb(179,179,179)" stroke-linejoin="round" d="M 1287,2879 L 1437,2879"/>
 <path fill="none" stroke="rgb(179,179,179)" stroke-linejoin="round" d="M 1287,1789 L 1437,1789"/>
 <path fill="none" stroke="rgb(179,179,179)" stroke-linejoin="round" d="M 1287,1789 L 1437,1789"/>
 <path fill="none" stroke="rgb(179,179,179)" stroke-linejoin="round" d="M 1437,12688 L 1437,1789"/>
 <path fill="rgb(0,69,134)" stroke="none" d="M 24435,12688 L 24835,12688 24835,12557 24435,12557 24435,12688 Z"/>
 <path fill="rgb(0,69,134)" stroke="none" d="M 20835,12688 L 21235,12688 21235,12622 20835,12622 20835,12688 Z"/>
 <path fill="rgb(0,69,134)" stroke="none" d="M 19635,12688 L 20035,12688 20035,12666 19635,12666 19635,12688 Z"/>
 <path fill="rgb(0,69,134)" stroke="none" d="M 18435,12688 L 18835,12688 18835,12666 18435,12666 18435,12688 Z"/>
 <path fill="rgb(0,69,134)" stroke="none" d="M 17235,12688 L 17635,12688 17635,12579 17235,12579 17235,12688 Z"/>
 <path fill="rgb(0,69,134)" stroke="none" d="M 16035,12688 L 16435,12688 16435,12644 16035,12644 16035,12688 Z"/>
 <path fill="rgb(0,69,134)" stroke="none" d="M 14835,12688 L 15235,12688 15235,12644 14835,12644 14835,12688 Z"/>
 <path fill="rgb(0,69,134)" stroke="none" d="M 13636,12688 L 14035,12688 14035,12622 13636,12622 13636,12688 Z"/>
 <path fill="rgb(0,69,134)" stroke="none" d="M 12436,12688 L 12836,12688 12836,12557 12436,12557 12436,12688 Z"/>
 <path fill="rgb(0,69,134)" stroke="none" d="M 11236,12688 L 11636,12688 11636,12579 11236,12579 11236,12688 Z"/>
 <path fill="rgb(0,69,134)" stroke="none" d="M 10036,12688 L 10436,12688 10436,12535 10036,12535 10036,12688 Z"/>
 <path fill="rgb(0,69,134)" stroke="none" d="M 8836,12688 L 9236,12688 9236,12382 8836,12382 8836,12688 Z"/>
 <path fill="rgb(0,69,134)" stroke="none" d="M 7636,12688 L 8036,12688 8036,12339 7636,12339 7636,12688 Z"/>
 <path fill="rgb(0,69,134)" stroke="none" d="M 6436,12688 L 6836,12688 6836,12273 6436,12273 6436,12688 Z"/>
 <path fill="rgb(0,69,134)" stroke="none" d="M 5236,12688 L 5636,12688 5636,12121 5236,12121 5236,12688 Z"/>
 <path fill="rgb(0,69,134)" stroke="none" d="M 4036,12688 L 4436,12688 4436,12186 4036,12186 4036,12688 Z"/>
 <path fill="rgb(0,69,134)" stroke="none" d="M 2836,12688 L 3236,12688 3236,11314 2836,11314 2836,12688 Z"/>
 <path fill="rgb(0,69,134)" stroke="none" d="M 1636,12688 L 2036,12688 2036,2922 1636,2922 1636,12688 Z"/>
 <path fill="rgb(255,66,14)" stroke="none" d="M 24835,12688 L 25235,12688 25235,11794 24835,11794 24835,12688 Z"/>
 <path fill="rgb(255,66,14)" stroke="none" d="M 23635,12688 L 24035,12688 24035,12622 23635,12622 23635,12688 Z"/>
 <path fill="rgb(255,66,14)" stroke="none" d="M 22435,12688 L 22835,12688 22835,12622 22435,12622 22435,12688 Z"/>
 <path fill="rgb(255,66,14)" stroke="none" d="M 21235,12688 L 21635,12688 21635,12622 21235,12622 21235,12688 Z"/>
 <path fill="rgb(255,66,14)" stroke="none" d="M 20035,12688 L 20435,12688 20435,12535 20035,12535 20035,12688 Z"/>
 <path fill="rgb(255,66,14)" stroke="none" d="M 18835,12688 L 19235,12688 19235,12600 18835,12600 18835,12688 Z"/>
 <path fill="rgb(255,66,14)" stroke="none" d="M 17635,12688 L 18035,12688 18035,12470 17635,12470 17635,12688 Z"/>
 <path fill="rgb(255,66,14)" stroke="none" d="M 16435,12688 L 16835,12688 16835,12600 16435,12600 16435,12688 Z"/>
 <path fill="rgb(255,66,14)" stroke="none" d="M 15235,12688 L 15635,12688 15635,12513 15235,12513 15235,12688 Z"/>
 <path fill="rgb(255,66,14)" stroke="none" d="M 14035,12688 L 14435,12688 14435,12513 14035,12513 14035,12688 Z"/>
 <path fill="rgb(255,66,14)" stroke="none" d="M 12836,12688 L 13236,12688 13236,12426 12836,12426 12836,12688 Z"/>
 <path fill="rgb(255,66,14)" stroke="none" d="M 11636,12688 L 12036,12688 12036,12404 11636,12404 11636,12688 Z"/>
 <path fill="rgb(255,66,14)" stroke="none" d="M 10436,12688 L 10836,12688 10836,12382 10436,12382 10436,12688 Z"/>
 <path fill="rgb(255,66,14)" stroke="none" d="M 9236,12688 L 9636,12688 9636,12186 9236,12186 9236,12688 Z"/>
 <path fill="rgb(255,66,14)" stroke="none" d="M 8036,12688 L 8436,12688 8436,12382 8036,12382 8036,12688 Z"/>
 <path fill="rgb(255,66,14)" stroke="none" d="M 6836,12688 L 7236,12688 7236,11859 6836,11859 6836,12688 Z"/>
 <path fill="rgb(255,66,14)" stroke="none" d="M 5636,12688 L 6036,12688 6036,12012 5636,12012 5636,12688 Z"/>
 <path fill="rgb(255,66,14)" stroke="none" d="M 4436,12688 L 4836,12688 4836,11489 4436,11489 4436,12688 Z"/>
 <path fill="rgb(255,66,14)" stroke="none" d="M 3236,12688 L 3636,12688 3636,11183 3236,11183 3236,12688 Z"/>
 <path fill="rgb(255,66,14)" stroke="none" d="M 2036,12688 L 2436,12688 2436,6367 2036,6367 2036,12688 Z"/>
 <text class="TextShape"><tspan class="TextParagraph" font-family="Liberation Sans" font-size="353px" font-weight="400"><tspan class="TextPosition" x="2156" y="14481" transform="translate(2156,14481) rotate(-90) translate(-2156,-14481)"><tspan fill="rgb(0,0,0)" stroke="none">[0, 0.003)</tspan></tspan></tspan></text>
 <text class="TextShape"><tspan class="TextParagraph" font-family="Liberation Sans" font-size="353px" font-weight="400"><tspan class="TextPosition" x="3356" y="15207" transform="translate(3356,15207) rotate(-90) translate(-3356,-15207)"><tspan fill="rgb(0,0,0)" stroke="none">[0.003, 0.006)</tspan></tspan></tspan></text>
 <text class="TextShape"><tspan class="TextParagraph" font-family="Liberation Sans" font-size="353px" font-weight="400"><tspan class="TextPosition" x="4556" y="15207" transform="translate(4556,15207) rotate(-90) translate(-4556,-15207)"><tspan fill="rgb(0,0,0)" stroke="none">[0.006, 0.009)</tspan></tspan></tspan></text>
 <text class="TextShape"><tspan class="TextParagraph" font-family="Liberation Sans" font-size="353px" font-weight="400"><tspan class="TextPosition" x="5756" y="15207" transform="translate(5756,15207) rotate(-90) translate(-5756,-15207)"><tspan fill="rgb(0,0,0)" stroke="none">[0.009, 0.012)</tspan></tspan></tspan></text>
 <text class="TextShape"><tspan class="TextParagraph" font-family="Liberation Sans" font-size="353px" font-weight="400"><tspan class="TextPosition" x="6956" y="15207" transform="translate(6956,15207) rotate(-90) translate(-6956,-15207)"><tspan fill="rgb(0,0,0)" stroke="none">[0.012, 0.015)</tspan></tspan></tspan></text>
 <text class="TextShape"><tspan class="TextParagraph" font-family="Liberation Sans" font-size="353px" font-weight="400"><tspan class="TextPosition" x="8156" y="15207" transform="translate(8156,15207) rotate(-90) translate(-8156,-15207)"><tspan fill="rgb(0,0,0)" stroke="none">[0.015, 0.018)</tspan></tspan></tspan></text>
 <text class="TextShape"><tspan class="TextParagraph" font-family="Liberation Sans" font-size="353px" font-weight="400"><tspan class="TextPosition" x="9356" y="15207" transform="translate(9356,15207) rotate(-90) translate(-9356,-15207)"><tspan fill="rgb(0,0,0)" stroke="none">[0.018, 0.021)</tspan></tspan></tspan></text>
 <text class="TextShape"><tspan class="TextParagraph" font-family="Liberation Sans" font-size="353px" font-weight="400"><tspan class="TextPosition" x="10556" y="15207" transform="translate(10556,15207) rotate(-90) translate(-10556,-15207)"><tspan fill="rgb(0,0,0)" stroke="none">[0.021, 0.024)</tspan></tspan></tspan></text>
 <text class="TextShape"><tspan class="TextParagraph" font-family="Liberation Sans" font-size="353px" font-weight="400"><tspan class="TextPosition" x="11756" y="15207" transform="translate(11756,15207) rotate(-90) translate(-11756,-15207)"><tspan fill="rgb(0,0,0)" stroke="none">[0.024, 0.027)</tspan></tspan></tspan></text>
 <text class="TextShape"><tspan class="TextParagraph" font-family="Liberation Sans" font-size="353px" font-weight="400"><tspan class="TextPosition" x="12956" y="14995" transform="translate(12956,14995) rotate(-90) translate(-12956,-14995)"><tspan fill="rgb(0,0,0)" stroke="none">[0.027, 0.03)</tspan></tspan></tspan></text>
 <text class="TextShape"><tspan class="TextParagraph" font-family="Liberation Sans" font-size="353px" font-weight="400"><tspan class="TextPosition" x="14155" y="14995" transform="translate(14155,14995) rotate(-90) translate(-14155,-14995)"><tspan fill="rgb(0,0,0)" stroke="none">[0.03, 0.033)</tspan></tspan></tspan></text>
 <text class="TextShape"><tspan class="TextParagraph" font-family="Liberation Sans" font-size="353px" font-weight="400"><tspan class="TextPosition" x="15355" y="15207" transform="translate(15355,15207) rotate(-90) translate(-15355,-15207)"><tspan fill="rgb(0,0,0)" stroke="none">[0.033, 0.036)</tspan></tspan></tspan></text>
 <text class="TextShape"><tspan class="TextParagraph" font-family="Liberation Sans" font-size="353px" font-weight="400"><tspan class="TextPosition" x="16555" y="15207" transform="translate(16555,15207) rotate(-90) translate(-16555,-15207)"><tspan fill="rgb(0,0,0)" stroke="none">[0.036, 0.039)</tspan></tspan></tspan></text>
 <text class="TextShape"><tspan class="TextParagraph" font-family="Liberation Sans" font-size="353px" font-weight="400"><tspan class="TextPosition" x="17755" y="15207" transform="translate(17755,15207) rotate(-90) translate(-17755,-15207)"><tspan fill="rgb(0,0,0)" stroke="none">[0.039, 0.042)</tspan></tspan></tspan></text>
 <text class="TextShape"><tspan class="TextParagraph" font-family="Liberation Sans" font-size="353px" font-weight="400"><tspan class="TextPosition" x="18955" y="15207" transform="translate(18955,15207) rotate(-90) translate(-18955,-15207)"><tspan fill="rgb(0,0,0)" stroke="none">[0.042, 0.045)</tspan></tspan></tspan></text>
 <text class="TextShape"><tspan class="TextParagraph" font-family="Liberation Sans" font-size="353px" font-weight="400"><tspan class="TextPosition" x="20155" y="15207" transform="translate(20155,15207) rotate(-90) translate(-20155,-15207)"><tspan fill="rgb(0,0,0)" stroke="none">[0.045, 0.048)</tspan></tspan></tspan></text>
 <text class="TextShape"><tspan class="TextParagraph" font-family="Liberation Sans" font-size="353px" font-weight="400"><tspan class="TextPosition" x="21355" y="15207" transform="translate(21355,15207) rotate(-90) translate(-21355,-15207)"><tspan fill="rgb(0,0,0)" stroke="none">[0.048, 0.051)</tspan></tspan></tspan></text>
 <text class="TextShape"><tspan class="TextParagraph" font-family="Liberation Sans" font-size="353px" font-weight="400"><tspan class="TextPosition" x="22555" y="15207" transform="translate(22555,15207) rotate(-90) translate(-22555,-15207)"><tspan fill="rgb(0,0,0)" stroke="none">[0.051, 0.054)</tspan></tspan></tspan></text>
 <text class="TextShape"><tspan class="TextParagraph" font-family="Liberation Sans" font-size="353px" font-weight="400"><tspan class="TextPosition" x="23755" y="15207" transform="translate(23755,15207) rotate(-90) translate(-23755,-15207)"><tspan fill="rgb(0,0,0)" stroke="none">[0.054, 0.057)</tspan></tspan></tspan></text>
 <text class="TextShape"><tspan class="TextParagraph" font-family="Liberation Sans" font-size="353px" font-weight="400"><tspan class="TextPosition" x="24955" y="14995" transform="translate(24955,14995) rotate(-90) translate(-24955,-14995)"><tspan fill="rgb(0,0,0)" stroke="none">[0.057, 0.06)</tspan></tspan></tspan></text>
 <text class="TextShape"><tspan class="TextParagraph" font-family="Liberation Sans" font-size="353px" font-weight="400"><tspan class="TextPosition" x="975" y="12810"><tspan fill="rgb(0,0,0)" stroke="none">0</tspan></tspan></tspan></text>
 <text class="TextShape"><tspan class="TextParagraph" font-family="Liberation Sans" font-size="353px" font-weight="400"><tspan class="TextPosition" x="764" y="11720"><tspan fill="rgb(0,0,0)" stroke="none">50</tspan></tspan></tspan></text>
 <text class="TextShape"><tspan class="TextParagraph" font-family="Liberation Sans" font-size="353px" font-weight="400"><tspan class="TextPosition" x="552" y="10630"><tspan fill="rgb(0,0,0)" stroke="none">100</tspan></tspan></tspan></text>
 <text class="TextShape"><tspan class="TextParagraph" font-family="Liberation Sans" font-size="353px" font-weight="400"><tspan class="TextPosition" x="552" y="9540"><tspan fill="rgb(0,0,0)" stroke="none">150</tspan></tspan></tspan></text>
 <text class="TextShape"><tspan class="TextParagraph" font-family="Liberation Sans" font-size="353px" font-weight="400"><tspan class="TextPosition" x="552" y="8450"><tspan fill="rgb(0,0,0)" stroke="none">200</tspan></tspan></tspan></text>
 <text class="TextShape"><tspan class="TextParagraph" font-family="Liberation Sans" font-size="353px" font-weight="400"><tspan class="TextPosition" x="552" y="7360"><tspan fill="rgb(0,0,0)" stroke="none">250</tspan></tspan></tspan></text>
 <text class="TextShape"><tspan class="TextParagraph" font-family="Liberation Sans" font-size="353px" font-weight="400"><tspan class="TextPosition" x="552" y="6270"><tspan fill="rgb(0,0,0)" stroke="none">300</tspan></tspan></tspan></text>
 <text class="TextShape"><tspan class="TextParagraph" font-family="Liberation Sans" font-size="353px" font-weight="400"><tspan class="TextPosition" x="552" y="5179"><tspan fill="rgb(0,0,0)" stroke="none">350</tspan></tspan></tspan></text>
 <text class="TextShape"><tspan class="TextParagraph" font-family="Liberation Sans" font-size="353px" font-weight="400"><tspan class="TextPosition" x="552" y="4090"><tspan fill="rgb(0,0,0)" stroke="none">400</tspan></tspan></tspan></text>
 <text class="TextShape"><tspan class="TextParagraph" font-family="Liberation Sans" font-size="353px" font-weight="400"><tspan class="TextPosition" x="552" y="3000"><tspan fill="rgb(0,0,0)" stroke="none">450</tspan></tspan></tspan></text>
 <text class="TextShape"><tspan class="TextParagraph" font-family="Liberation Sans" font-size="353px" font-weight="400"><tspan class="TextPosition" x="552" y="1910"><tspan fill="rgb(0,0,0)" stroke="none">500</tspan></tspan></tspan></text>
 <text class="TextShape"><tspan class="TextParagraph" font-family="Liberation Sans" font-size="459px" font-weight="400"><tspan class="TextPosition" x="13204" y="1007"><tspan fill="rgb(0,0,0)" stroke="none">EDPL</tspan></tspan></tspan></text>
 <path fill="rgb(0,69,134)" stroke="none" d="M 26208,7602 L 26102,7602 26102,7391 26313,7391 26313,7602 26208,7602 Z"/>
 <path fill="rgb(255,66,14)" stroke="none" d="M 26208,8126 L 26102,8126 26102,7915 26313,7915 26313,8126 26208,8126 Z"/>
 <text class="TextShape"><tspan class="TextParagraph" font-family="Liberation Sans" font-size="353px" font-weight="400"><tspan class="TextPosition" x="26413" y="7617"><tspan fill="rgb(0,0,0)" stroke="none">Long</tspan></tspan></tspan></text>
 <text class="TextShape"><tspan class="TextParagraph" font-family="Liberation Sans" font-size="353px" font-weight="400"><tspan class="TextPosition" x="26413" y="8141"><tspan fill="rgb(0,0,0)" stroke="none">V4</tspan></tspan></tspan></text>
</svg>