<?xml version="1.0" encoding="utf-8" standalone="no"?>
<!DOCTYPE svg PUBLIC "-//W3C//DTD SVG 1.1//EN"
  "http://www.w3.org/Graphics/SVG/1.1/DTD/svg11.dtd">
<!-- Created with matplotlib (http://matplotlib.org/) -->
<svg height="396pt" version="1.1" viewBox="0 0 576 396" width="576pt" xmlns="http://www.w3.org/2000/svg" xmlns:xlink="http://www.w3.org/1999/xlink">
 <defs>
  <style type="text/css">
*{stroke-linecap:butt;stroke-linejoin:round;}
  </style>
 </defs>
 <g id="figure_1">
  <g id="patch_1">
   <path d="
M0 396
L576 396
L576 0
L0 0
z
" style="fill:#ffffff;"/>
  </g>
  <g id="axes_1">
   <g id="patch_2">
    <path d="
M88.8735 330.864
L545.076 330.864
L545.076 28.386
L88.8735 28.386
z
" style="fill:#eaeaf2;"/>
   </g>
   <g id="matplotlib.axis_1">
    <g id="xtick_1">
     <g id="line2d_1">
      <path clip-path="url(#pb757030021)" d="
M88.8735 330.864
L88.8735 28.386" style="fill:none;stroke:#ffffff;stroke-linecap:round;"/>
     </g>
     <g id="line2d_2">
      <defs>
       <path d="
M0 0
L0 0" id="m219da94a98" style="stroke:#262626;"/>
      </defs>
      <g>
       <use style="fill:#262626;stroke:#262626;" x="88.8735" xlink:href="#m219da94a98" y="330.864"/>
      </g>
     </g>
     <g id="line2d_3">
      <g>
       <use style="fill:#262626;stroke:#262626;" x="88.8735" xlink:href="#m219da94a98" y="28.386"/>
      </g>
     </g>
     <g id="text_1">
      <!-- 0.0 -->
      <defs>
       <path d="
M9.125 0
L9.125 10.6875
L18.6562 10.6875
L18.6562 0
z
" id="LiberationSans-2e"/>
       <path d="
M51.7031 34.4219
Q51.7031 24.5156 49.8281 17.75
Q47.9531 10.9844 44.7031 6.8125
Q41.4531 2.64062 37.0625 0.828125
Q32.6719 -0.984375 27.6875 -0.984375
Q22.6562 -0.984375 18.3125 0.828125
Q13.9688 2.64062 10.7656 6.78125
Q7.5625 10.9375 5.73438 17.7031
Q3.90625 24.4688 3.90625 34.4219
Q3.90625 44.8281 5.73438 51.6406
Q7.5625 58.4531 10.7812 62.5
Q14.0156 66.5469 18.4062 68.1875
Q22.7969 69.8281 27.9844 69.8281
Q32.9062 69.8281 37.2188 68.1875
Q41.5469 66.5469 44.7656 62.5
Q48 58.4531 49.8438 51.6406
Q51.7031 44.8281 51.7031 34.4219
M42.7812 34.4219
Q42.7812 42.625 41.7969 48.0625
Q40.8281 53.5156 38.9219 56.7656
Q37.0156 60.0156 34.25 61.3594
Q31.5 62.7031 27.9844 62.7031
Q24.2656 62.7031 21.4375 61.3281
Q18.6094 59.9688 16.6719 56.7188
Q14.75 53.4688 13.7656 48.0156
Q12.7969 42.5781 12.7969 34.4219
Q12.7969 26.5156 13.7969 21.0938
Q14.7969 15.6719 16.7188 12.375
Q18.6562 9.07812 21.4375 7.64062
Q24.2188 6.20312 27.7812 6.20312
Q31.25 6.20312 34.0312 7.64062
Q36.8125 9.07812 38.7344 12.375
Q40.6719 15.6719 41.7188 21.0938
Q42.7812 26.5156 42.7812 34.4219" id="LiberationSans-30"/>
      </defs>
      <g style="fill:#262626;" transform="translate(78.3785 349.459)scale(0.16 -0.16)">
       <use xlink:href="#LiberationSans-30"/>
       <use x="55.615234375" xlink:href="#LiberationSans-2e"/>
       <use x="83.3984375" xlink:href="#LiberationSans-30"/>
      </g>
     </g>
    </g>
    <g id="xtick_2">
     <g id="line2d_4">
      <path clip-path="url(#pb757030021)" d="
M134.494 330.864
L134.494 28.386" style="fill:none;stroke:#ffffff;stroke-linecap:round;"/>
     </g>
     <g id="line2d_5">
      <g>
       <use style="fill:#262626;stroke:#262626;" x="134.493721875" xlink:href="#m219da94a98" y="330.864"/>
      </g>
     </g>
     <g id="line2d_6">
      <g>
       <use style="fill:#262626;stroke:#262626;" x="134.493721875" xlink:href="#m219da94a98" y="28.386"/>
      </g>
     </g>
     <g id="text_2">
      <!-- 0.1 -->
      <defs>
       <path d="
M7.625 0
L7.625 7.46875
L25.1406 7.46875
L25.1406 60.4062
L9.625 49.3125
L9.625 57.625
L25.875 68.7969
L33.9844 68.7969
L33.9844 7.46875
L50.7344 7.46875
L50.7344 0
z
" id="LiberationSans-31"/>
      </defs>
      <g style="fill:#262626;" transform="translate(124.076221875 349.459)scale(0.16 -0.16)">
       <use xlink:href="#LiberationSans-30"/>
       <use x="55.615234375" xlink:href="#LiberationSans-2e"/>
       <use x="83.3984375" xlink:href="#LiberationSans-31"/>
      </g>
     </g>
    </g>
    <g id="xtick_3">
     <g id="line2d_7">
      <path clip-path="url(#pb757030021)" d="
M180.114 330.864
L180.114 28.386" style="fill:none;stroke:#ffffff;stroke-linecap:round;"/>
     </g>
     <g id="line2d_8">
      <g>
       <use style="fill:#262626;stroke:#262626;" x="180.11394375" xlink:href="#m219da94a98" y="330.864"/>
      </g>
     </g>
     <g id="line2d_9">
      <g>
       <use style="fill:#262626;stroke:#262626;" x="180.11394375" xlink:href="#m219da94a98" y="28.386"/>
      </g>
     </g>
     <g id="text_3">
      <!-- 0.2 -->
      <defs>
       <path d="
M5.03125 0
L5.03125 6.20312
Q7.51562 11.9219 11.1094 16.2812
Q14.7031 20.6562 18.6562 24.1875
Q22.6094 27.7344 26.4844 30.7656
Q30.375 33.7969 33.5 36.8125
Q36.625 39.8438 38.5469 43.1562
Q40.4844 46.4844 40.4844 50.6875
Q40.4844 53.6094 39.5938 55.8281
Q38.7188 58.0625 37.0625 59.5625
Q35.4062 61.0781 33.0781 61.8281
Q30.7656 62.5938 27.9375 62.5938
Q25.2969 62.5938 22.9688 61.8594
Q20.6562 61.1406 18.8438 59.6719
Q17.0469 58.2031 15.8906 56.0312
Q14.75 53.8594 14.4062 50.9844
L5.42188 51.8125
Q5.85938 55.5156 7.46875 58.7812
Q9.07812 62.0625 11.9062 64.5312
Q14.75 67 18.7188 68.4062
Q22.7031 69.8281 27.9375 69.8281
Q33.0625 69.8281 37.0625 68.6094
Q41.0625 67.3906 43.8125 64.9844
Q46.5781 62.5938 48.0469 59.0781
Q49.5156 55.5625 49.5156 50.9844
Q49.5156 47.5156 48.2656 44.3906
Q47.0156 41.2656 44.9375 38.4219
Q42.875 35.5938 40.1406 32.9531
Q37.4062 30.3281 34.4219 27.8125
Q31.4531 25.2969 28.4219 22.8281
Q25.3906 20.3594 22.7188 17.8594
Q20.0625 15.375 17.9688 12.8125
Q15.875 10.25 14.7031 7.46875
L50.5938 7.46875
L50.5938 0
z
" id="LiberationSans-32"/>
      </defs>
      <g style="fill:#262626;" transform="translate(169.70769375 349.459)scale(0.16 -0.16)">
       <use xlink:href="#LiberationSans-30"/>
       <use x="55.615234375" xlink:href="#LiberationSans-2e"/>
       <use x="83.3984375" xlink:href="#LiberationSans-32"/>
      </g>
     </g>
    </g>
    <g id="xtick_4">
     <g id="line2d_10">
      <path clip-path="url(#pb757030021)" d="
M225.734 330.864
L225.734 28.386" style="fill:none;stroke:#ffffff;stroke-linecap:round;"/>
     </g>
     <g id="line2d_11">
      <g>
       <use style="fill:#262626;stroke:#262626;" x="225.734165625" xlink:href="#m219da94a98" y="330.864"/>
      </g>
     </g>
     <g id="line2d_12">
      <g>
       <use style="fill:#262626;stroke:#262626;" x="225.734165625" xlink:href="#m219da94a98" y="28.386"/>
      </g>
     </g>
     <g id="text_4">
      <!-- 0.3 -->
      <defs>
       <path d="
M51.2188 19
Q51.2188 14.2656 49.6719 10.5469
Q48.1406 6.84375 45.1875 4.26562
Q42.2344 1.70312 37.8594 0.359375
Q33.5 -0.984375 27.875 -0.984375
Q21.4844 -0.984375 17.1094 0.609375
Q12.75 2.20312 9.90625 4.8125
Q7.07812 7.42188 5.65625 10.7656
Q4.25 14.1094 3.8125 17.6719
L12.8906 18.5
Q13.2812 15.7656 14.3281 13.5156
Q15.375 11.2812 17.1875 9.67188
Q19 8.0625 21.625 7.17188
Q24.2656 6.29688 27.875 6.29688
Q34.5156 6.29688 38.2969 9.5625
Q42.0938 12.8438 42.0938 19.2812
Q42.0938 23.0938 40.4062 25.4062
Q38.7188 27.7344 36.2031 29.0312
Q33.6875 30.3281 30.7344 30.7656
Q27.7812 31.2031 25.2969 31.2031
L20.3125 31.2031
L20.3125 38.8125
L25.0938 38.8125
Q27.5938 38.8125 30.2656 39.3281
Q32.9531 39.8438 35.1719 41.1875
Q37.4062 42.5312 38.8438 44.8281
Q40.2812 47.125 40.2812 50.6875
Q40.2812 56.2031 37.0312 59.3906
Q33.7969 62.5938 27.3906 62.5938
Q21.5781 62.5938 17.9844 59.6094
Q14.4062 56.6406 13.8125 51.2188
L4.98438 51.9062
Q5.51562 56.4531 7.46875 59.8125
Q9.42188 63.1875 12.4219 65.4062
Q15.4375 67.625 19.2812 68.7188
Q23.1406 69.8281 27.4844 69.8281
Q33.25 69.8281 37.3906 68.375
Q41.5469 66.9375 44.1875 64.4688
Q46.8281 62.0156 48.0625 58.6875
Q49.3125 55.375 49.3125 51.6094
Q49.3125 48.5781 48.4844 45.9375
Q47.6562 43.3125 45.8906 41.2031
Q44.1406 39.1094 41.4219 37.5938
Q38.7188 36.0781 34.9062 35.2969
L34.9062 35.1094
Q39.0625 34.6719 42.1406 33.2188
Q45.2188 31.7812 47.2188 29.625
Q49.2188 27.4844 50.2188 24.75
Q51.2188 22.0156 51.2188 19" id="LiberationSans-33"/>
      </defs>
      <g style="fill:#262626;" transform="translate(215.277915625 349.459)scale(0.16 -0.16)">
       <use xlink:href="#LiberationSans-30"/>
       <use x="55.615234375" xlink:href="#LiberationSans-2e"/>
       <use x="83.3984375" xlink:href="#LiberationSans-33"/>
      </g>
     </g>
    </g>
    <g id="xtick_5">
     <g id="line2d_13">
      <path clip-path="url(#pb757030021)" d="
M271.354 330.864
L271.354 28.386" style="fill:none;stroke:#ffffff;stroke-linecap:round;"/>
     </g>
     <g id="line2d_14">
      <g>
       <use style="fill:#262626;stroke:#262626;" x="271.3543875" xlink:href="#m219da94a98" y="330.864"/>
      </g>
     </g>
     <g id="line2d_15">
      <g>
       <use style="fill:#262626;stroke:#262626;" x="271.3543875" xlink:href="#m219da94a98" y="28.386"/>
      </g>
     </g>
     <g id="text_5">
      <!-- 0.4 -->
      <defs>
       <path d="
M43.0156 15.5781
L43.0156 0
L34.7188 0
L34.7188 15.5781
L2.29688 15.5781
L2.29688 22.4062
L33.7969 68.7969
L43.0156 68.7969
L43.0156 22.5156
L52.6875 22.5156
L52.6875 15.5781
z

M34.7188 58.8906
Q34.625 58.6406 34.2344 57.9375
Q33.8438 57.2344 33.3438 56.3438
Q32.8594 55.4688 32.3438 54.5625
Q31.8438 53.6562 31.4531 53.0781
L13.8125 27.0938
Q13.5781 26.7031 13.1094 26.0625
Q12.6406 25.4375 12.1562 24.7812
Q11.6719 24.125 11.1719 23.4844
Q10.6875 22.8594 10.4062 22.5156
L34.7188 22.5156
z
" id="LiberationSans-34"/>
      </defs>
      <g style="fill:#262626;" transform="translate(260.7806375 349.459)scale(0.16 -0.16)">
       <use xlink:href="#LiberationSans-30"/>
       <use x="55.615234375" xlink:href="#LiberationSans-2e"/>
       <use x="83.3984375" xlink:href="#LiberationSans-34"/>
      </g>
     </g>
    </g>
    <g id="xtick_6">
     <g id="line2d_16">
      <path clip-path="url(#pb757030021)" d="
M316.975 330.864
L316.975 28.386" style="fill:none;stroke:#ffffff;stroke-linecap:round;"/>
     </g>
     <g id="line2d_17">
      <g>
       <use style="fill:#262626;stroke:#262626;" x="316.974609375" xlink:href="#m219da94a98" y="330.864"/>
      </g>
     </g>
     <g id="line2d_18">
      <g>
       <use style="fill:#262626;stroke:#262626;" x="316.974609375" xlink:href="#m219da94a98" y="28.386"/>
      </g>
     </g>
     <g id="text_6">
      <!-- 0.5 -->
      <defs>
       <path d="
M51.4219 22.4062
Q51.4219 17.2344 49.8594 12.9375
Q48.2969 8.64062 45.2188 5.53125
Q42.1406 2.4375 37.5781 0.71875
Q33.0156 -0.984375 27 -0.984375
Q21.5781 -0.984375 17.5469 0.28125
Q13.5312 1.5625 10.7344 3.78125
Q7.95312 6 6.3125 8.98438
Q4.6875 11.9688 4 15.375
L12.8906 16.4062
Q13.4219 14.4531 14.3906 12.625
Q15.375 10.7969 17.0625 9.34375
Q18.75 7.90625 21.2188 7.04688
Q23.6875 6.20312 27.2031 6.20312
Q30.6094 6.20312 33.3906 7.25
Q36.1875 8.29688 38.1562 10.3438
Q40.1406 12.4062 41.2031 15.375
Q42.2812 18.3594 42.2812 22.2188
Q42.2812 25.3906 41.25 28.0469
Q40.2344 30.7188 38.3281 32.6406
Q36.4219 34.5781 33.6562 35.6406
Q30.9062 36.7188 27.3906 36.7188
Q25.2031 36.7188 23.3438 36.3281
Q21.4844 35.9375 19.8906 35.25
Q18.3125 34.5781 17.0156 33.6719
Q15.7188 32.7656 14.5938 31.7812
L6 31.7812
L8.29688 68.7969
L47.4062 68.7969
L47.4062 61.3281
L16.3125 61.3281
L14.9844 39.5
Q17.3281 41.3125 20.8438 42.5938
Q24.3594 43.8906 29.2031 43.8906
Q34.3281 43.8906 38.4219 42.3281
Q42.5312 40.7656 45.4062 37.9062
Q48.2969 35.0625 49.8594 31.1094
Q51.4219 27.1562 51.4219 22.4062" id="LiberationSans-35"/>
      </defs>
      <g style="fill:#262626;" transform="translate(306.502109375 349.459)scale(0.16 -0.16)">
       <use xlink:href="#LiberationSans-30"/>
       <use x="55.615234375" xlink:href="#LiberationSans-2e"/>
       <use x="83.3984375" xlink:href="#LiberationSans-35"/>
      </g>
     </g>
    </g>
    <g id="xtick_7">
     <g id="line2d_19">
      <path clip-path="url(#pb757030021)" d="
M362.595 330.864
L362.595 28.386" style="fill:none;stroke:#ffffff;stroke-linecap:round;"/>
     </g>
     <g id="line2d_20">
      <g>
       <use style="fill:#262626;stroke:#262626;" x="362.59483125" xlink:href="#m219da94a98" y="330.864"/>
      </g>
     </g>
     <g id="line2d_21">
      <g>
       <use style="fill:#262626;stroke:#262626;" x="362.59483125" xlink:href="#m219da94a98" y="28.386"/>
      </g>
     </g>
     <g id="text_7">
      <!-- 0.6 -->
      <defs>
       <path d="
M51.2188 22.5156
Q51.2188 17.3281 49.7812 13
Q48.3438 8.6875 45.5312 5.57812
Q42.7188 2.48438 38.5625 0.75
Q34.4219 -0.984375 29 -0.984375
Q23 -0.984375 18.5 1.3125
Q14.0156 3.60938 11.0312 7.92188
Q8.0625 12.25 6.5625 18.5312
Q5.07812 24.8125 5.07812 32.8125
Q5.07812 42 6.76562 48.9219
Q8.45312 55.8594 11.625 60.5
Q14.7969 65.1406 19.3594 67.4844
Q23.9219 69.8281 29.6875 69.8281
Q33.2031 69.8281 36.2812 69.0938
Q39.3594 68.3594 41.875 66.7188
Q44.3906 65.0938 46.2812 62.4062
Q48.1875 59.7188 49.3125 55.8125
L40.9219 54.2969
Q39.5469 58.7344 36.5469 60.7188
Q33.5469 62.7031 29.5938 62.7031
Q25.9844 62.7031 23.0469 60.9844
Q20.125 59.2812 18.0625 55.875
Q16.0156 52.4844 14.9062 47.3594
Q13.8125 42.2344 13.8125 35.4062
Q16.2188 39.8438 20.5625 42.1562
Q24.9062 44.4844 30.5156 44.4844
Q35.2031 44.4844 39.0156 42.9688
Q42.8281 41.4531 45.5312 38.5938
Q48.25 35.75 49.7344 31.6719
Q51.2188 27.5938 51.2188 22.5156
M42.2812 22.125
Q42.2812 25.6875 41.4062 28.5625
Q40.5312 31.4531 38.7656 33.4688
Q37.0156 35.5 34.4219 36.5938
Q31.8438 37.7031 28.4219 37.7031
Q26.0312 37.7031 23.5781 36.9844
Q21.1406 36.2812 19.1562 34.6875
Q17.1875 33.1094 15.9375 30.5156
Q14.7031 27.9375 14.7031 24.2188
Q14.7031 20.4062 15.6719 17.1094
Q16.6562 13.8125 18.4844 11.375
Q20.3125 8.9375 22.8906 7.51562
Q25.4844 6.10938 28.7188 6.10938
Q31.8906 6.10938 34.4062 7.20312
Q36.9219 8.29688 38.6719 10.375
Q40.4375 12.4531 41.3594 15.4219
Q42.2812 18.4062 42.2812 22.125" id="LiberationSans-36"/>
      </defs>
      <g style="fill:#262626;" transform="translate(352.13858125 349.459)scale(0.16 -0.16)">
       <use xlink:href="#LiberationSans-30"/>
       <use x="55.615234375" xlink:href="#LiberationSans-2e"/>
       <use x="83.3984375" xlink:href="#LiberationSans-36"/>
      </g>
     </g>
    </g>
    <g id="xtick_8">
     <g id="line2d_22">
      <path clip-path="url(#pb757030021)" d="
M408.215 330.864
L408.215 28.386" style="fill:none;stroke:#ffffff;stroke-linecap:round;"/>
     </g>
     <g id="line2d_23">
      <g>
       <use style="fill:#262626;stroke:#262626;" x="408.215053125" xlink:href="#m219da94a98" y="330.864"/>
      </g>
     </g>
     <g id="line2d_24">
      <g>
       <use style="fill:#262626;stroke:#262626;" x="408.215053125" xlink:href="#m219da94a98" y="28.386"/>
      </g>
     </g>
     <g id="text_8">
      <!-- 0.7 -->
      <defs>
       <path d="
M50.5938 61.6719
Q45.4062 53.7656 41.0625 46.4531
Q36.7188 39.1562 33.5938 31.75
Q30.4688 24.3594 28.7344 16.5781
Q27 8.79688 27 0
L17.8281 0
Q17.8281 8.25 19.7812 16.1875
Q21.7344 24.125 25.0469 31.7656
Q28.375 39.4062 32.7656 46.7812
Q37.1562 54.1562 42.0938 61.3281
L5.125 61.3281
L5.125 68.7969
L50.5938 68.7969
z
" id="LiberationSans-37"/>
      </defs>
      <g style="fill:#262626;" transform="translate(397.808803125 349.459)scale(0.16 -0.16)">
       <use xlink:href="#LiberationSans-30"/>
       <use x="55.615234375" xlink:href="#LiberationSans-2e"/>
       <use x="83.3984375" xlink:href="#LiberationSans-37"/>
      </g>
     </g>
    </g>
    <g id="xtick_9">
     <g id="line2d_25">
      <path clip-path="url(#pb757030021)" d="
M453.835 330.864
L453.835 28.386" style="fill:none;stroke:#ffffff;stroke-linecap:round;"/>
     </g>
     <g id="line2d_26">
      <g>
       <use style="fill:#262626;stroke:#262626;" x="453.835275" xlink:href="#m219da94a98" y="330.864"/>
      </g>
     </g>
     <g id="line2d_27">
      <g>
       <use style="fill:#262626;stroke:#262626;" x="453.835275" xlink:href="#m219da94a98" y="28.386"/>
      </g>
     </g>
     <g id="text_9">
      <!-- 0.8 -->
      <defs>
       <path d="
M51.2656 19.1875
Q51.2656 14.7969 49.875 11.1094
Q48.4844 7.42188 45.625 4.73438
Q42.7812 2.04688 38.3281 0.53125
Q33.8906 -0.984375 27.8281 -0.984375
Q21.7812 -0.984375 17.3594 0.53125
Q12.9375 2.04688 10.0312 4.70312
Q7.125 7.375 5.73438 11.0625
Q4.34375 14.75 4.34375 19.0938
Q4.34375 22.8594 5.48438 25.7812
Q6.64062 28.7188 8.5625 30.8281
Q10.5 32.9531 12.9688 34.25
Q15.4375 35.5469 18.0625 35.9844
L18.0625 36.1875
Q15.1875 36.8594 12.9062 38.375
Q10.6406 39.8906 9.09375 42.0156
Q7.5625 44.1406 6.75 46.7188
Q5.95312 49.3125 5.95312 52.2031
Q5.95312 55.8125 7.34375 59
Q8.73438 62.2031 11.4688 64.625
Q14.2031 67.0469 18.25 68.4375
Q22.3125 69.8281 27.6406 69.8281
Q33.25 69.8281 37.375 68.4062
Q41.5 67 44.2031 64.5781
Q46.9219 62.1562 48.2344 58.9375
Q49.5625 55.7188 49.5625 52.0938
Q49.5625 49.2656 48.75 46.6719
Q47.9531 44.0938 46.4062 41.9688
Q44.875 39.8438 42.5938 38.3438
Q40.3281 36.8594 37.3594 36.2812
L37.3594 36.0781
Q40.3281 35.5938 42.8594 34.2969
Q45.4062 33.0156 47.2656 30.8906
Q49.125 28.7656 50.1875 25.8281
Q51.2656 22.9062 51.2656 19.1875
M40.4375 51.6094
Q40.4375 54.2031 39.7656 56.3438
Q39.1094 58.5 37.5938 60.0312
Q36.0781 61.5781 33.6406 62.4219
Q31.2031 63.2812 27.6406 63.2812
Q24.1719 63.2812 21.7812 62.4219
Q19.3906 61.5781 17.8438 60.0312
Q16.3125 58.5 15.625 56.3438
Q14.9375 54.2031 14.9375 51.6094
Q14.9375 49.5625 15.4688 47.4062
Q16.0156 45.2656 17.4219 43.5
Q18.8438 41.75 21.3281 40.625
Q23.8281 39.5 27.7344 39.5
Q31.8906 39.5 34.4062 40.625
Q36.9219 41.75 38.25 43.5
Q39.5938 45.2656 40.0156 47.4062
Q40.4375 49.5625 40.4375 51.6094
M42.1406 20.0156
Q42.1406 22.5156 41.4531 24.8281
Q40.7656 27.1562 39.1094 28.9375
Q37.4531 30.7188 34.6406 31.8125
Q31.8438 32.9062 27.6406 32.9062
Q23.7812 32.9062 21.0625 31.8125
Q18.3594 30.7188 16.6719 28.9062
Q14.9844 27.0938 14.2031 24.7188
Q13.4219 22.3594 13.4219 19.8281
Q13.4219 16.6562 14.2031 14.0312
Q14.9844 11.4219 16.6875 9.54688
Q18.4062 7.67188 21.1875 6.64062
Q23.9688 5.60938 27.9375 5.60938
Q31.9375 5.60938 34.6719 6.64062
Q37.4062 7.67188 39.0625 9.54688
Q40.7188 11.4219 41.4219 14.0781
Q42.1406 16.75 42.1406 20.0156" id="LiberationSans-38"/>
      </defs>
      <g style="fill:#262626;" transform="translate(443.375275 349.459)scale(0.16 -0.16)">
       <use xlink:href="#LiberationSans-30"/>
       <use x="55.615234375" xlink:href="#LiberationSans-2e"/>
       <use x="83.3984375" xlink:href="#LiberationSans-38"/>
      </g>
     </g>
    </g>
    <g id="xtick_10">
     <g id="line2d_28">
      <path clip-path="url(#pb757030021)" d="
M499.455 330.864
L499.455 28.386" style="fill:none;stroke:#ffffff;stroke-linecap:round;"/>
     </g>
     <g id="line2d_29">
      <g>
       <use style="fill:#262626;stroke:#262626;" x="499.455496875" xlink:href="#m219da94a98" y="330.864"/>
      </g>
     </g>
     <g id="line2d_30">
      <g>
       <use style="fill:#262626;stroke:#262626;" x="499.455496875" xlink:href="#m219da94a98" y="28.386"/>
      </g>
     </g>
     <g id="text_10">
      <!-- 0.9 -->
      <defs>
       <path d="
M50.875 35.7969
Q50.875 26.6094 49.1406 19.7031
Q47.4062 12.7969 44.1875 8.20312
Q40.9688 3.60938 36.3438 1.3125
Q31.7344 -0.984375 25.9844 -0.984375
Q22.0156 -0.984375 18.8438 -0.171875
Q15.6719 0.640625 13.1719 2.34375
Q10.6875 4.04688 8.92188 6.78125
Q7.17188 9.51562 6.10938 13.375
L14.5 14.7031
Q15.875 10.25 18.7812 8.17188
Q21.6875 6.10938 26.125 6.10938
Q29.6875 6.10938 32.6406 7.78125
Q35.5938 9.46875 37.6719 12.8438
Q39.75 16.2188 40.9219 21.2969
Q42.0938 26.375 42.1875 33.2031
Q41.1562 30.9062 39.375 29.0938
Q37.5938 27.2969 35.3281 26.0469
Q33.0625 24.8125 30.4219 24.1406
Q27.7812 23.4844 25.0938 23.4844
Q20.4062 23.4844 16.625 25.1719
Q12.8438 26.8594 10.2031 29.875
Q7.5625 32.9062 6.125 37.1719
Q4.6875 41.4531 4.6875 46.6875
Q4.6875 52 6.21875 56.2969
Q7.76562 60.5938 10.6875 63.5938
Q13.625 66.6094 17.8906 68.2188
Q22.1719 69.8281 27.5938 69.8281
Q39.0625 69.8281 44.9688 61.3281
Q50.875 52.8281 50.875 35.7969
M41.3125 44.2812
Q41.3125 48.0938 40.4062 51.4531
Q39.5 54.8281 37.7188 57.3125
Q35.9375 59.8125 33.3281 61.25
Q30.7188 62.7031 27.2969 62.7031
Q24.125 62.7031 21.5781 61.5781
Q19.0469 60.4531 17.2812 58.375
Q15.5312 56.2969 14.5781 53.3125
Q13.625 50.3438 13.625 46.6875
Q13.625 43.2188 14.4688 40.2344
Q15.3281 37.25 17.0312 35.0781
Q18.75 32.9062 21.2812 31.6562
Q23.8281 30.4219 27.2031 30.4219
Q29.6406 30.4219 32.1562 31.25
Q34.6719 32.0781 36.6875 33.7812
Q38.7188 35.5 40.0156 38.1094
Q41.3125 40.7188 41.3125 44.2812" id="LiberationSans-39"/>
      </defs>
      <g style="fill:#262626;" transform="translate(489.026746875 349.459)scale(0.16 -0.16)">
       <use xlink:href="#LiberationSans-30"/>
       <use x="55.615234375" xlink:href="#LiberationSans-2e"/>
       <use x="83.3984375" xlink:href="#LiberationSans-39"/>
      </g>
     </g>
    </g>
    <g id="xtick_11">
     <g id="line2d_31">
      <path clip-path="url(#pb757030021)" d="
M545.076 330.864
L545.076 28.386" style="fill:none;stroke:#ffffff;stroke-linecap:round;"/>
     </g>
     <g id="line2d_32">
      <g>
       <use style="fill:#262626;stroke:#262626;" x="545.07571875" xlink:href="#m219da94a98" y="330.864"/>
      </g>
     </g>
     <g id="line2d_33">
      <g>
       <use style="fill:#262626;stroke:#262626;" x="545.07571875" xlink:href="#m219da94a98" y="28.386"/>
      </g>
     </g>
     <g id="text_11">
      <!-- 1.0 -->
      <g style="fill:#262626;" transform="translate(534.87821875 349.459)scale(0.16 -0.16)">
       <use xlink:href="#LiberationSans-31"/>
       <use x="55.615234375" xlink:href="#LiberationSans-2e"/>
       <use x="83.3984375" xlink:href="#LiberationSans-30"/>
      </g>
     </g>
    </g>
    <g id="text_12">
     <!-- lwr_placed -->
     <defs>
      <path d="
M40.0938 8.5
Q37.6406 3.42188 33.6094 1.21875
Q29.5938 -0.984375 23.6406 -0.984375
Q13.625 -0.984375 8.90625 5.75
Q4.20312 12.5 4.20312 26.1719
Q4.20312 53.8125 23.6406 53.8125
Q29.6406 53.8125 33.6406 51.6094
Q37.6406 49.4219 40.0938 44.625
L40.1875 44.625
Q40.1875 45.125 40.1562 46.1719
Q40.1406 47.2188 40.1094 48.3594
Q40.0938 49.5156 40.0938 50.5312
Q40.0938 51.5625 40.0938 52
L40.0938 72.4688
L48.875 72.4688
L48.875 10.8906
Q48.875 8.98438 48.8906 7.21875
Q48.9219 5.46875 48.9688 4
Q49.0312 2.54688 49.0781 1.48438
Q49.125 0.4375 49.1719 0
L40.7656 0
Q40.6719 0.484375 40.5938 1.39062
Q40.5312 2.29688 40.4531 3.46875
Q40.375 4.64062 40.3281 5.9375
Q40.2812 7.23438 40.2812 8.5
z

M13.4219 26.4688
Q13.4219 21 14.1094 17.0938
Q14.7969 13.1875 16.3125 10.6719
Q17.8281 8.15625 20.1719 6.98438
Q22.5156 5.8125 25.875 5.8125
Q29.3438 5.8125 32 6.9375
Q34.6719 8.0625 36.4531 10.5781
Q38.2344 13.0938 39.1562 17.1406
Q40.0938 21.1875 40.0938 27.0469
Q40.0938 32.6719 39.1562 36.5469
Q38.2344 40.4375 36.4219 42.8281
Q34.625 45.2188 32 46.2656
Q29.3906 47.3125 25.9844 47.3125
Q22.75 47.3125 20.4062 46.1875
Q18.0625 45.0625 16.5 42.5781
Q14.9375 40.0938 14.1719 36.1094
Q13.4219 32.125 13.4219 26.4688" id="LiberationSans-64"/>
      <path d="
M6.9375 0
L6.9375 40.5312
Q6.9375 42.1875 6.90625 43.9219
Q6.89062 45.6562 6.82812 47.2656
Q6.78125 48.875 6.73438 50.2812
Q6.6875 51.7031 6.64062 52.8281
L14.9375 52.8281
Q14.9844 51.7031 15.0625 50.2656
Q15.1406 48.8281 15.2031 47.3125
Q15.2812 45.7969 15.2969 44.4062
Q15.3281 43.0156 15.3281 42.0469
L15.5312 42.0469
Q16.4531 45.0625 17.5 47.2812
Q18.5625 49.5156 19.9688 50.9531
Q21.3906 52.3906 23.3438 53.0938
Q25.2969 53.8125 28.0781 53.8125
Q29.1562 53.8125 30.125 53.6406
Q31.1094 53.4688 31.6406 53.3281
L31.6406 45.2656
Q30.7656 45.5156 29.5938 45.625
Q28.4219 45.75 26.9531 45.75
Q23.9219 45.75 21.7969 44.375
Q19.6719 43.0156 18.3281 40.5938
Q17 38.1875 16.3594 34.8438
Q15.7188 31.5 15.7188 27.5469
L15.7188 0
z
" id="LiberationSans-72"/>
      <path d="
M51.4219 26.6562
Q51.4219 20.6562 50.4375 15.5781
Q49.4688 10.5 47.1875 6.82812
Q44.9219 3.17188 41.1875 1.09375
Q37.4531 -0.984375 31.9844 -0.984375
Q26.3125 -0.984375 22.0625 1.17188
Q17.8281 3.32812 15.5781 8.20312
L15.3281 8.20312
Q15.375 8.10938 15.4062 7.32812
Q15.4375 6.54688 15.4531 5.375
Q15.4844 4.20312 15.5 2.75
Q15.5312 1.3125 15.5312 -0.09375
L15.5312 -20.75
L6.73438 -20.75
L6.73438 42.0469
Q6.73438 43.9531 6.70312 45.7031
Q6.6875 47.4688 6.64062 48.9062
Q6.59375 50.3438 6.54688 51.3594
Q6.5 52.3906 6.45312 52.8281
L14.9375 52.8281
Q14.9844 52.6875 15.0625 51.7969
Q15.1406 50.9219 15.2031 49.6719
Q15.2812 48.4375 15.3594 47.0156
Q15.4375 45.6094 15.4375 44.3438
L15.625 44.3438
Q16.8438 46.875 18.4062 48.6562
Q19.9688 50.4375 21.9688 51.5781
Q23.9688 52.7344 26.4375 53.25
Q28.9062 53.7656 31.9844 53.7656
Q37.4531 53.7656 41.1875 51.8125
Q44.9219 49.8594 47.1875 46.3125
Q49.4688 42.7812 50.4375 37.7656
Q51.4219 32.7656 51.4219 26.6562
M42.1875 26.4688
Q42.1875 31.3438 41.5938 35.1562
Q41.0156 38.9688 39.5781 41.5938
Q38.1406 44.2344 35.7344 45.5938
Q33.3438 46.9688 29.7344 46.9688
Q26.8125 46.9688 24.2188 46.1406
Q21.625 45.3125 19.7031 42.9688
Q17.7812 40.625 16.6562 36.5
Q15.5312 32.375 15.5312 25.7812
Q15.5312 20.1719 16.4531 16.2812
Q17.3906 12.4062 19.1719 10.0156
Q20.9531 7.625 23.5781 6.5625
Q26.2188 5.51562 29.6406 5.51562
Q33.2969 5.51562 35.7188 6.92188
Q38.1406 8.34375 39.5781 11.0312
Q41.0156 13.7188 41.5938 17.5938
Q42.1875 21.4844 42.1875 26.4688" id="LiberationSans-70"/>
      <path d="
M57.3281 0
L47.125 0
L38.6719 34.0781
Q38.2812 35.4062 37.8594 37.3594
Q37.4531 39.3125 37.0625 41.1562
Q36.5781 43.3125 36.1406 45.6094
Q35.6875 43.4062 35.2031 41.2656
Q34.8125 39.4062 34.3438 37.4062
Q33.8906 35.4062 33.5 33.8906
L24.8125 0
L14.6562 0
L-0.140625 52.8281
L8.54688 52.8281
L17.4844 16.9375
Q17.8281 15.8281 18.1562 14.1875
Q18.5 12.5469 18.8438 10.9844
Q19.1875 9.1875 19.5781 7.28125
Q19.9688 9.125 20.4062 10.8906
Q20.7969 12.4062 21.1875 13.9688
Q21.5781 15.5312 21.875 16.5469
L31.4531 52.8281
L40.875 52.8281
L50.0938 16.5469
Q50.4375 15.2812 50.8281 13.6719
Q51.2188 12.0625 51.5625 10.6406
Q51.9531 8.98438 52.3438 7.28125
Q52.7344 9.125 53.125 10.8906
Q53.4688 12.4062 53.8281 14.0312
Q54.2031 15.6719 54.5469 16.9375
L63.875 52.8281
L72.4688 52.8281
z
" id="LiberationSans-77"/>
      <path d="
M20.2188 -0.984375
Q12.25 -0.984375 8.25 3.21875
Q4.25 7.42188 4.25 14.75
Q4.25 19.9688 6.21875 23.3125
Q8.20312 26.6562 11.3906 28.5625
Q14.5938 30.4688 18.6875 31.2031
Q22.7969 31.9375 27.0469 32.0312
L38.9219 32.2344
L38.9219 35.1094
Q38.9219 38.375 38.2344 40.6719
Q37.5469 42.9688 36.125 44.375
Q34.7188 45.7969 32.5938 46.4531
Q30.4688 47.125 27.5938 47.125
Q25.0469 47.125 23 46.75
Q20.9531 46.3906 19.4375 45.4375
Q17.9219 44.4844 16.9844 42.8438
Q16.0625 41.2188 15.7656 38.7188
L6.59375 39.5469
Q7.07812 42.6719 8.4375 45.2812
Q9.8125 47.9062 12.3281 49.7969
Q14.8438 51.7031 18.625 52.75
Q22.4062 53.8125 27.7812 53.8125
Q37.75 53.8125 42.7656 49.2344
Q47.7969 44.6719 47.7969 36.0312
L47.7969 13.2812
Q47.7969 9.375 48.8281 7.39062
Q49.8594 5.42188 52.7344 5.42188
Q53.4688 5.42188 54.2031 5.51562
Q54.9375 5.60938 55.6094 5.76562
L55.6094 0.296875
Q53.9531 -0.09375 52.3125 -0.28125
Q50.6875 -0.484375 48.8281 -0.484375
Q46.3438 -0.484375 44.5625 0.171875
Q42.7812 0.828125 41.6562 2.17188
Q40.5312 3.51562 39.9375 5.48438
Q39.3594 7.46875 39.2031 10.1094
L38.9219 10.1094
Q37.5 7.5625 35.8125 5.51562
Q34.125 3.46875 31.875 2.03125
Q29.6406 0.59375 26.7812 -0.1875
Q23.9219 -0.984375 20.2188 -0.984375
M22.2188 5.60938
Q26.4219 5.60938 29.5625 7.14062
Q32.7188 8.6875 34.7812 11.0781
Q36.8594 13.4844 37.8906 16.3125
Q38.9219 19.1406 38.9219 21.7344
L38.9219 26.0781
L29.2969 25.875
Q26.0781 25.8281 23.1719 25.4062
Q20.2656 25 18.0625 23.7812
Q15.875 22.5625 14.5781 20.3594
Q13.2812 18.1719 13.2812 14.5938
Q13.2812 10.2969 15.5938 7.95312
Q17.9219 5.60938 22.2188 5.60938" id="LiberationSans-61"/>
      <path d="
M13.4219 26.6562
Q13.4219 22.125 14.0781 18.3125
Q14.75 14.5 16.3125 11.7344
Q17.875 8.98438 20.4375 7.46875
Q23 5.95312 26.7656 5.95312
Q31.4531 5.95312 34.5938 8.48438
Q37.75 11.0312 38.4844 16.3125
L47.3594 15.7188
Q46.9219 12.4531 45.4531 9.42188
Q44 6.39062 41.4844 4.09375
Q38.9688 1.8125 35.3438 0.40625
Q31.7344 -0.984375 27 -0.984375
Q20.7969 -0.984375 16.4531 1.10938
Q12.1094 3.21875 9.39062 6.90625
Q6.6875 10.5938 5.46875 15.5938
Q4.25 20.6094 4.25 26.4688
Q4.25 31.7812 5.125 35.8594
Q6 39.9375 7.59375 42.9844
Q9.1875 46.0469 11.3281 48.125
Q13.4844 50.2031 15.9844 51.4375
Q18.5 52.6875 21.2812 53.25
Q24.0781 53.8125 26.9062 53.8125
Q31.3438 53.8125 34.8125 52.5938
Q38.2812 51.375 40.7969 49.25
Q43.3125 47.125 44.875 44.2344
Q46.4375 41.3594 47.0781 38.0312
L38.0312 37.3594
Q37.3594 41.75 34.5625 44.3281
Q31.7812 46.9219 26.6562 46.9219
Q22.9062 46.9219 20.3906 45.6719
Q17.875 44.4375 16.3125 41.9219
Q14.75 39.4062 14.0781 35.5938
Q13.4219 31.7812 13.4219 26.6562" id="LiberationSans-63"/>
      <path d="
M-1.51562 -19.875
L-1.51562 -13.5312
L56.7344 -13.5312
L56.7344 -19.875
z
" id="LiberationSans-5f"/>
      <path d="
M13.4844 24.5625
Q13.4844 20.4062 14.3281 16.9062
Q15.1875 13.4219 16.9688 10.9062
Q18.75 8.40625 21.5312 7
Q24.3125 5.60938 28.2188 5.60938
Q33.9375 5.60938 37.375 7.90625
Q40.8281 10.2031 42.0469 13.7188
L49.75 11.5312
Q48.9219 9.32812 47.4375 7.10938
Q45.9531 4.89062 43.4531 3.09375
Q40.9688 1.3125 37.2344 0.15625
Q33.5 -0.984375 28.2188 -0.984375
Q16.5 -0.984375 10.375 6
Q4.25 12.9844 4.25 26.7656
Q4.25 34.1875 6.09375 39.3281
Q7.95312 44.4844 11.1719 47.7031
Q14.4062 50.9219 18.7031 52.3594
Q23 53.8125 27.875 53.8125
Q34.5156 53.8125 38.9844 51.6562
Q43.4531 49.5156 46.1562 45.7188
Q48.875 41.9375 50.0156 36.8125
Q51.1719 31.6875 51.1719 25.7344
L51.1719 24.5625
z

M42.0938 31.2969
Q41.3594 39.6562 37.8438 43.4844
Q34.3281 47.3125 27.7344 47.3125
Q25.5312 47.3125 23.1094 46.6094
Q20.7031 45.9062 18.6562 44.0938
Q16.6094 42.2812 15.1875 39.1719
Q13.7656 36.0781 13.5781 31.2969
z
" id="LiberationSans-65"/>
      <path d="
M6.73438 0
L6.73438 72.4688
L15.5312 72.4688
L15.5312 0
z
" id="LiberationSans-6c"/>
     </defs>
     <g style="fill:#262626;" transform="translate(276.069734375 370.5335)scale(0.176 -0.176)">
      <use xlink:href="#LiberationSans-6c"/>
      <use x="22.216796875" xlink:href="#LiberationSans-77"/>
      <use x="94.43359375" xlink:href="#LiberationSans-72"/>
      <use x="127.734375" xlink:href="#LiberationSans-5f"/>
      <use x="183.349609375" xlink:href="#LiberationSans-70"/>
      <use x="238.96484375" xlink:href="#LiberationSans-6c"/>
      <use x="261.181640625" xlink:href="#LiberationSans-61"/>
      <use x="316.796875" xlink:href="#LiberationSans-63"/>
      <use x="366.796875" xlink:href="#LiberationSans-65"/>
      <use x="422.412109375" xlink:href="#LiberationSans-64"/>
     </g>
    </g>
   </g>
   <g id="matplotlib.axis_2">
    <g id="ytick_1">
     <g id="line2d_34">
      <path clip-path="url(#pb757030021)" d="
M88.8735 330.864
L545.076 330.864" style="fill:none;stroke:#ffffff;stroke-linecap:round;"/>
     </g>
     <g id="line2d_35">
      <g>
       <use style="fill:#262626;stroke:#262626;" x="88.8735" xlink:href="#m219da94a98" y="330.864"/>
      </g>
     </g>
     <g id="line2d_36">
      <g>
       <use style="fill:#262626;stroke:#262626;" x="545.07571875" xlink:href="#m219da94a98" y="330.864"/>
      </g>
     </g>
     <g id="text_13">
      <!--   0% -->
      <defs>
       <path id="LiberationSans-20"/>
       <path d="
M85.3594 21.1875
Q85.3594 15.0938 84.1094 10.9062
Q82.8594 6.73438 80.7344 4.17188
Q78.6094 1.60938 75.7812 0.5
Q72.9531 -0.59375 69.7344 -0.59375
Q66.5 -0.59375 63.6875 0.5
Q60.8906 1.60938 58.8125 4.14062
Q56.7344 6.6875 55.5312 10.8594
Q54.3438 15.0469 54.3438 21.1875
Q54.3438 27.6875 55.5156 31.9375
Q56.6875 36.1875 58.7812 38.7031
Q60.8906 41.2188 63.75 42.2188
Q66.6094 43.2188 69.9219 43.2188
Q73.1406 43.2188 75.9531 42.2188
Q78.7656 41.2188 80.8281 38.7031
Q82.9062 36.1875 84.125 31.9375
Q85.3594 27.6875 85.3594 21.1875
M25.7344 0
L18.1719 0
L63.1875 68.7969
L70.8438 68.7969
z

M19.2344 69.3906
Q22.3594 69.3906 25.1406 68.3906
Q27.9375 67.3906 30.0312 64.8906
Q32.125 62.4062 33.3125 58.2031
Q34.5156 54 34.5156 47.6094
Q34.5156 41.4531 33.2969 37.25
Q32.0781 33.0625 30 30.4375
Q27.9375 27.8281 25.0938 26.7031
Q22.2656 25.5938 19.0469 25.5938
Q15.7656 25.5938 12.9375 26.7031
Q10.1094 27.8281 8.03125 30.4219
Q5.95312 33.0156 4.75 37.2031
Q3.5625 41.4062 3.5625 47.6094
Q3.5625 54 4.75 58.2031
Q5.95312 62.4062 8.04688 64.8906
Q10.1562 67.3906 13.0312 68.3906
Q15.9219 69.3906 19.2344 69.3906
M78.125 21.1875
Q78.125 26.0312 77.5781 29.2188
Q77.0469 32.4219 76 34.3281
Q74.9531 36.2344 73.4062 37.0156
Q71.875 37.7969 69.9219 37.7969
Q67.875 37.7969 66.3125 36.9844
Q64.75 36.1875 63.6719 34.2812
Q62.5938 32.375 62.0625 29.1719
Q61.5312 25.9844 61.5312 21.1875
Q61.5312 16.5469 62.0781 13.4219
Q62.6406 10.2969 63.6875 8.375
Q64.75 6.45312 66.2812 5.60938
Q67.8281 4.78125 69.8281 4.78125
Q71.7344 4.78125 73.2656 5.60938
Q74.8125 6.45312 75.875 8.375
Q76.9531 10.2969 77.5312 13.4219
Q78.125 16.5469 78.125 21.1875
M27.3438 47.6094
Q27.3438 52.3906 26.7969 55.5625
Q26.2656 58.7344 25.2344 60.6406
Q24.2188 62.5469 22.7031 63.3281
Q21.1875 64.1094 19.2344 64.1094
Q17.1406 64.1094 15.5469 63.2969
Q13.9688 62.5 12.8906 60.5938
Q11.8125 58.6875 11.2812 55.5156
Q10.75 52.3438 10.75 47.6094
Q10.75 42.9688 11.2969 39.7969
Q11.8594 36.625 12.9062 34.6875
Q13.9688 32.7656 15.5312 31.9375
Q17.0938 31.1094 19.1406 31.1094
Q21 31.1094 22.5156 31.9375
Q24.0312 32.7656 25.0938 34.6875
Q26.1719 36.625 26.75 39.7969
Q27.3438 42.9688 27.3438 47.6094" id="LiberationSans-25"/>
      </defs>
      <g style="fill:#262626;" transform="translate(50.4285 335.0015)scale(0.16 -0.16)">
       <use xlink:href="#LiberationSans-20"/>
       <use x="27.783203125" xlink:href="#LiberationSans-20"/>
       <use x="55.56640625" xlink:href="#LiberationSans-30"/>
       <use x="111.181640625" xlink:href="#LiberationSans-25"/>
      </g>
     </g>
    </g>
    <g id="ytick_2">
     <g id="line2d_37">
      <path clip-path="url(#pb757030021)" d="
M88.8735 270.368
L545.076 270.368" style="fill:none;stroke:#ffffff;stroke-linecap:round;"/>
     </g>
     <g id="line2d_38">
      <g>
       <use style="fill:#262626;stroke:#262626;" x="88.8735" xlink:href="#m219da94a98" y="270.3684"/>
      </g>
     </g>
     <g id="line2d_39">
      <g>
       <use style="fill:#262626;stroke:#262626;" x="545.07571875" xlink:href="#m219da94a98" y="270.3684"/>
      </g>
     </g>
     <g id="text_14">
      <!--  20% -->
      <g style="fill:#262626;" transform="translate(45.976 274.5059)scale(0.16 -0.16)">
       <use xlink:href="#LiberationSans-20"/>
       <use x="27.783203125" xlink:href="#LiberationSans-32"/>
       <use x="83.3984375" xlink:href="#LiberationSans-30"/>
       <use x="139.013671875" xlink:href="#LiberationSans-25"/>
      </g>
     </g>
    </g>
    <g id="ytick_3">
     <g id="line2d_40">
      <path clip-path="url(#pb757030021)" d="
M88.8735 209.873
L545.076 209.873" style="fill:none;stroke:#ffffff;stroke-linecap:round;"/>
     </g>
     <g id="line2d_41">
      <g>
       <use style="fill:#262626;stroke:#262626;" x="88.8735" xlink:href="#m219da94a98" y="209.8728"/>
      </g>
     </g>
     <g id="line2d_42">
      <g>
       <use style="fill:#262626;stroke:#262626;" x="545.07571875" xlink:href="#m219da94a98" y="209.8728"/>
      </g>
     </g>
     <g id="text_15">
      <!--  40% -->
      <g style="fill:#262626;" transform="translate(45.976 214.0103)scale(0.16 -0.16)">
       <use xlink:href="#LiberationSans-20"/>
       <use x="27.783203125" xlink:href="#LiberationSans-34"/>
       <use x="83.3984375" xlink:href="#LiberationSans-30"/>
       <use x="139.013671875" xlink:href="#LiberationSans-25"/>
      </g>
     </g>
    </g>
    <g id="ytick_4">
     <g id="line2d_43">
      <path clip-path="url(#pb757030021)" d="
M88.8735 149.377
L545.076 149.377" style="fill:none;stroke:#ffffff;stroke-linecap:round;"/>
     </g>
     <g id="line2d_44">
      <g>
       <use style="fill:#262626;stroke:#262626;" x="88.8735" xlink:href="#m219da94a98" y="149.3772"/>
      </g>
     </g>
     <g id="line2d_45">
      <g>
       <use style="fill:#262626;stroke:#262626;" x="545.07571875" xlink:href="#m219da94a98" y="149.3772"/>
      </g>
     </g>
     <g id="text_16">
      <!--  60% -->
      <g style="fill:#262626;" transform="translate(45.976 153.5147)scale(0.16 -0.16)">
       <use xlink:href="#LiberationSans-20"/>
       <use x="27.783203125" xlink:href="#LiberationSans-36"/>
       <use x="83.3984375" xlink:href="#LiberationSans-30"/>
       <use x="139.013671875" xlink:href="#LiberationSans-25"/>
      </g>
     </g>
    </g>
    <g id="ytick_5">
     <g id="line2d_46">
      <path clip-path="url(#pb757030021)" d="
M88.8735 88.8816
L545.076 88.8816" style="fill:none;stroke:#ffffff;stroke-linecap:round;"/>
     </g>
     <g id="line2d_47">
      <g>
       <use style="fill:#262626;stroke:#262626;" x="88.8735" xlink:href="#m219da94a98" y="88.8816"/>
      </g>
     </g>
     <g id="line2d_48">
      <g>
       <use style="fill:#262626;stroke:#262626;" x="545.07571875" xlink:href="#m219da94a98" y="88.8816"/>
      </g>
     </g>
     <g id="text_17">
      <!--  80% -->
      <g style="fill:#262626;" transform="translate(45.976 93.0191)scale(0.16 -0.16)">
       <use xlink:href="#LiberationSans-20"/>
       <use x="27.783203125" xlink:href="#LiberationSans-38"/>
       <use x="83.3984375" xlink:href="#LiberationSans-30"/>
       <use x="139.013671875" xlink:href="#LiberationSans-25"/>
      </g>
     </g>
    </g>
    <g id="ytick_6">
     <g id="line2d_49">
      <path clip-path="url(#pb757030021)" d="
M88.8735 28.386
L545.076 28.386" style="fill:none;stroke:#ffffff;stroke-linecap:round;"/>
     </g>
     <g id="line2d_50">
      <g>
       <use style="fill:#262626;stroke:#262626;" x="88.8735" xlink:href="#m219da94a98" y="28.386"/>
      </g>
     </g>
     <g id="line2d_51">
      <g>
       <use style="fill:#262626;stroke:#262626;" x="545.07571875" xlink:href="#m219da94a98" y="28.386"/>
      </g>
     </g>
     <g id="text_18">
      <!-- 100% -->
      <g style="fill:#262626;" transform="translate(42.7435 32.5235)scale(0.16 -0.16)">
       <use xlink:href="#LiberationSans-31"/>
       <use x="55.615234375" xlink:href="#LiberationSans-30"/>
       <use x="111.23046875" xlink:href="#LiberationSans-30"/>
       <use x="166.845703125" xlink:href="#LiberationSans-25"/>
      </g>
     </g>
    </g>
    <g id="text_19">
     <!-- Cumulative Frequency -->
     <defs>
      <path d="
M23.6406 -0.984375
Q13.5781 -0.984375 8.89062 5.79688
Q4.20312 12.5938 4.20312 26.1719
Q4.20312 39.9375 9 46.875
Q13.8125 53.8125 23.6406 53.8125
Q26.9062 53.8125 29.4219 53.2188
Q31.9375 52.6406 33.9062 51.4844
Q35.8906 50.3438 37.375 48.625
Q38.875 46.9219 40.0938 44.625
L40.1875 44.625
Q40.1875 45.8438 40.25 47.3281
Q40.3281 48.8281 40.4062 50.1406
Q40.4844 51.4688 40.5781 52.4219
Q40.6719 53.375 40.7656 53.5156
L49.2188 53.5156
Q49.125 52.6875 49 49.1719
Q48.875 45.6562 48.875 39.1094
L48.875 -20.75
L40.0938 -20.75
L40.0938 0.6875
Q40.0938 1.95312 40.1094 3.3125
Q40.1406 4.6875 40.1875 5.90625
Q40.2344 7.28125 40.2812 8.6875
L40.1875 8.6875
Q38.9219 6.20312 37.375 4.375
Q35.8438 2.54688 33.8438 1.34375
Q31.8438 0.140625 29.3281 -0.421875
Q26.8125 -0.984375 23.6406 -0.984375
M40.0938 27.0469
Q40.0938 32.8125 39.0938 36.7188
Q38.0938 40.625 36.25 42.9688
Q34.4219 45.3125 31.8125 46.3125
Q29.2031 47.3125 25.9844 47.3125
Q22.6094 47.3125 20.2188 46.0625
Q17.8281 44.8281 16.3281 42.2656
Q14.8438 39.7031 14.125 35.7656
Q13.4219 31.8438 13.4219 26.4688
Q13.4219 21.1875 14.0781 17.2812
Q14.75 13.375 16.2344 10.8281
Q17.7188 8.29688 20.0938 7.04688
Q22.4688 5.8125 25.875 5.8125
Q28.8125 5.8125 31.3906 6.71875
Q33.9844 7.625 35.9062 9.98438
Q37.8438 12.3594 38.9688 16.4844
Q40.0938 20.6094 40.0938 27.0469" id="LiberationSans-71"/>
      <path d="
M29.9375 0
L19.5312 0
L0.34375 52.8281
L9.71875 52.8281
L21.3438 18.4531
Q21.6875 17.3906 22.1406 15.8438
Q22.6094 14.3125 23.0938 12.6406
Q23.5781 10.9844 24 9.4375
Q24.4219 7.90625 24.7031 6.89062
Q25 7.90625 25.4531 9.4375
Q25.9219 10.9844 26.4062 12.5938
Q26.9062 14.2031 27.4219 15.7344
Q27.9375 17.2812 28.3281 18.3594
L40.3281 52.8281
L49.6562 52.8281
z
" id="LiberationSans-76"/>
      <path d="
M15.3281 52.8281
L15.3281 19.3438
Q15.3281 15.4844 15.8906 12.8906
Q16.4531 10.2969 17.7188 8.70312
Q19 7.125 21.0625 6.46875
Q23.1406 5.8125 26.2188 5.8125
Q29.3438 5.8125 31.8594 6.90625
Q34.375 8.01562 36.1562 10.0781
Q37.9375 12.1562 38.9062 15.2031
Q39.8906 18.2656 39.8906 22.2188
L39.8906 52.8281
L48.6875 52.8281
L48.6875 11.2812
Q48.6875 9.625 48.7031 7.78125
Q48.7344 5.95312 48.7812 4.3125
Q48.8281 2.6875 48.875 1.51562
Q48.9219 0.34375 48.9688 0
L40.6719 0
Q40.625 0.25 40.5781 1.3125
Q40.5312 2.39062 40.4531 3.78125
Q40.375 5.17188 40.3281 6.60938
Q40.2812 8.0625 40.2812 9.03125
L40.1406 9.03125
Q38.875 6.73438 37.3594 4.875
Q35.8438 3.03125 33.8438 1.73438
Q31.8438 0.4375 29.25 -0.265625
Q26.6562 -0.984375 23.25 -0.984375
Q18.8438 -0.984375 15.6719 0.09375
Q12.5 1.17188 10.4531 3.42188
Q8.40625 5.67188 7.45312 9.1875
Q6.5 12.7031 6.5 17.625
L6.5 52.8281
z
" id="LiberationSans-75"/>
      <path d="
M27.0469 0.390625
Q25.0469 -0.140625 22.9688 -0.453125
Q20.9062 -0.78125 18.1719 -0.78125
Q7.625 -0.78125 7.625 11.1875
L7.625 46.4375
L1.51562 46.4375
L1.51562 52.8281
L7.95312 52.8281
L10.5469 64.6562
L16.4062 64.6562
L16.4062 52.8281
L26.1719 52.8281
L26.1719 46.4375
L16.4062 46.4375
L16.4062 13.0938
Q16.4062 9.28125 17.6406 7.73438
Q18.8906 6.20312 21.9688 6.20312
Q23.25 6.20312 24.4375 6.39062
Q25.6406 6.59375 27.0469 6.89062
z
" id="LiberationSans-74"/>
      <path d="
M29.5 0
Q27.6406 -4.78125 25.7031 -8.60938
Q23.7812 -12.4531 21.3906 -15.1562
Q19 -17.875 16.0625 -19.3125
Q13.1406 -20.75 9.32812 -20.75
Q7.67188 -20.75 6.25 -20.6562
Q4.82812 -20.5625 3.26562 -20.2188
L3.26562 -13.625
Q4.20312 -13.7656 5.375 -13.8438
Q6.54688 -13.9219 7.375 -13.9219
Q11.2344 -13.9219 14.5469 -11.0312
Q17.875 -8.15625 20.3594 -1.85938
L21.1875 0.25
L0.25 52.8281
L9.625 52.8281
L20.75 23.6406
Q21.2344 22.3125 21.9844 20.1094
Q22.75 17.9219 23.5 15.7188
Q24.2656 13.5312 24.8438 11.7656
Q25.4375 10.0156 25.5312 9.57812
Q25.6875 10.1094 26.25 11.6875
Q26.8125 13.2812 27.5156 15.2344
Q28.2188 17.1875 28.9531 19.1875
Q29.6875 21.1875 30.1719 22.6562
L40.5312 52.8281
L49.8125 52.8281
z
" id="LiberationSans-79"/>
      <path d="
M6.6875 64.0625
L6.6875 72.4688
L15.4844 72.4688
L15.4844 64.0625
z

M6.6875 0
L6.6875 52.8281
L15.4844 52.8281
L15.4844 0
z
" id="LiberationSans-69"/>
      <path d="
M37.5 0
L37.5 33.5
Q37.5 37.3594 37.0156 39.9375
Q36.5312 42.5312 35.375 44.1094
Q34.2344 45.7031 32.375 46.3594
Q30.5156 47.0156 27.8281 47.0156
Q25.0469 47.0156 22.7969 45.9219
Q20.5625 44.8281 18.9688 42.75
Q17.3906 40.6719 16.5312 37.625
Q15.6719 34.5781 15.6719 30.6094
L15.6719 0
L6.9375 0
L6.9375 41.5469
Q6.9375 43.2188 6.90625 45.0469
Q6.89062 46.875 6.82812 48.5
Q6.78125 50.1406 6.73438 51.3125
Q6.6875 52.4844 6.64062 52.8281
L14.9375 52.8281
Q14.9844 52.5938 15.0312 51.5156
Q15.0938 50.4375 15.1562 49.0469
Q15.2344 47.6562 15.2812 46.2188
Q15.3281 44.7812 15.3281 43.7969
L15.4844 43.7969
Q16.6562 46.0938 18.0156 47.9531
Q19.3906 49.8125 21.2188 51.0938
Q23.0469 52.3906 25.4062 53.0938
Q27.7812 53.8125 30.9062 53.8125
Q36.9219 53.8125 40.4062 51.4219
Q43.8906 49.0312 45.2656 43.7969
L45.4062 43.7969
Q46.5781 46.0938 48.0469 47.9531
Q49.5156 49.8125 51.4688 51.0938
Q53.4219 52.3906 55.8594 53.0938
Q58.2969 53.8125 61.4219 53.8125
Q65.4375 53.8125 68.3281 52.7344
Q71.2344 51.6562 73.0938 49.4062
Q74.9531 47.1719 75.8281 43.625
Q76.7031 40.0938 76.7031 35.2031
L76.7031 0
L68.0156 0
L68.0156 33.5
Q68.0156 37.3594 67.5312 39.9375
Q67.0469 42.5312 65.8906 44.1094
Q64.75 45.7031 62.8906 46.3594
Q61.0312 47.0156 58.3438 47.0156
Q55.5625 47.0156 53.3125 45.9688
Q51.0781 44.9219 49.4844 42.875
Q47.9062 40.8281 47.0469 37.75
Q46.1875 34.6719 46.1875 30.6094
L46.1875 0
z
" id="LiberationSans-6d"/>
      <path d="
M40.2812 0
L40.2812 33.5
Q40.2812 37.3594 39.7188 39.9375
Q39.1562 42.5312 37.8906 44.1094
Q36.625 45.7031 34.5469 46.3594
Q32.4688 47.0156 29.3906 47.0156
Q26.2656 47.0156 23.75 45.9219
Q21.2344 44.8281 19.4531 42.75
Q17.6719 40.6719 16.6875 37.625
Q15.7188 34.5781 15.7188 30.6094
L15.7188 0
L6.9375 0
L6.9375 41.5469
Q6.9375 43.2188 6.90625 45.0469
Q6.89062 46.875 6.82812 48.5
Q6.78125 50.1406 6.73438 51.3125
Q6.6875 52.4844 6.64062 52.8281
L14.9375 52.8281
Q14.9844 52.5938 15.0312 51.5156
Q15.0938 50.4375 15.1562 49.0469
Q15.2344 47.6562 15.2812 46.2188
Q15.3281 44.7812 15.3281 43.7969
L15.4844 43.7969
Q16.75 46.0938 18.2656 47.9531
Q19.7812 49.8125 21.7812 51.0938
Q23.7812 52.3906 26.3594 53.0938
Q28.9531 53.8125 32.375 53.8125
Q36.7656 53.8125 39.9375 52.7344
Q43.1094 51.6562 45.1562 49.4062
Q47.2188 47.1719 48.1719 43.625
Q49.125 40.0938 49.125 35.2031
L49.125 0
z
" id="LiberationSans-6e"/>
      <path d="
M17.5312 61.1875
L17.5312 35.5938
L55.9062 35.5938
L55.9062 27.875
L17.5312 27.875
L17.5312 0
L8.20312 0
L8.20312 68.7969
L57.0781 68.7969
L57.0781 61.1875
z
" id="LiberationSans-46"/>
      <path d="
M38.6719 62.2031
Q32.8125 62.2031 28.2969 60.25
Q23.7812 58.2969 20.7188 54.6875
Q17.6719 51.0781 16.1094 46
Q14.5469 40.9219 14.5469 34.7188
Q14.5469 28.5156 16.2344 23.3594
Q17.9219 18.2188 21.0625 14.5
Q24.2188 10.7969 28.7812 8.73438
Q33.3438 6.6875 39.0625 6.6875
Q43.0625 6.6875 46.3594 7.73438
Q49.6562 8.79688 52.3125 10.6875
Q54.9844 12.5938 57.0781 15.2031
Q59.1875 17.8281 60.7969 21
L68.4062 17.1875
Q66.5469 13.3281 63.8125 10
Q61.0781 6.6875 57.3906 4.25
Q53.7188 1.8125 49.0469 0.40625
Q44.3906 -0.984375 38.625 -0.984375
Q30.2812 -0.984375 24 1.67188
Q17.7188 4.34375 13.5 9.10938
Q9.28125 13.875 7.17188 20.4062
Q5.07812 26.9531 5.07812 34.7188
Q5.07812 42.7812 7.29688 49.2656
Q9.51562 55.7656 13.7812 60.3281
Q18.0625 64.8906 24.3125 67.3594
Q30.5625 69.8281 38.5781 69.8281
Q49.5625 69.8281 56.9375 65.5312
Q64.3125 61.2344 67.7812 52.7812
L58.9375 49.8594
Q57.9531 52.2969 56.2969 54.5156
Q54.6406 56.7344 52.1406 58.4375
Q49.6562 60.1562 46.3125 61.1719
Q42.9688 62.2031 38.6719 62.2031" id="LiberationSans-43"/>
     </defs>
     <g style="fill:#262626;" transform="translate(34.0915 267.6415)rotate(-90.0)scale(0.176 -0.176)">
      <use xlink:href="#LiberationSans-43"/>
      <use x="72.216796875" xlink:href="#LiberationSans-75"/>
      <use x="127.83203125" xlink:href="#LiberationSans-6d"/>
      <use x="211.1328125" xlink:href="#LiberationSans-75"/>
      <use x="266.748046875" xlink:href="#LiberationSans-6c"/>
      <use x="288.96484375" xlink:href="#LiberationSans-61"/>
      <use x="344.580078125" xlink:href="#LiberationSans-74"/>
      <use x="372.36328125" xlink:href="#LiberationSans-69"/>
      <use x="394.580078125" xlink:href="#LiberationSans-76"/>
      <use x="444.580078125" xlink:href="#LiberationSans-65"/>
      <use x="500.1953125" xlink:href="#LiberationSans-20"/>
      <use x="527.978515625" xlink:href="#LiberationSans-46"/>
      <use x="589.0625" xlink:href="#LiberationSans-72"/>
      <use x="622.36328125" xlink:href="#LiberationSans-65"/>
      <use x="677.978515625" xlink:href="#LiberationSans-71"/>
      <use x="733.59375" xlink:href="#LiberationSans-75"/>
      <use x="789.208984375" xlink:href="#LiberationSans-65"/>
      <use x="844.82421875" xlink:href="#LiberationSans-6e"/>
      <use x="900.439453125" xlink:href="#LiberationSans-63"/>
      <use x="950.439453125" xlink:href="#LiberationSans-79"/>
     </g>
    </g>
   </g>
   <g id="line2d_52">
    <path clip-path="url(#pb757030021)" d="
M128.867 330.864
L139.506 330.399
L139.612 329.468
L141.558 329.003
L153.983 328.537
L154.088 327.141
L154.094 326.676
L154.463 326.21
L155.638 325.745
L158.664 325.28
L174.581 324.814
L175.446 324.349
L178.811 323.884
L179.142 323.418
L179.424 322.488
L180.115 321.092
L180.173 316.438
L180.329 315.507
L180.821 315.042
L181.394 314.111
L185.319 313.646
L195.829 313.181
L198.238 312.715
L200.822 311.785
L201.015 310.854
L202.621 310.389
L203.526 309.923
L207.676 309.458
L219.824 308.993
L224.842 308.062
L231.271 307.596
L231.372 307.131
L232.25 306.666
L235.406 306.2
L237.092 304.804
L237.408 304.339
L239.225 302.943
L239.301 302.478
L240.087 301.547
L240.378 301.082
L240.412 300.616
L240.61 300.151
L240.883 296.893
L240.956 295.497
L241.081 290.378
L241.423 289.448
L242.193 288.982
L242.785 287.586
L244.145 286.656
L245.147 286.19
L245.468 285.725
L248.559 285.26
L249.262 284.794
L251.101 284.329
L251.845 283.864
L257.174 283.398
L258.024 282.933
L258.396 282.468
L258.5 282.002
L262.274 281.537
L273.02 280.606
L273.576 280.141
L277.213 279.21
L278.496 278.279
L279.531 277.814
L280.265 276.883
L282.112 276.418
L294.66 275.953
L295.591 275.487
L296.244 275.022
L296.467 274.557
L303.539 274.091
L303.604 273.626
L303.864 273.161
L304.731 272.695
L308.513 272.23
L309.974 271.764
L314.439 271.299
L320.564 270.834
L329.811 269.903
L330.108 269.438
L332.513 268.507
L332.689 268.042
L335.339 267.576
L335.435 267.111
L337.139 266.646
L338.185 265.715
L342.173 264.784
L346.118 264.319
L347.479 263.853
L349.447 263.388
L354.7 262.923
L355.759 262.457
L356.114 261.992
L356.85 261.527
L362.106 261.061
L362.628 260.596
L368.613 259.665
L369.818 259.2
L371.961 258.735
L378.804 258.269
L380.368 257.804
L381.264 257.339
L383.134 256.873
L383.382 256.408
L384.123 255.943
L384.654 255.477
L386.842 254.546
L387.95 254.081
L389.357 253.15
L395.552 252.685
L396.164 252.22
L397.463 251.754
L405.573 250.824
L406.915 250.358
L409.758 249.893
L414.947 249.428
L415.473 248.962
L417.787 248.497
L418.132 248.032
L418.822 247.566
L419.231 247.101
L421.846 246.636
L422.615 246.17
L426.642 245.705
L427.173 245.239
L427.222 244.774
L427.742 244.309
L428.89 243.843
L431.148 243.378
L432.287 242.913
L433.043 241.982
L435.932 241.517
L437.226 241.051
L437.714 240.586
L437.728 240.121
L438.683 239.655
L440.686 239.19
L440.934 238.725
L443.032 237.794
L445.401 237.328
L449.219 236.863
L451.166 235.932
L451.185 235.467
L452.202 234.536
L452.848 234.071
L453.716 233.606
L455.484 233.14
L456.069 232.675
L460.011 231.279
L464.658 230.814
L465.151 230.348
L467.375 229.883
L467.745 229.418
L467.882 228.952
L468.395 228.487
L469.314 228.021
L469.447 227.556
L470.757 226.16
L472.692 225.695
L472.939 224.764
L473.321 224.299
L476.472 223.833
L476.998 223.368
L478.525 222.903
L478.701 221.972
L478.791 221.507
L480.685 221.041
L481.162 220.576
L481.883 220.111
L481.913 219.645
L486.382 219.18
L486.496 218.714
L487.397 217.784
L488.768 217.318
L489.087 216.853
L491.517 216.388
L494.565 215.457
L494.685 214.526
L496.308 214.061
L496.544 213.596
L496.599 213.13
L497.008 212.665
L497.035 212.2
L497.196 211.734
L498.07 211.269
L498.14 210.804
L498.848 209.873
L500.074 209.407
L500.214 208.942
L502.633 208.011
L503.677 207.546
L504.258 207.081
L505.085 206.615
L505.176 206.15
L506.479 205.685
L507.206 204.289
L507.591 203.823
L509.154 203.358
L511.427 202.427
L511.808 201.496
L512.35 201.031
L512.512 200.566
L512.521 200.1
L513.66 199.635
L513.716 199.17
L514.845 198.239
L515.174 197.774
L515.243 197.308
L515.756 196.378
L516.843 195.912
L516.925 195.447
L517.18 194.982
L517.207 194.516
L517.562 193.586
L519.194 193.12
L519.999 191.724
L522.251 191.259
L522.345 190.328
L522.674 189.397
L522.721 188.932
L522.886 188.467
L524.164 188.001
L524.923 187.536
L525.152 186.605
L525.694 185.209
L526.959 184.744
L527.222 184.279
L527.626 183.813
L530.035 183.348
L530.154 182.882
L530.411 182.417
L531.286 181.952
L531.648 181.486
L532.687 181.021
L532.757 180.556
L533.771 180.09
L533.787 179.625
L535.351 178.694
L535.474 178.229
L536.89 177.764
L537.636 175.902
L538.125 173.575
L538.131 173.11
L538.517 172.645
L538.714 171.714
L539.397 170.318
L539.498 169.853
L540.123 168.457
L540.302 167.526
L540.377 166.595
L540.52 165.199
L540.703 164.734
L540.741 164.268
L540.951 163.803
L541.024 162.872
L541.381 162.407
L541.74 161.476
L542.106 161.011
L542.412 160.08
L542.503 159.15
L542.628 158.219
L542.684 157.288
L543.01 156.823
L543.082 154.961
L543.503 152.635
L543.587 150.308
L543.697 148.446
L543.765 146.585
L544.002 145.189
L544.941 129.367
L545.047 118.664
L545.076 47.4654
L545.076 28.8514
L545.076 28.8514" style="fill:none;stroke:#4c72b0;stroke-linecap:round;stroke-width:1.75;"/>
   </g>
   <g id="line2d_53">
    <path clip-path="url(#pb757030021)" d="
M88.9725 330.864
L88.9725 330.399
L89.0017 329.933
L94.6504 329.468
L94.8429 329.003
L102.558 328.537
L102.559 328.072
L105.351 327.607
L109.266 327.141
L111.856 326.676
L112.923 326.21
L116.815 324.814
L118.942 324.349
L121.919 323.884
L123.489 323.418
L123.564 322.953
L128.831 322.488
L129.041 322.022
L130.344 321.557
L130.393 320.161
L134.215 319.696
L134.357 319.23
L135.311 318.765
L137.829 318.3
L138.512 317.834
L139.407 317.369
L139.532 316.903
L139.594 314.577
L139.693 314.111
L139.968 313.646
L139.984 313.181
L142.083 312.715
L142.696 310.854
L144.451 310.389
L147.124 309.923
L152.347 309.458
L152.779 308.993
L152.938 308.527
L153.667 308.062
L153.938 307.131
L154.206 303.874
L154.272 303.408
L155.332 301.547
L156.072 301.082
L158.142 300.616
L159.333 300.151
L159.559 299.685
L160.347 299.22
L162.403 298.755
L171.845 298.289
L173.935 297.359
L176.128 296.893
L177.012 295.497
L178.615 294.567
L179.17 294.101
L179.651 293.171
L179.656 292.705
L179.866 292.24
L180.173 285.26
L180.258 283.398
L180.345 282.933
L180.618 282.468
L180.666 282.002
L181.023 281.537
L189.383 280.606
L197.781 280.141
L202 279.675
L202.674 279.21
L207.206 278.745
L207.689 278.279
L212.472 277.814
L214.31 277.349
L215.021 276.883
L215.212 276.418
L216.742 275.953
L216.743 275.487
L218.952 275.022
L220.351 274.557
L224.77 274.091
L226.15 273.626
L226.403 273.161
L227.136 272.695
L227.295 272.23
L228.684 271.299
L229.741 270.834
L230.402 270.368
L232.004 269.903
L232.45 269.438
L232.522 268.972
L233.251 268.507
L234.624 267.111
L234.862 266.646
L234.862 266.18
L236.572 265.715
L236.933 265.25
L237.169 264.319
L238.314 263.853
L238.806 262.923
L238.893 262.457
L239.141 261.992
L239.248 261.527
L239.488 261.061
L239.668 259.2
L239.984 258.269
L240.438 257.804
L240.607 255.943
L240.752 255.477
L240.899 253.15
L240.957 251.754
L241.183 244.309
L241.876 243.378
L241.903 242.913
L242.302 242.447
L243.609 241.517
L244.429 241.051
L244.797 240.586
L245.885 240.121
L246.227 239.655
L248.213 239.19
L248.341 238.725
L251.326 238.259
L251.876 237.794
L251.934 237.328
L253.753 236.863
L254.755 236.398
L256.177 235.932
L261.093 235.467
L261.928 235.002
L261.934 234.536
L264.086 234.071
L264.515 233.606
L265.822 233.14
L270.68 232.675
L271.587 232.21
L272.195 231.744
L274.817 231.279
L276.112 230.814
L278.529 230.348
L282.094 229.418
L282.945 228.952
L283.353 228.487
L285.997 228.021
L286.863 227.556
L292.122 226.16
L292.706 225.695
L294.809 224.764
L295.028 224.299
L297.487 223.833
L297.543 223.368
L298.055 222.903
L298.774 221.972
L299.222 221.507
L300.893 221.041
L301.41 220.576
L302.215 220.111
L302.823 219.18
L303.623 218.714
L306.573 217.784
L306.68 217.318
L307.122 216.853
L307.882 216.388
L310.478 215.922
L312.002 215.457
L312.571 214.992
L313.942 214.526
L315.708 214.061
L316.404 213.596
L316.509 213.13
L317.443 212.665
L325.901 212.2
L327.392 211.734
L327.433 211.269
L330.884 210.804
L333.855 209.873
L334.122 209.407
L334.138 208.942
L335.966 208.011
L337.887 207.081
L338.32 206.615
L339.372 206.15
L339.641 205.685
L342.666 205.219
L343.157 204.754
L346.069 204.289
L350.784 203.823
L351.29 203.358
L352.268 202.893
L352.784 202.427
L355.411 201.962
L359.196 201.496
L359.77 201.031
L361.646 200.566
L361.727 200.1
L362.017 199.635
L362.485 199.17
L363.124 198.704
L365.6 198.239
L366.232 197.774
L370.792 197.308
L371.796 196.843
L371.874 195.912
L373.94 195.447
L374.24 194.982
L374.712 194.516
L374.914 194.051
L375.629 193.586
L375.696 193.12
L377.572 192.655
L380.993 192.189
L381.383 191.724
L384.703 190.328
L387.038 189.863
L389.774 188.932
L390.727 188.001
L391.978 187.071
L392.339 186.14
L393.549 185.209
L394.165 184.744
L396.676 184.279
L397.142 183.813
L398.582 183.348
L398.898 182.882
L399.593 182.417
L401.561 181.952
L402.473 181.486
L402.579 180.556
L404.191 180.09
L404.536 179.625
L406.206 179.16
L406.815 178.694
L410.683 178.229
L414.28 177.298
L414.848 176.833
L416.058 176.368
L416.886 175.902
L422.397 174.971
L423.494 174.506
L426.527 174.041
L427.011 173.575
L428.017 173.11
L429.548 172.645
L429.617 172.179
L430.825 171.714
L430.961 171.249
L432.458 170.783
L433.572 170.318
L435.776 169.853
L436.673 169.387
L437.034 168.457
L437.882 167.991
L438.472 167.526
L441.17 167.061
L441.63 166.595
L442.511 166.13
L442.933 165.664
L442.953 165.199
L443.647 164.268
L447.444 163.803
L447.469 163.338
L447.929 162.872
L448.709 162.407
L450.305 161.942
L457.561 161.011
L459.685 160.546
L460.465 160.08
L462.449 159.615
L462.625 159.15
L465.694 157.754
L465.902 157.288
L467.361 156.823
L467.54 155.427
L469.981 154.961
L470.07 154.496
L473.395 154.031
L474.163 153.565
L475.987 153.1
L479.358 152.635
L480.57 152.169
L482.234 151.704
L486.07 151.239
L486.201 150.773
L486.573 150.308
L487.283 149.843
L490.335 149.377
L491.916 148.912
L495.694 148.446
L497.762 147.516
L497.859 147.05
L499.957 146.12
L500.083 145.654
L500.776 145.189
L502.491 144.724
L502.632 144.258
L503.529 143.793
L503.811 143.328
L504.359 142.862
L506.552 142.397
L511.381 141.932
L511.663 141.466
L511.695 141.001
L513.529 140.536
L513.951 139.605
L514.131 139.139
L515.918 138.209
L517.109 137.743
L518.696 137.278
L519.175 136.813
L520.099 136.347
L520.245 135.417
L521.974 134.951
L522.56 134.486
L522.64 133.555
L523.165 133.09
L523.352 132.625
L523.379 132.159
L524.676 131.229
L524.739 130.763
L526.526 130.298
L527.251 129.832
L529.734 129.367
L529.969 128.902
L530.732 127.971
L531.054 127.04
L531.542 126.575
L531.7 126.11
L531.739 125.644
L533.446 125.179
L533.725 124.714
L534.261 124.248
L534.468 123.783
L535.286 123.318
L535.534 122.852
L535.898 121.456
L536.214 120.991
L536.366 120.06
L536.74 119.595
L536.919 119.129
L537.543 118.664
L537.728 118.199
L538.729 116.803
L538.873 116.337
L538.995 115.407
L539.126 114.941
L540.054 113.545
L540.559 112.149
L540.617 111.218
L540.885 110.288
L541.315 109.822
L541.44 108.892
L541.608 108.426
L541.729 107.496
L542.067 107.03
L542.13 106.565
L542.863 104.704
L542.932 103.773
L543.182 103.307
L543.237 102.377
L543.819 98.1886
L543.925 96.3272
L544.295 92.1391
L544.508 91.6737
L544.668 88.4162
L545.036 76.7825
L545.076 46.0693
L545.076 28.8514
L545.076 28.8514" style="fill:none;stroke:#55a868;stroke-linecap:round;stroke-width:1.75;"/>
   </g>
   <g id="patch_3">
    <path d="
M88.8735 28.386
L545.076 28.386" style="fill:none;"/>
   </g>
   <g id="patch_4">
    <path d="
M545.076 330.864
L545.076 28.386" style="fill:none;"/>
   </g>
   <g id="patch_5">
    <path d="
M88.8735 330.864
L545.076 330.864" style="fill:none;"/>
   </g>
   <g id="patch_6">
    <path d="
M88.8735 330.864
L88.8735 28.386" style="fill:none;"/>
   </g>
   <g id="legend_1">
    <g id="line2d_54">
     <path d="
M457.736 284.629
L489.736 284.629" style="fill:none;stroke:#4c72b0;stroke-linecap:round;stroke-width:1.75;"/>
    </g>
    <g id="line2d_55"/>
    <g id="text_20">
     <!-- long -->
     <defs>
      <path d="
M51.4219 26.4688
Q51.4219 12.5938 45.3125 5.79688
Q39.2031 -0.984375 27.5938 -0.984375
Q22.0781 -0.984375 17.7188 0.671875
Q13.375 2.34375 10.375 5.76562
Q7.375 9.1875 5.78125 14.3281
Q4.20312 19.4844 4.20312 26.4688
Q4.20312 53.8125 27.875 53.8125
Q34.0312 53.8125 38.5 52.0938
Q42.9688 50.3906 45.8281 46.9688
Q48.6875 43.5625 50.0469 38.4219
Q51.4219 33.2969 51.4219 26.4688
M42.1875 26.4688
Q42.1875 32.625 41.2344 36.625
Q40.2812 40.625 38.4531 43.0156
Q36.625 45.4062 33.9844 46.3594
Q31.3438 47.3125 28.0312 47.3125
Q24.6562 47.3125 21.9375 46.3125
Q19.2344 45.3125 17.3281 42.8906
Q15.4375 40.4844 14.4219 36.4688
Q13.4219 32.4688 13.4219 26.4688
Q13.4219 20.3125 14.5 16.2812
Q15.5781 12.25 17.4531 9.85938
Q19.3438 7.46875 21.9062 6.48438
Q24.4688 5.51562 27.4844 5.51562
Q30.8594 5.51562 33.5938 6.46875
Q36.3281 7.42188 38.2344 9.8125
Q40.1406 12.2031 41.1562 16.25
Q42.1875 20.3125 42.1875 26.4688" id="LiberationSans-6f"/>
      <path d="
M26.7656 -20.75
Q22.2188 -20.75 18.7031 -19.8125
Q15.1875 -18.8906 12.6875 -17.1562
Q10.2031 -15.4375 8.64062 -13.0312
Q7.07812 -10.6406 6.39062 -7.71875
L15.2344 -6.45312
Q16.1094 -10.1094 19.1094 -12.0781
Q22.125 -14.0625 27 -14.0625
Q29.9844 -14.0625 32.4219 -13.2344
Q34.8594 -12.4062 36.5625 -10.5625
Q38.2812 -8.73438 39.2031 -5.79688
Q40.1406 -2.875 40.1406 1.3125
L40.1406 9.8125
L40.0469 9.8125
Q39.0625 7.8125 37.625 5.98438
Q36.1875 4.15625 34.1094 2.73438
Q32.0312 1.3125 29.2969 0.453125
Q26.5625 -0.390625 23.0469 -0.390625
Q18.0156 -0.390625 14.4219 1.29688
Q10.8438 2.98438 8.5625 6.34375
Q6.29688 9.71875 5.25 14.7188
Q4.20312 19.7344 4.20312 26.3125
Q4.20312 32.6719 5.25 37.75
Q6.29688 42.8281 8.65625 46.3594
Q11.0312 49.9062 14.8125 51.7812
Q18.6094 53.6562 24.0312 53.6562
Q29.6406 53.6562 33.7656 51.0938
Q37.8906 48.5312 40.1406 43.7969
L40.2344 43.7969
Q40.2344 45.0156 40.2969 46.5312
Q40.375 48.0469 40.4531 49.3906
Q40.5312 50.7344 40.625 51.7031
Q40.7188 52.6875 40.8281 52.8281
L49.1719 52.8281
Q49.125 52.3906 49.0781 51.3438
Q49.0312 50.2969 48.9688 48.8281
Q48.9219 47.3594 48.8906 45.5781
Q48.875 43.7969 48.875 41.8906
L48.875 1.51562
Q48.875 -9.57812 43.4219 -15.1562
Q37.9844 -20.75 26.7656 -20.75
M40.1406 26.4219
Q40.1406 31.9375 38.9375 35.8594
Q37.75 39.7969 35.7969 42.2812
Q33.8438 44.7812 31.3281 45.9531
Q28.8125 47.125 26.1719 47.125
Q22.7969 47.125 20.375 45.9531
Q17.9688 44.7812 16.375 42.2656
Q14.7969 39.75 14.0312 35.8125
Q13.2812 31.8906 13.2812 26.4219
Q13.2812 20.7031 14.0312 16.8125
Q14.7969 12.9375 16.3594 10.5469
Q17.9219 8.15625 20.3125 7.125
Q22.7031 6.10938 26.0312 6.10938
Q28.6562 6.10938 31.1719 7.21875
Q33.6875 8.34375 35.6875 10.7812
Q37.7031 13.2344 38.9219 17.0938
Q40.1406 20.9531 40.1406 26.4219" id="LiberationSans-67"/>
     </defs>
     <g style="fill:#262626;" transform="translate(502.53571875 290.229)scale(0.16 -0.16)">
      <use xlink:href="#LiberationSans-6c"/>
      <use x="22.216796875" xlink:href="#LiberationSans-6f"/>
      <use x="77.83203125" xlink:href="#LiberationSans-6e"/>
      <use x="133.447265625" xlink:href="#LiberationSans-67"/>
     </g>
    </g>
    <g id="line2d_56">
     <path d="
M457.736 307.544
L489.736 307.544" style="fill:none;stroke:#55a868;stroke-linecap:round;stroke-width:1.75;"/>
    </g>
    <g id="line2d_57"/>
    <g id="text_21">
     <!-- V4 -->
     <defs>
      <path d="
M38.1875 0
L28.5156 0
L0.4375 68.7969
L10.25 68.7969
L29.2969 20.3594
Q30.0312 18.1719 30.7656 15.9844
Q31.5 13.8125 32.0781 12.1094
Q32.7656 10.1094 33.4062 8.20312
Q33.9844 10.0156 34.6719 12.0156
Q35.25 13.7188 35.9531 15.8594
Q36.6719 18.0156 37.5 20.3594
L56.4531 68.7969
L66.2656 68.7969
z
" id="LiberationSans-56"/>
     </defs>
     <g style="fill:#262626;" transform="translate(502.53571875 313.144)scale(0.16 -0.16)">
      <use xlink:href="#LiberationSans-56"/>
      <use x="66.69921875" xlink:href="#LiberationSans-34"/>
     </g>
    </g>
   </g>
  </g>
 </g>
 <defs>
  <clipPath id="pb757030021">
   <rect height="302.478" width="456.20221875" x="88.8735" y="28.386"/>
  </clipPath>
 </defs>
</svg>
