<?xml version="1.0" encoding="UTF-8"?>
<!DOCTYPE svg PUBLIC "-//W3C//DTD SVG 1.1//EN" "http://www.w3.org/Graphics/SVG/1.1/DTD/svg11.dtd">
<svg width="160mm" height="90mm" viewBox="0 0 16000 9000" version="1.1" xmlns="http://www.w3.org/2000/svg" stroke-width="28.222" stroke-linejoin="round" xml:space="preserve">
 <path fill="rgb(255,255,255)" stroke="none" d="M 8000,8999 L 0,8999 0,19 15999,19 15999,8999 8000,8999 Z"/>
 <path fill="none" stroke="rgb(179,179,179)" stroke-linejoin="round" d="M 8160,6085 L 2138,6085 2138,199 14183,199 14183,6085 8160,6085 Z"/>
 <path fill="none" stroke="rgb(179,179,179)" stroke-linejoin="round" d="M 14183,6084 L 2138,6084"/>
 <path fill="none" stroke="rgb(179,179,179)" stroke-linejoin="round" d="M 14183,5103 L 2138,5103"/>
 <path fill="none" stroke="rgb(179,179,179)" stroke-linejoin="round" d="M 14183,4122 L 2138,4122"/>
 <path fill="none" stroke="rgb(179,179,179)" stroke-linejoin="round" d="M 14183,3141 L 2138,3141"/>
 <path fill="none" stroke="rgb(179,179,179)" stroke-linejoin="round" d="M 14183,2159 L 2138,2159"/>
 <path fill="none" stroke="rgb(179,179,179)" stroke-linejoin="round" d="M 14183,1178 L 2138,1178"/>
 <path fill="none" stroke="rgb(179,179,179)" stroke-linejoin="round" d="M 14183,198 L 2138,198"/>
 <path fill="none" stroke="rgb(179,179,179)" stroke-linejoin="round" d="M 2138,6234 L 2138,6084"/>
 <path fill="none" stroke="rgb(179,179,179)" stroke-linejoin="round" d="M 2138,6234 L 2138,6084"/>
 <path fill="none" stroke="rgb(179,179,179)" stroke-linejoin="round" d="M 2740,6234 L 2740,6084"/>
 <path fill="none" stroke="rgb(179,179,179)" stroke-linejoin="round" d="M 2740,6234 L 2740,6084"/>
 <path fill="none" stroke="rgb(179,179,179)" stroke-linejoin="round" d="M 3342,6234 L 3342,6084"/>
 <path fill="none" stroke="rgb(179,179,179)" stroke-linejoin="round" d="M 3342,6234 L 3342,6084"/>
 <path fill="none" stroke="rgb(179,179,179)" stroke-linejoin="round" d="M 3944,6234 L 3944,6084"/>
 <path fill="none" stroke="rgb(179,179,179)" stroke-linejoin="round" d="M 3944,6234 L 3944,6084"/>
 <path fill="none" stroke="rgb(179,179,179)" stroke-linejoin="round" d="M 4547,6234 L 4547,6084"/>
 <path fill="none" stroke="rgb(179,179,179)" stroke-linejoin="round" d="M 4547,6234 L 4547,6084"/>
 <path fill="none" stroke="rgb(179,179,179)" stroke-linejoin="round" d="M 5149,6234 L 5149,6084"/>
 <path fill="none" stroke="rgb(179,179,179)" stroke-linejoin="round" d="M 5149,6234 L 5149,6084"/>
 <path fill="none" stroke="rgb(179,179,179)" stroke-linejoin="round" d="M 5751,6234 L 5751,6084"/>
 <path fill="none" stroke="rgb(179,179,179)" stroke-linejoin="round" d="M 5751,6234 L 5751,6084"/>
 <path fill="none" stroke="rgb(179,179,179)" stroke-linejoin="round" d="M 6354,6234 L 6354,6084"/>
 <path fill="none" stroke="rgb(179,179,179)" stroke-linejoin="round" d="M 6354,6234 L 6354,6084"/>
 <path fill="none" stroke="rgb(179,179,179)" stroke-linejoin="round" d="M 6956,6234 L 6956,6084"/>
 <path fill="none" stroke="rgb(179,179,179)" stroke-linejoin="round" d="M 6956,6234 L 6956,6084"/>
 <path fill="none" stroke="rgb(179,179,179)" stroke-linejoin="round" d="M 7558,6234 L 7558,6084"/>
 <path fill="none" stroke="rgb(179,179,179)" stroke-linejoin="round" d="M 7558,6234 L 7558,6084"/>
 <path fill="none" stroke="rgb(179,179,179)" stroke-linejoin="round" d="M 8160,6234 L 8160,6084"/>
 <path fill="none" stroke="rgb(179,179,179)" stroke-linejoin="round" d="M 8160,6234 L 8160,6084"/>
 <path fill="none" stroke="rgb(179,179,179)" stroke-linejoin="round" d="M 8762,6234 L 8762,6084"/>
 <path fill="none" stroke="rgb(179,179,179)" stroke-linejoin="round" d="M 8762,6234 L 8762,6084"/>
 <path fill="none" stroke="rgb(179,179,179)" stroke-linejoin="round" d="M 9364,6234 L 9364,6084"/>
 <path fill="none" stroke="rgb(179,179,179)" stroke-linejoin="round" d="M 9364,6234 L 9364,6084"/>
 <path fill="none" stroke="rgb(179,179,179)" stroke-linejoin="round" d="M 9966,6234 L 9966,6084"/>
 <path fill="none" stroke="rgb(179,179,179)" stroke-linejoin="round" d="M 9966,6234 L 9966,6084"/>
 <path fill="none" stroke="rgb(179,179,179)" stroke-linejoin="round" d="M 10569,6234 L 10569,6084"/>
 <path fill="none" stroke="rgb(179,179,179)" stroke-linejoin="round" d="M 10569,6234 L 10569,6084"/>
 <path fill="none" stroke="rgb(179,179,179)" stroke-linejoin="round" d="M 11171,6234 L 11171,6084"/>
 <path fill="none" stroke="rgb(179,179,179)" stroke-linejoin="round" d="M 11171,6234 L 11171,6084"/>
 <path fill="none" stroke="rgb(179,179,179)" stroke-linejoin="round" d="M 11773,6234 L 11773,6084"/>
 <path fill="none" stroke="rgb(179,179,179)" stroke-linejoin="round" d="M 11773,6234 L 11773,6084"/>
 <path fill="none" stroke="rgb(179,179,179)" stroke-linejoin="round" d="M 12376,6234 L 12376,6084"/>
 <path fill="none" stroke="rgb(179,179,179)" stroke-linejoin="round" d="M 12376,6234 L 12376,6084"/>
 <path fill="none" stroke="rgb(179,179,179)" stroke-linejoin="round" d="M 12978,6234 L 12978,6084"/>
 <path fill="none" stroke="rgb(179,179,179)" stroke-linejoin="round" d="M 12978,6234 L 12978,6084"/>
 <path fill="none" stroke="rgb(179,179,179)" stroke-linejoin="round" d="M 13580,6234 L 13580,6084"/>
 <path fill="none" stroke="rgb(179,179,179)" stroke-linejoin="round" d="M 13580,6234 L 13580,6084"/>
 <path fill="none" stroke="rgb(179,179,179)" stroke-linejoin="round" d="M 14183,6234 L 14183,6084"/>
 <path fill="none" stroke="rgb(179,179,179)" stroke-linejoin="round" d="M 14183,6234 L 14183,6084"/>
 <path fill="none" stroke="rgb(179,179,179)" stroke-linejoin="round" d="M 2138,6084 L 14183,6084"/>
 <path fill="none" stroke="rgb(179,179,179)" stroke-linejoin="round" d="M 1988,6084 L 2138,6084"/>
 <path fill="none" stroke="rgb(179,179,179)" stroke-linejoin="round" d="M 1988,6084 L 2138,6084"/>
 <path fill="none" stroke="rgb(179,179,179)" stroke-linejoin="round" d="M 1988,5103 L 2138,5103"/>
 <path fill="none" stroke="rgb(179,179,179)" stroke-linejoin="round" d="M 1988,5103 L 2138,5103"/>
 <path fill="none" stroke="rgb(179,179,179)" stroke-linejoin="round" d="M 1988,4122 L 2138,4122"/>
 <path fill="none" stroke="rgb(179,179,179)" stroke-linejoin="round" d="M 1988,4122 L 2138,4122"/>
 <path fill="none" stroke="rgb(179,179,179)" stroke-linejoin="round" d="M 1988,3141 L 2138,3141"/>
 <path fill="none" stroke="rgb(179,179,179)" stroke-linejoin="round" d="M 1988,3141 L 2138,3141"/>
 <path fill="none" stroke="rgb(179,179,179)" stroke-linejoin="round" d="M 1988,2159 L 2138,2159"/>
 <path fill="none" stroke="rgb(179,179,179)" stroke-linejoin="round" d="M 1988,2159 L 2138,2159"/>
 <path fill="none" stroke="rgb(179,179,179)" stroke-linejoin="round" d="M 1988,1178 L 2138,1178"/>
 <path fill="none" stroke="rgb(179,179,179)" stroke-linejoin="round" d="M 1988,1178 L 2138,1178"/>
 <path fill="none" stroke="rgb(179,179,179)" stroke-linejoin="round" d="M 1988,198 L 2138,198"/>
 <path fill="none" stroke="rgb(179,179,179)" stroke-linejoin="round" d="M 1988,198 L 2138,198"/>
 <path fill="none" stroke="rgb(179,179,179)" stroke-linejoin="round" d="M 2138,6084 L 2138,198"/>
 <path fill="rgb(0,69,134)" stroke="none" d="M 13681,6084 L 13881,6084 13881,6026 13681,6026 13681,6084 Z"/>
 <path fill="rgb(0,69,134)" stroke="none" d="M 13078,6084 L 13279,6084 13279,6074 13078,6074 13078,6084 Z"/>
 <path fill="rgb(0,69,134)" stroke="none" d="M 12476,6084 L 12677,6084 12677,6074 12476,6074 12476,6084 Z"/>
 <path fill="rgb(0,69,134)" stroke="none" d="M 11874,6084 L 12074,6084 12074,6065 11874,6065 11874,6084 Z"/>
 <path fill="rgb(0,69,134)" stroke="none" d="M 11271,6084 L 11472,6084 11472,6074 11271,6074 11271,6084 Z"/>
 <path fill="rgb(0,69,134)" stroke="none" d="M 10669,6084 L 10870,6084 10870,6074 10669,6074 10669,6084 Z"/>
 <path fill="rgb(0,69,134)" stroke="none" d="M 9464,6084 L 9665,6084 9665,6065 9464,6065 9464,6084 Z"/>
 <path fill="rgb(0,69,134)" stroke="none" d="M 8862,6084 L 9063,6084 9063,6065 8862,6065 8862,6084 Z"/>
 <path fill="rgb(0,69,134)" stroke="none" d="M 8260,6084 L 8461,6084 8461,6026 8260,6026 8260,6084 Z"/>
 <path fill="rgb(0,69,134)" stroke="none" d="M 7056,6084 L 7257,6084 7257,6074 7056,6074 7056,6084 Z"/>
 <path fill="rgb(0,69,134)" stroke="none" d="M 6454,6084 L 6655,6084 6655,6045 6454,6045 6454,6084 Z"/>
 <path fill="rgb(0,69,134)" stroke="none" d="M 5852,6084 L 6052,6084 6052,6035 5852,6035 5852,6084 Z"/>
 <path fill="rgb(0,69,134)" stroke="none" d="M 5249,6084 L 5450,6084 5450,6045 5249,6045 5249,6084 Z"/>
 <path fill="rgb(0,69,134)" stroke="none" d="M 4647,6084 L 4848,6084 4848,5996 4647,5996 4647,6084 Z"/>
 <path fill="rgb(0,69,134)" stroke="none" d="M 4045,6084 L 4246,6084 4246,5917 4045,5917 4045,6084 Z"/>
 <path fill="rgb(0,69,134)" stroke="none" d="M 3442,6084 L 3643,6084 3643,5819 3442,5819 3442,6084 Z"/>
 <path fill="rgb(0,69,134)" stroke="none" d="M 2840,6084 L 3041,6084 3041,5574 2840,5574 2840,6084 Z"/>
 <path fill="rgb(0,69,134)" stroke="none" d="M 2238,6084 L 2439,6084 2439,1090 2238,1090 2238,6084 Z"/>
 <path fill="rgb(255,66,14)" stroke="none" d="M 13881,6084 L 14082,6084 14082,5858 13881,5858 13881,6084 Z"/>
 <path fill="rgb(255,66,14)" stroke="none" d="M 12677,6084 L 12878,6084 12878,6074 12677,6074 12677,6084 Z"/>
 <path fill="rgb(255,66,14)" stroke="none" d="M 11472,6084 L 11673,6084 11673,6074 11472,6074 11472,6084 Z"/>
 <path fill="rgb(255,66,14)" stroke="none" d="M 10268,6084 L 10468,6084 10468,6065 10268,6065 10268,6084 Z"/>
 <path fill="rgb(255,66,14)" stroke="none" d="M 9665,6084 L 9866,6084 9866,6065 9665,6065 9665,6084 Z"/>
 <path fill="rgb(255,66,14)" stroke="none" d="M 9063,6084 L 9264,6084 9264,6055 9063,6055 9063,6084 Z"/>
 <path fill="rgb(255,66,14)" stroke="none" d="M 8461,6084 L 8661,6084 8661,6074 8461,6074 8461,6084 Z"/>
 <path fill="rgb(255,66,14)" stroke="none" d="M 7859,6084 L 8059,6084 8059,6065 7859,6065 7859,6084 Z"/>
 <path fill="rgb(255,66,14)" stroke="none" d="M 7257,6084 L 7458,6084 7458,6035 7257,6035 7257,6084 Z"/>
 <path fill="rgb(255,66,14)" stroke="none" d="M 6655,6084 L 6856,6084 6856,6016 6655,6016 6655,6084 Z"/>
 <path fill="rgb(255,66,14)" stroke="none" d="M 6052,6084 L 6253,6084 6253,5937 6052,5937 6052,6084 Z"/>
 <path fill="rgb(255,66,14)" stroke="none" d="M 5450,6084 L 5651,6084 5651,5967 5450,5967 5450,6084 Z"/>
 <path fill="rgb(255,66,14)" stroke="none" d="M 4848,6084 L 5049,6084 5049,5878 4848,5878 4848,6084 Z"/>
 <path fill="rgb(255,66,14)" stroke="none" d="M 4246,6084 L 4446,6084 4446,5868 4246,5868 4246,6084 Z"/>
 <path fill="rgb(255,66,14)" stroke="none" d="M 3643,6084 L 3844,6084 3844,5505 3643,5505 3643,6084 Z"/>
 <path fill="rgb(255,66,14)" stroke="none" d="M 3041,6084 L 3242,6084 3242,5427 3041,5427 3041,6084 Z"/>
 <path fill="rgb(255,66,14)" stroke="none" d="M 2439,6084 L 2639,6084 2639,2090 2439,2090 2439,6084 Z"/>
 <text class="TextShape" transform="translate(2091,6989) rotate(-44.9) translate(-2091,-6989)"><tspan class="TextParagraph" font-family="Liberation Sans, sans-serif" font-size="353px" font-weight="400"><tspan class="TextPosition" x="2091" y="6989"><tspan fill="rgb(0,0,0)" stroke="none">&gt;=0</tspan></tspan></tspan></text>
 <text class="TextShape" transform="translate(2095,7586) rotate(-44.9) translate(-2095,-7586)"><tspan class="TextParagraph" font-family="Liberation Sans, sans-serif" font-size="353px" font-weight="400"><tspan class="TextPosition" x="2095" y="7586"><tspan fill="rgb(0,0,0)" stroke="none">&gt;=0.0025</tspan></tspan></tspan></text>
 <text class="TextShape" transform="translate(2828,7454) rotate(-44.9) translate(-2828,-7454)"><tspan class="TextParagraph" font-family="Liberation Sans, sans-serif" font-size="353px" font-weight="400"><tspan class="TextPosition" x="2828" y="7454"><tspan fill="rgb(0,0,0)" stroke="none">&gt;=0.005</tspan></tspan></tspan></text>
 <text class="TextShape" transform="translate(3300,7586) rotate(-44.9) translate(-3300,-7586)"><tspan class="TextParagraph" font-family="Liberation Sans, sans-serif" font-size="353px" font-weight="400"><tspan class="TextPosition" x="3300" y="7586"><tspan fill="rgb(0,0,0)" stroke="none">&gt;=0.0075</tspan></tspan></tspan></text>
 <text class="TextShape" transform="translate(4163,7324) rotate(-44.9) translate(-4163,-7324)"><tspan class="TextParagraph" font-family="Liberation Sans, sans-serif" font-size="353px" font-weight="400"><tspan class="TextPosition" x="4163" y="7324"><tspan fill="rgb(0,0,0)" stroke="none">&gt;=0.01</tspan></tspan></tspan></text>
 <text class="TextShape" transform="translate(4504,7586) rotate(-44.9) translate(-4504,-7586)"><tspan class="TextParagraph" font-family="Liberation Sans, sans-serif" font-size="353px" font-weight="400"><tspan class="TextPosition" x="4504" y="7586"><tspan fill="rgb(0,0,0)" stroke="none">&gt;=0.0125</tspan></tspan></tspan></text>
 <text class="TextShape" transform="translate(5237,7454) rotate(-44.9) translate(-5237,-7454)"><tspan class="TextParagraph" font-family="Liberation Sans, sans-serif" font-size="353px" font-weight="400"><tspan class="TextPosition" x="5237" y="7454"><tspan fill="rgb(0,0,0)" stroke="none">&gt;=0.015</tspan></tspan></tspan></text>
 <text class="TextShape" transform="translate(5709,7586) rotate(-44.9) translate(-5709,-7586)"><tspan class="TextParagraph" font-family="Liberation Sans, sans-serif" font-size="353px" font-weight="400"><tspan class="TextPosition" x="5709" y="7586"><tspan fill="rgb(0,0,0)" stroke="none">&gt;=0.0175</tspan></tspan></tspan></text>
 <text class="TextShape" transform="translate(6572,7324) rotate(-44.9) translate(-6572,-7324)"><tspan class="TextParagraph" font-family="Liberation Sans, sans-serif" font-size="353px" font-weight="400"><tspan class="TextPosition" x="6572" y="7324"><tspan fill="rgb(0,0,0)" stroke="none">&gt;=0.02</tspan></tspan></tspan></text>
 <text class="TextShape" transform="translate(6913,7586) rotate(-44.9) translate(-6913,-7586)"><tspan class="TextParagraph" font-family="Liberation Sans, sans-serif" font-size="353px" font-weight="400"><tspan class="TextPosition" x="6913" y="7586"><tspan fill="rgb(0,0,0)" stroke="none">&gt;=0.0225</tspan></tspan></tspan></text>
 <text class="TextShape" transform="translate(7647,7454) rotate(-44.9) translate(-7647,-7454)"><tspan class="TextParagraph" font-family="Liberation Sans, sans-serif" font-size="353px" font-weight="400"><tspan class="TextPosition" x="7647" y="7454"><tspan fill="rgb(0,0,0)" stroke="none">&gt;=0.025</tspan></tspan></tspan></text>
 <text class="TextShape" transform="translate(8118,7586) rotate(-44.9) translate(-8118,-7586)"><tspan class="TextParagraph" font-family="Liberation Sans, sans-serif" font-size="353px" font-weight="400"><tspan class="TextPosition" x="8118" y="7586"><tspan fill="rgb(0,0,0)" stroke="none">&gt;=0.0275</tspan></tspan></tspan></text>
 <text class="TextShape" transform="translate(8981,7324) rotate(-44.9) translate(-8981,-7324)"><tspan class="TextParagraph" font-family="Liberation Sans, sans-serif" font-size="353px" font-weight="400"><tspan class="TextPosition" x="8981" y="7324"><tspan fill="rgb(0,0,0)" stroke="none">&gt;=0.03</tspan></tspan></tspan></text>
 <text class="TextShape" transform="translate(9323,7586) rotate(-44.9) translate(-9323,-7586)"><tspan class="TextParagraph" font-family="Liberation Sans, sans-serif" font-size="353px" font-weight="400"><tspan class="TextPosition" x="9323" y="7586"><tspan fill="rgb(0,0,0)" stroke="none">&gt;=0.0325</tspan></tspan></tspan></text>
 <text class="TextShape" transform="translate(10056,7454) rotate(-44.9) translate(-10056,-7454)"><tspan class="TextParagraph" font-family="Liberation Sans, sans-serif" font-size="353px" font-weight="400"><tspan class="TextPosition" x="10056" y="7454"><tspan fill="rgb(0,0,0)" stroke="none">&gt;=0.035</tspan></tspan></tspan></text>
 <text class="TextShape" transform="translate(10527,7586) rotate(-44.9) translate(-10527,-7586)"><tspan class="TextParagraph" font-family="Liberation Sans, sans-serif" font-size="353px" font-weight="400"><tspan class="TextPosition" x="10527" y="7586"><tspan fill="rgb(0,0,0)" stroke="none">&gt;=0.0375</tspan></tspan></tspan></text>
 <text class="TextShape" transform="translate(11390,7324) rotate(-44.9) translate(-11390,-7324)"><tspan class="TextParagraph" font-family="Liberation Sans, sans-serif" font-size="353px" font-weight="400"><tspan class="TextPosition" x="11390" y="7324"><tspan fill="rgb(0,0,0)" stroke="none">&gt;=0.04</tspan></tspan></tspan></text>
 <text class="TextShape" transform="translate(11731,7586) rotate(-44.9) translate(-11731,-7586)"><tspan class="TextParagraph" font-family="Liberation Sans, sans-serif" font-size="353px" font-weight="400"><tspan class="TextPosition" x="11731" y="7586"><tspan fill="rgb(0,0,0)" stroke="none">&gt;=0.0425</tspan></tspan></tspan></text>
 <text class="TextShape" transform="translate(12464,7454) rotate(-44.9) translate(-12464,-7454)"><tspan class="TextParagraph" font-family="Liberation Sans, sans-serif" font-size="353px" font-weight="400"><tspan class="TextPosition" x="12464" y="7454"><tspan fill="rgb(0,0,0)" stroke="none">&gt;=0.045</tspan></tspan></tspan></text>
 <text class="TextShape" transform="translate(12935,7586) rotate(-44.9) translate(-12935,-7586)"><tspan class="TextParagraph" font-family="Liberation Sans, sans-serif" font-size="353px" font-weight="400"><tspan class="TextPosition" x="12935" y="7586"><tspan fill="rgb(0,0,0)" stroke="none">&gt;=0.0475</tspan></tspan></tspan></text>
 <text class="TextShape"><tspan class="TextParagraph" font-family="Liberation Sans, sans-serif" font-size="352px" font-weight="400"><tspan class="TextPosition" x="1703" y="6205"><tspan fill="rgb(0,0,0)" stroke="none">0</tspan></tspan></tspan></text>
 <text class="TextShape"><tspan class="TextParagraph" font-family="Liberation Sans, sans-serif" font-size="352px" font-weight="400"><tspan class="TextPosition" x="1332" y="5223"><tspan fill="rgb(0,0,0)" stroke="none">100</tspan></tspan></tspan></text>
 <text class="TextShape"><tspan class="TextParagraph" font-family="Liberation Sans, sans-serif" font-size="352px" font-weight="400"><tspan class="TextPosition" x="1332" y="4242"><tspan fill="rgb(0,0,0)" stroke="none">200</tspan></tspan></tspan></text>
 <text class="TextShape"><tspan class="TextParagraph" font-family="Liberation Sans, sans-serif" font-size="352px" font-weight="400"><tspan class="TextPosition" x="1332" y="3261"><tspan fill="rgb(0,0,0)" stroke="none">300</tspan></tspan></tspan></text>
 <text class="TextShape"><tspan class="TextParagraph" font-family="Liberation Sans, sans-serif" font-size="352px" font-weight="400"><tspan class="TextPosition" x="1332" y="2279"><tspan fill="rgb(0,0,0)" stroke="none">400</tspan></tspan></tspan></text>
 <text class="TextShape"><tspan class="TextParagraph" font-family="Liberation Sans, sans-serif" font-size="352px" font-weight="400"><tspan class="TextPosition" x="1332" y="1299"><tspan fill="rgb(0,0,0)" stroke="none">500</tspan></tspan></tspan></text>
 <text class="TextShape"><tspan class="TextParagraph" font-family="Liberation Sans, sans-serif" font-size="352px" font-weight="400"><tspan class="TextPosition" x="1332" y="318"><tspan fill="rgb(0,0,0)" stroke="none">600</tspan></tspan></tspan></text>
 <path fill="rgb(0,69,134)" stroke="none" d="M 14725,4365 L 14619,4365 14619,4155 14830,4155 14830,4365 14725,4365 Z"/>
 <path fill="rgb(255,66,14)" stroke="none" d="M 14725,4862 L 14619,4862 14619,4652 14830,4652 14830,4862 14725,4862 Z"/>
 <text class="TextShape"><tspan class="TextParagraph" font-family="Liberation Sans, sans-serif" font-size="352px" font-weight="400"><tspan class="TextPosition" x="14930" y="4379"><tspan fill="rgb(0,0,0)" stroke="none">Long</tspan></tspan></tspan></text>
 <text class="TextShape"><tspan class="TextParagraph" font-family="Liberation Sans, sans-serif" font-size="352px" font-weight="400"><tspan class="TextPosition" x="14930" y="4876"><tspan fill="rgb(0,0,0)" stroke="none">V4</tspan></tspan></tspan></text>
 <text class="TextShape"><tspan class="TextParagraph" font-family="Liberation Sans, sans-serif" font-size="317px" font-weight="400"><tspan class="TextPosition" x="7333" y="8406"><tspan fill="rgb(0,0,0)" stroke="none">EDPL</tspan></tspan></tspan></text>
 <text class="TextShape" transform="translate(837,5220) rotate(-90) translate(-837,-5220)"><tspan class="TextParagraph" font-family="Liberation Sans, sans-serif" font-size="318px" font-weight="400"><tspan class="TextPosition" x="837" y="5220"><tspan fill="rgb(0,0,0)" stroke="none">Number of OTUs</tspan></tspan></tspan></text>
</svg>