<?xml version="1.0" encoding="UTF-8"?>
<!DOCTYPE svg PUBLIC "-//W3C//DTD SVG 1.1//EN" "http://www.w3.org/Graphics/SVG/1.1/DTD/svg11.dtd">
<svg width="160mm" height="90mm" viewBox="0 0 16000 9000" version="1.1" xmlns="http://www.w3.org/2000/svg" stroke-width="28.222" stroke-linejoin="round" xml:space="preserve">
 <path fill="rgb(255,255,255)" stroke="none" d="M 8026,8998 L 26,8998 26,18 16025,18 16025,8998 8026,8998 Z"/>
 <path fill="none" stroke="rgb(179,179,179)" stroke-linejoin="round" d="M 8186,6216 L 2164,6216 2164,198 14209,198 14209,6216 8186,6216 Z"/>
 <path fill="none" stroke="rgb(179,179,179)" stroke-linejoin="round" d="M 14209,6215 L 2164,6215"/>
 <path fill="none" stroke="rgb(179,179,179)" stroke-linejoin="round" d="M 14209,5211 L 2164,5211"/>
 <path fill="none" stroke="rgb(179,179,179)" stroke-linejoin="round" d="M 14209,4209 L 2164,4209"/>
 <path fill="none" stroke="rgb(179,179,179)" stroke-linejoin="round" d="M 14209,3206 L 2164,3206"/>
 <path fill="none" stroke="rgb(179,179,179)" stroke-linejoin="round" d="M 14209,2202 L 2164,2202"/>
 <path fill="none" stroke="rgb(179,179,179)" stroke-linejoin="round" d="M 14209,1199 L 2164,1199"/>
 <path fill="none" stroke="rgb(179,179,179)" stroke-linejoin="round" d="M 14209,197 L 2164,197"/>
 <path fill="none" stroke="rgb(179,179,179)" stroke-linejoin="round" d="M 2164,6365 L 2164,6215"/>
 <path fill="none" stroke="rgb(179,179,179)" stroke-linejoin="round" d="M 2164,6365 L 2164,6215"/>
 <path fill="none" stroke="rgb(179,179,179)" stroke-linejoin="round" d="M 2766,6365 L 2766,6215"/>
 <path fill="none" stroke="rgb(179,179,179)" stroke-linejoin="round" d="M 2766,6365 L 2766,6215"/>
 <path fill="none" stroke="rgb(179,179,179)" stroke-linejoin="round" d="M 3368,6365 L 3368,6215"/>
 <path fill="none" stroke="rgb(179,179,179)" stroke-linejoin="round" d="M 3368,6365 L 3368,6215"/>
 <path fill="none" stroke="rgb(179,179,179)" stroke-linejoin="round" d="M 3970,6365 L 3970,6215"/>
 <path fill="none" stroke="rgb(179,179,179)" stroke-linejoin="round" d="M 3970,6365 L 3970,6215"/>
 <path fill="none" stroke="rgb(179,179,179)" stroke-linejoin="round" d="M 4573,6365 L 4573,6215"/>
 <path fill="none" stroke="rgb(179,179,179)" stroke-linejoin="round" d="M 4573,6365 L 4573,6215"/>
 <path fill="none" stroke="rgb(179,179,179)" stroke-linejoin="round" d="M 5175,6365 L 5175,6215"/>
 <path fill="none" stroke="rgb(179,179,179)" stroke-linejoin="round" d="M 5175,6365 L 5175,6215"/>
 <path fill="none" stroke="rgb(179,179,179)" stroke-linejoin="round" d="M 5777,6365 L 5777,6215"/>
 <path fill="none" stroke="rgb(179,179,179)" stroke-linejoin="round" d="M 5777,6365 L 5777,6215"/>
 <path fill="none" stroke="rgb(179,179,179)" stroke-linejoin="round" d="M 6380,6365 L 6380,6215"/>
 <path fill="none" stroke="rgb(179,179,179)" stroke-linejoin="round" d="M 6380,6365 L 6380,6215"/>
 <path fill="none" stroke="rgb(179,179,179)" stroke-linejoin="round" d="M 6982,6365 L 6982,6215"/>
 <path fill="none" stroke="rgb(179,179,179)" stroke-linejoin="round" d="M 6982,6365 L 6982,6215"/>
 <path fill="none" stroke="rgb(179,179,179)" stroke-linejoin="round" d="M 7584,6365 L 7584,6215"/>
 <path fill="none" stroke="rgb(179,179,179)" stroke-linejoin="round" d="M 7584,6365 L 7584,6215"/>
 <path fill="none" stroke="rgb(179,179,179)" stroke-linejoin="round" d="M 8186,6365 L 8186,6215"/>
 <path fill="none" stroke="rgb(179,179,179)" stroke-linejoin="round" d="M 8186,6365 L 8186,6215"/>
 <path fill="none" stroke="rgb(179,179,179)" stroke-linejoin="round" d="M 8788,6365 L 8788,6215"/>
 <path fill="none" stroke="rgb(179,179,179)" stroke-linejoin="round" d="M 8788,6365 L 8788,6215"/>
 <path fill="none" stroke="rgb(179,179,179)" stroke-linejoin="round" d="M 9390,6365 L 9390,6215"/>
 <path fill="none" stroke="rgb(179,179,179)" stroke-linejoin="round" d="M 9390,6365 L 9390,6215"/>
 <path fill="none" stroke="rgb(179,179,179)" stroke-linejoin="round" d="M 9992,6365 L 9992,6215"/>
 <path fill="none" stroke="rgb(179,179,179)" stroke-linejoin="round" d="M 9992,6365 L 9992,6215"/>
 <path fill="none" stroke="rgb(179,179,179)" stroke-linejoin="round" d="M 10595,6365 L 10595,6215"/>
 <path fill="none" stroke="rgb(179,179,179)" stroke-linejoin="round" d="M 10595,6365 L 10595,6215"/>
 <path fill="none" stroke="rgb(179,179,179)" stroke-linejoin="round" d="M 11197,6365 L 11197,6215"/>
 <path fill="none" stroke="rgb(179,179,179)" stroke-linejoin="round" d="M 11197,6365 L 11197,6215"/>
 <path fill="none" stroke="rgb(179,179,179)" stroke-linejoin="round" d="M 11799,6365 L 11799,6215"/>
 <path fill="none" stroke="rgb(179,179,179)" stroke-linejoin="round" d="M 11799,6365 L 11799,6215"/>
 <path fill="none" stroke="rgb(179,179,179)" stroke-linejoin="round" d="M 12402,6365 L 12402,6215"/>
 <path fill="none" stroke="rgb(179,179,179)" stroke-linejoin="round" d="M 12402,6365 L 12402,6215"/>
 <path fill="none" stroke="rgb(179,179,179)" stroke-linejoin="round" d="M 13004,6365 L 13004,6215"/>
 <path fill="none" stroke="rgb(179,179,179)" stroke-linejoin="round" d="M 13004,6365 L 13004,6215"/>
 <path fill="none" stroke="rgb(179,179,179)" stroke-linejoin="round" d="M 13606,6365 L 13606,6215"/>
 <path fill="none" stroke="rgb(179,179,179)" stroke-linejoin="round" d="M 13606,6365 L 13606,6215"/>
 <path fill="none" stroke="rgb(179,179,179)" stroke-linejoin="round" d="M 14209,6365 L 14209,6215"/>
 <path fill="none" stroke="rgb(179,179,179)" stroke-linejoin="round" d="M 14209,6365 L 14209,6215"/>
 <path fill="none" stroke="rgb(179,179,179)" stroke-linejoin="round" d="M 2164,6215 L 14209,6215"/>
 <path fill="none" stroke="rgb(179,179,179)" stroke-linejoin="round" d="M 2014,6215 L 2164,6215"/>
 <path fill="none" stroke="rgb(179,179,179)" stroke-linejoin="round" d="M 2014,6215 L 2164,6215"/>
 <path fill="none" stroke="rgb(179,179,179)" stroke-linejoin="round" d="M 2014,5211 L 2164,5211"/>
 <path fill="none" stroke="rgb(179,179,179)" stroke-linejoin="round" d="M 2014,5211 L 2164,5211"/>
 <path fill="none" stroke="rgb(179,179,179)" stroke-linejoin="round" d="M 2014,4209 L 2164,4209"/>
 <path fill="none" stroke="rgb(179,179,179)" stroke-linejoin="round" d="M 2014,4209 L 2164,4209"/>
 <path fill="none" stroke="rgb(179,179,179)" stroke-linejoin="round" d="M 2014,3206 L 2164,3206"/>
 <path fill="none" stroke="rgb(179,179,179)" stroke-linejoin="round" d="M 2014,3206 L 2164,3206"/>
 <path fill="none" stroke="rgb(179,179,179)" stroke-linejoin="round" d="M 2014,2202 L 2164,2202"/>
 <path fill="none" stroke="rgb(179,179,179)" stroke-linejoin="round" d="M 2014,2202 L 2164,2202"/>
 <path fill="none" stroke="rgb(179,179,179)" stroke-linejoin="round" d="M 2014,1199 L 2164,1199"/>
 <path fill="none" stroke="rgb(179,179,179)" stroke-linejoin="round" d="M 2014,1199 L 2164,1199"/>
 <path fill="none" stroke="rgb(179,179,179)" stroke-linejoin="round" d="M 2014,197 L 2164,197"/>
 <path fill="none" stroke="rgb(179,179,179)" stroke-linejoin="round" d="M 2014,197 L 2164,197"/>
 <path fill="none" stroke="rgb(179,179,179)" stroke-linejoin="round" d="M 2164,6215 L 2164,197"/>
 <path fill="rgb(0,69,134)" stroke="none" d="M 13707,6215 L 13907,6215 13907,6204 13707,6204 13707,6215 Z"/>
 <path fill="rgb(0,69,134)" stroke="none" d="M 11297,6215 L 11498,6215 11498,6204 11297,6204 11297,6215 Z"/>
 <path fill="rgb(0,69,134)" stroke="none" d="M 10093,6215 L 10294,6215 10294,6204 10093,6204 10093,6215 Z"/>
 <path fill="rgb(0,69,134)" stroke="none" d="M 9490,6215 L 9691,6215 9691,6184 9490,6184 9490,6215 Z"/>
 <path fill="rgb(0,69,134)" stroke="none" d="M 7685,6215 L 7885,6215 7885,6204 7685,6204 7685,6215 Z"/>
 <path fill="rgb(0,69,134)" stroke="none" d="M 7082,6215 L 7283,6215 7283,6184 7082,6184 7082,6215 Z"/>
 <path fill="rgb(0,69,134)" stroke="none" d="M 6480,6215 L 6681,6215 6681,6194 6480,6194 6480,6215 Z"/>
 <path fill="rgb(0,69,134)" stroke="none" d="M 5878,6215 L 6078,6215 6078,6194 5878,6194 5878,6215 Z"/>
 <path fill="rgb(0,69,134)" stroke="none" d="M 5275,6215 L 5476,6215 5476,6134 5275,6134 5275,6215 Z"/>
 <path fill="rgb(0,69,134)" stroke="none" d="M 4673,6215 L 4874,6215 4874,6204 4673,6204 4673,6215 Z"/>
 <path fill="rgb(0,69,134)" stroke="none" d="M 4071,6215 L 4272,6215 4272,6124 4071,6124 4071,6215 Z"/>
 <path fill="rgb(0,69,134)" stroke="none" d="M 3468,6215 L 3669,6215 3669,6084 3468,6084 3468,6215 Z"/>
 <path fill="rgb(0,69,134)" stroke="none" d="M 2866,6215 L 3067,6215 3067,5773 2866,5773 2866,6215 Z"/>
 <path fill="rgb(0,69,134)" stroke="none" d="M 2264,6215 L 2465,6215 2465,588 2264,588 2264,6215 Z"/>
 <path fill="rgb(255,66,14)" stroke="none" d="M 13907,6215 L 14108,6215 14108,6164 13907,6164 13907,6215 Z"/>
 <path fill="rgb(255,66,14)" stroke="none" d="M 12703,6215 L 12904,6215 12904,6204 12703,6204 12703,6215 Z"/>
 <path fill="rgb(255,66,14)" stroke="none" d="M 12100,6215 L 12301,6215 12301,6204 12100,6204 12100,6215 Z"/>
 <path fill="rgb(255,66,14)" stroke="none" d="M 11498,6215 L 11699,6215 11699,6204 11498,6204 11498,6215 Z"/>
 <path fill="rgb(255,66,14)" stroke="none" d="M 10896,6215 L 11097,6215 11097,6194 10896,6194 10896,6215 Z"/>
 <path fill="rgb(255,66,14)" stroke="none" d="M 10294,6215 L 10494,6215 10494,6194 10294,6194 10294,6215 Z"/>
 <path fill="rgb(255,66,14)" stroke="none" d="M 9691,6215 L 9892,6215 9892,6194 9691,6194 9691,6215 Z"/>
 <path fill="rgb(255,66,14)" stroke="none" d="M 9089,6215 L 9290,6215 9290,6164 9089,6164 9089,6215 Z"/>
 <path fill="rgb(255,66,14)" stroke="none" d="M 8487,6215 L 8687,6215 8687,6194 8487,6194 8487,6215 Z"/>
 <path fill="rgb(255,66,14)" stroke="none" d="M 7885,6215 L 8085,6215 8085,6194 7885,6194 7885,6215 Z"/>
 <path fill="rgb(255,66,14)" stroke="none" d="M 7283,6215 L 7484,6215 7484,6204 7283,6204 7283,6215 Z"/>
 <path fill="rgb(255,66,14)" stroke="none" d="M 6681,6215 L 6882,6215 6882,6204 6681,6204 6681,6215 Z"/>
 <path fill="rgb(255,66,14)" stroke="none" d="M 6078,6215 L 6279,6215 6279,6174 6078,6174 6078,6215 Z"/>
 <path fill="rgb(255,66,14)" stroke="none" d="M 5476,6215 L 5677,6215 5677,6174 5476,6174 5476,6215 Z"/>
 <path fill="rgb(255,66,14)" stroke="none" d="M 4874,6215 L 5075,6215 5075,6144 4874,6144 4874,6215 Z"/>
 <path fill="rgb(255,66,14)" stroke="none" d="M 4272,6215 L 4472,6215 4472,5994 4272,5994 4272,6215 Z"/>
 <path fill="rgb(255,66,14)" stroke="none" d="M 3669,6215 L 3870,6215 3870,5884 3669,5884 3669,6215 Z"/>
 <path fill="rgb(255,66,14)" stroke="none" d="M 3067,6215 L 3268,6215 3268,5402 3067,5402 3067,6215 Z"/>
 <path fill="rgb(255,66,14)" stroke="none" d="M 2465,6215 L 2665,6215 2665,1460 2465,1460 2465,6215 Z"/>
 <text class="TextShape" transform="translate(2117,7120) rotate(-44.9) translate(-2117,-7120)"><tspan class="TextParagraph" font-family="Liberation Sans, sans-serif" font-size="353px" font-weight="400"><tspan class="TextPosition" x="2117" y="7120"><tspan fill="rgb(0,0,0)" stroke="none">&gt;=0</tspan></tspan></tspan></text>
 <text class="TextShape" transform="translate(2252,7585) rotate(-44.9) translate(-2252,-7585)"><tspan class="TextParagraph" font-family="Liberation Sans, sans-serif" font-size="353px" font-weight="400"><tspan class="TextPosition" x="2252" y="7585"><tspan fill="rgb(0,0,0)" stroke="none">&gt;=0.005</tspan></tspan></tspan></text>
 <text class="TextShape" transform="translate(2984,7455) rotate(-44.9) translate(-2984,-7455)"><tspan class="TextParagraph" font-family="Liberation Sans, sans-serif" font-size="353px" font-weight="400"><tspan class="TextPosition" x="2984" y="7455"><tspan fill="rgb(0,0,0)" stroke="none">&gt;=0.01</tspan></tspan></tspan></text>
 <text class="TextShape" transform="translate(3457,7585) rotate(-44.9) translate(-3457,-7585)"><tspan class="TextParagraph" font-family="Liberation Sans, sans-serif" font-size="353px" font-weight="400"><tspan class="TextPosition" x="3457" y="7585"><tspan fill="rgb(0,0,0)" stroke="none">&gt;=0.015</tspan></tspan></tspan></text>
 <text class="TextShape" transform="translate(4189,7455) rotate(-44.9) translate(-4189,-7455)"><tspan class="TextParagraph" font-family="Liberation Sans, sans-serif" font-size="353px" font-weight="400"><tspan class="TextPosition" x="4189" y="7455"><tspan fill="rgb(0,0,0)" stroke="none">&gt;=0.02</tspan></tspan></tspan></text>
 <text class="TextShape" transform="translate(4661,7585) rotate(-44.9) translate(-4661,-7585)"><tspan class="TextParagraph" font-family="Liberation Sans, sans-serif" font-size="353px" font-weight="400"><tspan class="TextPosition" x="4661" y="7585"><tspan fill="rgb(0,0,0)" stroke="none">&gt;=0.025</tspan></tspan></tspan></text>
 <text class="TextShape" transform="translate(5393,7455) rotate(-44.9) translate(-5393,-7455)"><tspan class="TextParagraph" font-family="Liberation Sans, sans-serif" font-size="353px" font-weight="400"><tspan class="TextPosition" x="5393" y="7455"><tspan fill="rgb(0,0,0)" stroke="none">&gt;=0.03</tspan></tspan></tspan></text>
 <text class="TextShape" transform="translate(5866,7585) rotate(-44.9) translate(-5866,-7585)"><tspan class="TextParagraph" font-family="Liberation Sans, sans-serif" font-size="353px" font-weight="400"><tspan class="TextPosition" x="5866" y="7585"><tspan fill="rgb(0,0,0)" stroke="none">&gt;=0.035</tspan></tspan></tspan></text>
 <text class="TextShape" transform="translate(6598,7455) rotate(-44.9) translate(-6598,-7455)"><tspan class="TextParagraph" font-family="Liberation Sans, sans-serif" font-size="353px" font-weight="400"><tspan class="TextPosition" x="6598" y="7455"><tspan fill="rgb(0,0,0)" stroke="none">&gt;=0.04</tspan></tspan></tspan></text>
 <text class="TextShape" transform="translate(7070,7585) rotate(-44.9) translate(-7070,-7585)"><tspan class="TextParagraph" font-family="Liberation Sans, sans-serif" font-size="353px" font-weight="400"><tspan class="TextPosition" x="7070" y="7585"><tspan fill="rgb(0,0,0)" stroke="none">&gt;=0.045</tspan></tspan></tspan></text>
 <text class="TextShape" transform="translate(7803,7455) rotate(-44.9) translate(-7803,-7455)"><tspan class="TextParagraph" font-family="Liberation Sans, sans-serif" font-size="353px" font-weight="400"><tspan class="TextPosition" x="7803" y="7455"><tspan fill="rgb(0,0,0)" stroke="none">&gt;=0.05</tspan></tspan></tspan></text>
 <text class="TextShape" transform="translate(8275,7585) rotate(-44.9) translate(-8275,-7585)"><tspan class="TextParagraph" font-family="Liberation Sans, sans-serif" font-size="353px" font-weight="400"><tspan class="TextPosition" x="8275" y="7585"><tspan fill="rgb(0,0,0)" stroke="none">&gt;=0.055</tspan></tspan></tspan></text>
 <text class="TextShape" transform="translate(9007,7455) rotate(-44.9) translate(-9007,-7455)"><tspan class="TextParagraph" font-family="Liberation Sans, sans-serif" font-size="353px" font-weight="400"><tspan class="TextPosition" x="9007" y="7455"><tspan fill="rgb(0,0,0)" stroke="none">&gt;=0.06</tspan></tspan></tspan></text>
 <text class="TextShape" transform="translate(9480,7585) rotate(-44.9) translate(-9480,-7585)"><tspan class="TextParagraph" font-family="Liberation Sans, sans-serif" font-size="353px" font-weight="400"><tspan class="TextPosition" x="9480" y="7585"><tspan fill="rgb(0,0,0)" stroke="none">&gt;=0.065</tspan></tspan></tspan></text>
 <text class="TextShape" transform="translate(10212,7455) rotate(-44.9) translate(-10212,-7455)"><tspan class="TextParagraph" font-family="Liberation Sans, sans-serif" font-size="353px" font-weight="400"><tspan class="TextPosition" x="10212" y="7455"><tspan fill="rgb(0,0,0)" stroke="none">&gt;=0.07</tspan></tspan></tspan></text>
 <text class="TextShape" transform="translate(10684,7585) rotate(-44.9) translate(-10684,-7585)"><tspan class="TextParagraph" font-family="Liberation Sans, sans-serif" font-size="353px" font-weight="400"><tspan class="TextPosition" x="10684" y="7585"><tspan fill="rgb(0,0,0)" stroke="none">&gt;=0.075</tspan></tspan></tspan></text>
 <text class="TextShape" transform="translate(11416,7455) rotate(-44.9) translate(-11416,-7455)"><tspan class="TextParagraph" font-family="Liberation Sans, sans-serif" font-size="353px" font-weight="400"><tspan class="TextPosition" x="11416" y="7455"><tspan fill="rgb(0,0,0)" stroke="none">&gt;=0.08</tspan></tspan></tspan></text>
 <text class="TextShape" transform="translate(11888,7585) rotate(-44.9) translate(-11888,-7585)"><tspan class="TextParagraph" font-family="Liberation Sans, sans-serif" font-size="353px" font-weight="400"><tspan class="TextPosition" x="11888" y="7585"><tspan fill="rgb(0,0,0)" stroke="none">&gt;=0.085</tspan></tspan></tspan></text>
 <text class="TextShape" transform="translate(12620,7455) rotate(-44.9) translate(-12620,-7455)"><tspan class="TextParagraph" font-family="Liberation Sans, sans-serif" font-size="353px" font-weight="400"><tspan class="TextPosition" x="12620" y="7455"><tspan fill="rgb(0,0,0)" stroke="none">&gt;=0.09</tspan></tspan></tspan></text>
 <text class="TextShape" transform="translate(13092,7585) rotate(-44.9) translate(-13092,-7585)"><tspan class="TextParagraph" font-family="Liberation Sans, sans-serif" font-size="353px" font-weight="400"><tspan class="TextPosition" x="13092" y="7585"><tspan fill="rgb(0,0,0)" stroke="none">&gt;=0.095</tspan></tspan></tspan></text>
 <text class="TextShape"><tspan class="TextParagraph" font-family="Liberation Sans, sans-serif" font-size="352px" font-weight="400"><tspan class="TextPosition" x="1729" y="6335"><tspan fill="rgb(0,0,0)" stroke="none">0</tspan></tspan></tspan></text>
 <text class="TextShape"><tspan class="TextParagraph" font-family="Liberation Sans, sans-serif" font-size="352px" font-weight="400"><tspan class="TextPosition" x="1358" y="5332"><tspan fill="rgb(0,0,0)" stroke="none">100</tspan></tspan></tspan></text>
 <text class="TextShape"><tspan class="TextParagraph" font-family="Liberation Sans, sans-serif" font-size="352px" font-weight="400"><tspan class="TextPosition" x="1358" y="4329"><tspan fill="rgb(0,0,0)" stroke="none">200</tspan></tspan></tspan></text>
 <text class="TextShape"><tspan class="TextParagraph" font-family="Liberation Sans, sans-serif" font-size="352px" font-weight="400"><tspan class="TextPosition" x="1358" y="3326"><tspan fill="rgb(0,0,0)" stroke="none">300</tspan></tspan></tspan></text>
 <text class="TextShape"><tspan class="TextParagraph" font-family="Liberation Sans, sans-serif" font-size="352px" font-weight="400"><tspan class="TextPosition" x="1358" y="2322"><tspan fill="rgb(0,0,0)" stroke="none">400</tspan></tspan></tspan></text>
 <text class="TextShape"><tspan class="TextParagraph" font-family="Liberation Sans, sans-serif" font-size="352px" font-weight="400"><tspan class="TextPosition" x="1358" y="1320"><tspan fill="rgb(0,0,0)" stroke="none">500</tspan></tspan></tspan></text>
 <text class="TextShape"><tspan class="TextParagraph" font-family="Liberation Sans, sans-serif" font-size="352px" font-weight="400"><tspan class="TextPosition" x="1358" y="317"><tspan fill="rgb(0,0,0)" stroke="none">600</tspan></tspan></tspan></text>
 <path fill="rgb(0,69,134)" stroke="none" d="M 14751,4364 L 14645,4364 14645,4154 14856,4154 14856,4364 14751,4364 Z"/>
 <path fill="rgb(255,66,14)" stroke="none" d="M 14751,4861 L 14645,4861 14645,4651 14856,4651 14856,4861 14751,4861 Z"/>
 <text class="TextShape"><tspan class="TextParagraph" font-family="Liberation Sans, sans-serif" font-size="352px" font-weight="400"><tspan class="TextPosition" x="14956" y="4378"><tspan fill="rgb(0,0,0)" stroke="none">Long</tspan></tspan></tspan></text>
 <text class="TextShape"><tspan class="TextParagraph" font-family="Liberation Sans, sans-serif" font-size="352px" font-weight="400"><tspan class="TextPosition" x="14956" y="4875"><tspan fill="rgb(0,0,0)" stroke="none">V4</tspan></tspan></tspan></text>
 <text class="TextShape"><tspan class="TextParagraph" font-family="Liberation Sans, sans-serif" font-size="317px" font-weight="400"><tspan class="TextPosition" x="7359" y="8405"><tspan fill="rgb(0,0,0)" stroke="none">EDPL</tspan></tspan></tspan></text>
 <text class="TextShape" transform="translate(863,5219) rotate(-90) translate(-863,-5219)"><tspan class="TextParagraph" font-family="Liberation Sans, sans-serif" font-size="318px" font-weight="400"><tspan class="TextPosition" x="863" y="5219"><tspan fill="rgb(0,0,0)" stroke="none">Number of OTUs</tspan></tspan></tspan></text>
</svg>