<?xml version="1.0" encoding="UTF-8"?>
<!DOCTYPE svg PUBLIC "-//W3C//DTD SVG 1.1//EN" "http://www.w3.org/Graphics/SVG/1.1/DTD/svg11.dtd">
<svg width="160mm" height="90mm" viewBox="0 0 16000 9000" version="1.1" xmlns="http://www.w3.org/2000/svg" stroke-width="28.222" stroke-linejoin="round" xml:space="preserve">
 <path fill="rgb(255,255,255)" stroke="none" d="M 8000,8998 L 0,8998 0,18 15999,18 15999,8998 8000,8998 Z"/>
 <path fill="none" stroke="rgb(179,179,179)" stroke-linejoin="round" d="M 8160,6084 L 2138,6084 2138,198 14183,198 14183,6084 8160,6084 Z"/>
 <path fill="none" stroke="rgb(179,179,179)" stroke-linejoin="round" d="M 14183,6083 L 2138,6083"/>
 <path fill="none" stroke="rgb(179,179,179)" stroke-linejoin="round" d="M 14183,5429 L 2138,5429"/>
 <path fill="none" stroke="rgb(179,179,179)" stroke-linejoin="round" d="M 14183,4774 L 2138,4774"/>
 <path fill="none" stroke="rgb(179,179,179)" stroke-linejoin="round" d="M 14183,4121 L 2138,4121"/>
 <path fill="none" stroke="rgb(179,179,179)" stroke-linejoin="round" d="M 14183,3466 L 2138,3466"/>
 <path fill="none" stroke="rgb(179,179,179)" stroke-linejoin="round" d="M 14183,2813 L 2138,2813"/>
 <path fill="none" stroke="rgb(179,179,179)" stroke-linejoin="round" d="M 14183,2158 L 2138,2158"/>
 <path fill="none" stroke="rgb(179,179,179)" stroke-linejoin="round" d="M 14183,1505 L 2138,1505"/>
 <path fill="none" stroke="rgb(179,179,179)" stroke-linejoin="round" d="M 14183,850 L 2138,850"/>
 <path fill="none" stroke="rgb(179,179,179)" stroke-linejoin="round" d="M 14183,197 L 2138,197"/>
 <path fill="none" stroke="rgb(179,179,179)" stroke-linejoin="round" d="M 2138,6233 L 2138,6083"/>
 <path fill="none" stroke="rgb(179,179,179)" stroke-linejoin="round" d="M 2138,6233 L 2138,6083"/>
 <path fill="none" stroke="rgb(179,179,179)" stroke-linejoin="round" d="M 2740,6233 L 2740,6083"/>
 <path fill="none" stroke="rgb(179,179,179)" stroke-linejoin="round" d="M 2740,6233 L 2740,6083"/>
 <path fill="none" stroke="rgb(179,179,179)" stroke-linejoin="round" d="M 3342,6233 L 3342,6083"/>
 <path fill="none" stroke="rgb(179,179,179)" stroke-linejoin="round" d="M 3342,6233 L 3342,6083"/>
 <path fill="none" stroke="rgb(179,179,179)" stroke-linejoin="round" d="M 3944,6233 L 3944,6083"/>
 <path fill="none" stroke="rgb(179,179,179)" stroke-linejoin="round" d="M 3944,6233 L 3944,6083"/>
 <path fill="none" stroke="rgb(179,179,179)" stroke-linejoin="round" d="M 4547,6233 L 4547,6083"/>
 <path fill="none" stroke="rgb(179,179,179)" stroke-linejoin="round" d="M 4547,6233 L 4547,6083"/>
 <path fill="none" stroke="rgb(179,179,179)" stroke-linejoin="round" d="M 5149,6233 L 5149,6083"/>
 <path fill="none" stroke="rgb(179,179,179)" stroke-linejoin="round" d="M 5149,6233 L 5149,6083"/>
 <path fill="none" stroke="rgb(179,179,179)" stroke-linejoin="round" d="M 5751,6233 L 5751,6083"/>
 <path fill="none" stroke="rgb(179,179,179)" stroke-linejoin="round" d="M 5751,6233 L 5751,6083"/>
 <path fill="none" stroke="rgb(179,179,179)" stroke-linejoin="round" d="M 6354,6233 L 6354,6083"/>
 <path fill="none" stroke="rgb(179,179,179)" stroke-linejoin="round" d="M 6354,6233 L 6354,6083"/>
 <path fill="none" stroke="rgb(179,179,179)" stroke-linejoin="round" d="M 6956,6233 L 6956,6083"/>
 <path fill="none" stroke="rgb(179,179,179)" stroke-linejoin="round" d="M 6956,6233 L 6956,6083"/>
 <path fill="none" stroke="rgb(179,179,179)" stroke-linejoin="round" d="M 7558,6233 L 7558,6083"/>
 <path fill="none" stroke="rgb(179,179,179)" stroke-linejoin="round" d="M 7558,6233 L 7558,6083"/>
 <path fill="none" stroke="rgb(179,179,179)" stroke-linejoin="round" d="M 8160,6233 L 8160,6083"/>
 <path fill="none" stroke="rgb(179,179,179)" stroke-linejoin="round" d="M 8160,6233 L 8160,6083"/>
 <path fill="none" stroke="rgb(179,179,179)" stroke-linejoin="round" d="M 8762,6233 L 8762,6083"/>
 <path fill="none" stroke="rgb(179,179,179)" stroke-linejoin="round" d="M 8762,6233 L 8762,6083"/>
 <path fill="none" stroke="rgb(179,179,179)" stroke-linejoin="round" d="M 9364,6233 L 9364,6083"/>
 <path fill="none" stroke="rgb(179,179,179)" stroke-linejoin="round" d="M 9364,6233 L 9364,6083"/>
 <path fill="none" stroke="rgb(179,179,179)" stroke-linejoin="round" d="M 9966,6233 L 9966,6083"/>
 <path fill="none" stroke="rgb(179,179,179)" stroke-linejoin="round" d="M 9966,6233 L 9966,6083"/>
 <path fill="none" stroke="rgb(179,179,179)" stroke-linejoin="round" d="M 10569,6233 L 10569,6083"/>
 <path fill="none" stroke="rgb(179,179,179)" stroke-linejoin="round" d="M 10569,6233 L 10569,6083"/>
 <path fill="none" stroke="rgb(179,179,179)" stroke-linejoin="round" d="M 11171,6233 L 11171,6083"/>
 <path fill="none" stroke="rgb(179,179,179)" stroke-linejoin="round" d="M 11171,6233 L 11171,6083"/>
 <path fill="none" stroke="rgb(179,179,179)" stroke-linejoin="round" d="M 11773,6233 L 11773,6083"/>
 <path fill="none" stroke="rgb(179,179,179)" stroke-linejoin="round" d="M 11773,6233 L 11773,6083"/>
 <path fill="none" stroke="rgb(179,179,179)" stroke-linejoin="round" d="M 12376,6233 L 12376,6083"/>
 <path fill="none" stroke="rgb(179,179,179)" stroke-linejoin="round" d="M 12376,6233 L 12376,6083"/>
 <path fill="none" stroke="rgb(179,179,179)" stroke-linejoin="round" d="M 12978,6233 L 12978,6083"/>
 <path fill="none" stroke="rgb(179,179,179)" stroke-linejoin="round" d="M 12978,6233 L 12978,6083"/>
 <path fill="none" stroke="rgb(179,179,179)" stroke-linejoin="round" d="M 13580,6233 L 13580,6083"/>
 <path fill="none" stroke="rgb(179,179,179)" stroke-linejoin="round" d="M 13580,6233 L 13580,6083"/>
 <path fill="none" stroke="rgb(179,179,179)" stroke-linejoin="round" d="M 14183,6233 L 14183,6083"/>
 <path fill="none" stroke="rgb(179,179,179)" stroke-linejoin="round" d="M 14183,6233 L 14183,6083"/>
 <path fill="none" stroke="rgb(179,179,179)" stroke-linejoin="round" d="M 2138,6083 L 14183,6083"/>
 <path fill="none" stroke="rgb(179,179,179)" stroke-linejoin="round" d="M 1988,6083 L 2138,6083"/>
 <path fill="none" stroke="rgb(179,179,179)" stroke-linejoin="round" d="M 1988,6083 L 2138,6083"/>
 <path fill="none" stroke="rgb(179,179,179)" stroke-linejoin="round" d="M 1988,5429 L 2138,5429"/>
 <path fill="none" stroke="rgb(179,179,179)" stroke-linejoin="round" d="M 1988,5429 L 2138,5429"/>
 <path fill="none" stroke="rgb(179,179,179)" stroke-linejoin="round" d="M 1988,4774 L 2138,4774"/>
 <path fill="none" stroke="rgb(179,179,179)" stroke-linejoin="round" d="M 1988,4774 L 2138,4774"/>
 <path fill="none" stroke="rgb(179,179,179)" stroke-linejoin="round" d="M 1988,4121 L 2138,4121"/>
 <path fill="none" stroke="rgb(179,179,179)" stroke-linejoin="round" d="M 1988,4121 L 2138,4121"/>
 <path fill="none" stroke="rgb(179,179,179)" stroke-linejoin="round" d="M 1988,3466 L 2138,3466"/>
 <path fill="none" stroke="rgb(179,179,179)" stroke-linejoin="round" d="M 1988,3466 L 2138,3466"/>
 <path fill="none" stroke="rgb(179,179,179)" stroke-linejoin="round" d="M 1988,2813 L 2138,2813"/>
 <path fill="none" stroke="rgb(179,179,179)" stroke-linejoin="round" d="M 1988,2813 L 2138,2813"/>
 <path fill="none" stroke="rgb(179,179,179)" stroke-linejoin="round" d="M 1988,2158 L 2138,2158"/>
 <path fill="none" stroke="rgb(179,179,179)" stroke-linejoin="round" d="M 1988,2158 L 2138,2158"/>
 <path fill="none" stroke="rgb(179,179,179)" stroke-linejoin="round" d="M 1988,1505 L 2138,1505"/>
 <path fill="none" stroke="rgb(179,179,179)" stroke-linejoin="round" d="M 1988,1505 L 2138,1505"/>
 <path fill="none" stroke="rgb(179,179,179)" stroke-linejoin="round" d="M 1988,850 L 2138,850"/>
 <path fill="none" stroke="rgb(179,179,179)" stroke-linejoin="round" d="M 1988,850 L 2138,850"/>
 <path fill="none" stroke="rgb(179,179,179)" stroke-linejoin="round" d="M 1988,197 L 2138,197"/>
 <path fill="none" stroke="rgb(179,179,179)" stroke-linejoin="round" d="M 1988,197 L 2138,197"/>
 <path fill="none" stroke="rgb(179,179,179)" stroke-linejoin="round" d="M 2138,6083 L 2138,197"/>
 <path fill="rgb(0,69,134)" stroke="none" d="M 13681,6083 L 13881,6083 13881,5481 13681,5481 13681,6083 Z"/>
 <path fill="rgb(0,69,134)" stroke="none" d="M 13078,6083 L 13279,6083 13279,6005 13078,6005 13078,6083 Z"/>
 <path fill="rgb(0,69,134)" stroke="none" d="M 12476,6083 L 12677,6083 12677,6057 12476,6057 12476,6083 Z"/>
 <path fill="rgb(0,69,134)" stroke="none" d="M 11874,6083 L 12074,6083 12074,6031 11874,6031 11874,6083 Z"/>
 <path fill="rgb(0,69,134)" stroke="none" d="M 11271,6083 L 11472,6083 11472,6031 11271,6031 11271,6083 Z"/>
 <path fill="rgb(0,69,134)" stroke="none" d="M 10669,6083 L 10870,6083 10870,6018 10669,6018 10669,6083 Z"/>
 <path fill="rgb(0,69,134)" stroke="none" d="M 10067,6083 L 10268,6083 10268,6005 10067,6005 10067,6083 Z"/>
 <path fill="rgb(0,69,134)" stroke="none" d="M 9464,6083 L 9665,6083 9665,6031 9464,6031 9464,6083 Z"/>
 <path fill="rgb(0,69,134)" stroke="none" d="M 8862,6083 L 9063,6083 9063,6005 8862,6005 8862,6083 Z"/>
 <path fill="rgb(0,69,134)" stroke="none" d="M 8260,6083 L 8461,6083 8461,6005 8260,6005 8260,6083 Z"/>
 <path fill="rgb(0,69,134)" stroke="none" d="M 7659,6083 L 7859,6083 7859,6005 7659,6005 7659,6083 Z"/>
 <path fill="rgb(0,69,134)" stroke="none" d="M 7056,6083 L 7257,6083 7257,5952 7056,5952 7056,6083 Z"/>
 <path fill="rgb(0,69,134)" stroke="none" d="M 6454,6083 L 6655,6083 6655,5979 6454,5979 6454,6083 Z"/>
 <path fill="rgb(0,69,134)" stroke="none" d="M 5852,6083 L 6052,6083 6052,5834 5852,5834 5852,6083 Z"/>
 <path fill="rgb(0,69,134)" stroke="none" d="M 5249,6083 L 5450,6083 5450,5966 5249,5966 5249,6083 Z"/>
 <path fill="rgb(0,69,134)" stroke="none" d="M 4647,6083 L 4848,6083 4848,5887 4647,5887 4647,6083 Z"/>
 <path fill="rgb(0,69,134)" stroke="none" d="M 4045,6083 L 4246,6083 4246,5861 4045,5861 4045,6083 Z"/>
 <path fill="rgb(0,69,134)" stroke="none" d="M 3442,6083 L 3643,6083 3643,5677 3442,5677 3442,6083 Z"/>
 <path fill="rgb(0,69,134)" stroke="none" d="M 2840,6083 L 3041,6083 3041,5547 2840,5547 2840,6083 Z"/>
 <path fill="rgb(0,69,134)" stroke="none" d="M 2238,6083 L 2439,6083 2439,785 2238,785 2238,6083 Z"/>
 <path fill="rgb(255,66,14)" stroke="none" d="M 13881,6083 L 14082,6083 14082,4761 13881,4761 13881,6083 Z"/>
 <path fill="rgb(255,66,14)" stroke="none" d="M 13279,6083 L 13480,6083 13480,6044 13279,6044 13279,6083 Z"/>
 <path fill="rgb(255,66,14)" stroke="none" d="M 12677,6083 L 12878,6083 12878,6018 12677,6018 12677,6083 Z"/>
 <path fill="rgb(255,66,14)" stroke="none" d="M 12074,6083 L 12275,6083 12275,6031 12074,6031 12074,6083 Z"/>
 <path fill="rgb(255,66,14)" stroke="none" d="M 11472,6083 L 11673,6083 11673,6031 11472,6031 11472,6083 Z"/>
 <path fill="rgb(255,66,14)" stroke="none" d="M 10870,6083 L 11071,6083 11071,5926 10870,5926 10870,6083 Z"/>
 <path fill="rgb(255,66,14)" stroke="none" d="M 10268,6083 L 10468,6083 10468,5939 10268,5939 10268,6083 Z"/>
 <path fill="rgb(255,66,14)" stroke="none" d="M 9665,6083 L 9866,6083 9866,5952 9665,5952 9665,6083 Z"/>
 <path fill="rgb(255,66,14)" stroke="none" d="M 9063,6083 L 9264,6083 9264,5900 9063,5900 9063,6083 Z"/>
 <path fill="rgb(255,66,14)" stroke="none" d="M 8461,6083 L 8661,6083 8661,5926 8461,5926 8461,6083 Z"/>
 <path fill="rgb(255,66,14)" stroke="none" d="M 7859,6083 L 8059,6083 8059,5966 7859,5966 7859,6083 Z"/>
 <path fill="rgb(255,66,14)" stroke="none" d="M 7257,6083 L 7458,6083 7458,5966 7257,5966 7257,6083 Z"/>
 <path fill="rgb(255,66,14)" stroke="none" d="M 6655,6083 L 6856,6083 6856,5913 6655,5913 6655,6083 Z"/>
 <path fill="rgb(255,66,14)" stroke="none" d="M 6052,6083 L 6253,6083 6253,5795 6052,5795 6052,6083 Z"/>
 <path fill="rgb(255,66,14)" stroke="none" d="M 5450,6083 L 5651,6083 5651,5900 5450,5900 5450,6083 Z"/>
 <path fill="rgb(255,66,14)" stroke="none" d="M 4848,6083 L 5049,6083 5049,5651 4848,5651 4848,6083 Z"/>
 <path fill="rgb(255,66,14)" stroke="none" d="M 4246,6083 L 4446,6083 4446,5848 4246,5848 4246,6083 Z"/>
 <path fill="rgb(255,66,14)" stroke="none" d="M 3643,6083 L 3844,6083 3844,5547 3643,5547 3643,6083 Z"/>
 <path fill="rgb(255,66,14)" stroke="none" d="M 3041,6083 L 3242,6083 3242,5613 3041,5613 3041,6083 Z"/>
 <path fill="rgb(255,66,14)" stroke="none" d="M 2439,6083 L 2639,6083 2639,2434 2439,2434 2439,6083 Z"/>
 <text class="TextShape" transform="translate(2091,6988) rotate(-44.9) translate(-2091,-6988)"><tspan class="TextParagraph" font-family="Liberation Sans, sans-serif" font-size="353px" font-weight="400"><tspan class="TextPosition" x="2091" y="6988"><tspan fill="rgb(0,0,0)" stroke="none">&gt;=0</tspan></tspan></tspan></text>
 <text class="TextShape" transform="translate(2095,7585) rotate(-44.9) translate(-2095,-7585)"><tspan class="TextParagraph" font-family="Liberation Sans, sans-serif" font-size="353px" font-weight="400"><tspan class="TextPosition" x="2095" y="7585"><tspan fill="rgb(0,0,0)" stroke="none">&gt;=0.0005</tspan></tspan></tspan></text>
 <text class="TextShape" transform="translate(2828,7453) rotate(-44.9) translate(-2828,-7453)"><tspan class="TextParagraph" font-family="Liberation Sans, sans-serif" font-size="353px" font-weight="400"><tspan class="TextPosition" x="2828" y="7453"><tspan fill="rgb(0,0,0)" stroke="none">&gt;=0.001</tspan></tspan></tspan></text>
 <text class="TextShape" transform="translate(3300,7585) rotate(-44.9) translate(-3300,-7585)"><tspan class="TextParagraph" font-family="Liberation Sans, sans-serif" font-size="353px" font-weight="400"><tspan class="TextPosition" x="3300" y="7585"><tspan fill="rgb(0,0,0)" stroke="none">&gt;=0.0015</tspan></tspan></tspan></text>
 <text class="TextShape" transform="translate(4033,7453) rotate(-44.9) translate(-4033,-7453)"><tspan class="TextParagraph" font-family="Liberation Sans, sans-serif" font-size="353px" font-weight="400"><tspan class="TextPosition" x="4033" y="7453"><tspan fill="rgb(0,0,0)" stroke="none">&gt;=0.002</tspan></tspan></tspan></text>
 <text class="TextShape" transform="translate(4504,7585) rotate(-44.9) translate(-4504,-7585)"><tspan class="TextParagraph" font-family="Liberation Sans, sans-serif" font-size="353px" font-weight="400"><tspan class="TextPosition" x="4504" y="7585"><tspan fill="rgb(0,0,0)" stroke="none">&gt;=0.0025</tspan></tspan></tspan></text>
 <text class="TextShape" transform="translate(5237,7453) rotate(-44.9) translate(-5237,-7453)"><tspan class="TextParagraph" font-family="Liberation Sans, sans-serif" font-size="353px" font-weight="400"><tspan class="TextPosition" x="5237" y="7453"><tspan fill="rgb(0,0,0)" stroke="none">&gt;=0.003</tspan></tspan></tspan></text>
 <text class="TextShape" transform="translate(5709,7585) rotate(-44.9) translate(-5709,-7585)"><tspan class="TextParagraph" font-family="Liberation Sans, sans-serif" font-size="353px" font-weight="400"><tspan class="TextPosition" x="5709" y="7585"><tspan fill="rgb(0,0,0)" stroke="none">&gt;=0.0035</tspan></tspan></tspan></text>
 <text class="TextShape" transform="translate(6442,7453) rotate(-44.9) translate(-6442,-7453)"><tspan class="TextParagraph" font-family="Liberation Sans, sans-serif" font-size="353px" font-weight="400"><tspan class="TextPosition" x="6442" y="7453"><tspan fill="rgb(0,0,0)" stroke="none">&gt;=0.004</tspan></tspan></tspan></text>
 <text class="TextShape" transform="translate(6913,7585) rotate(-44.9) translate(-6913,-7585)"><tspan class="TextParagraph" font-family="Liberation Sans, sans-serif" font-size="353px" font-weight="400"><tspan class="TextPosition" x="6913" y="7585"><tspan fill="rgb(0,0,0)" stroke="none">&gt;=0.0045</tspan></tspan></tspan></text>
 <text class="TextShape" transform="translate(7647,7453) rotate(-44.9) translate(-7647,-7453)"><tspan class="TextParagraph" font-family="Liberation Sans, sans-serif" font-size="353px" font-weight="400"><tspan class="TextPosition" x="7647" y="7453"><tspan fill="rgb(0,0,0)" stroke="none">&gt;=0.005</tspan></tspan></tspan></text>
 <text class="TextShape" transform="translate(8118,7585) rotate(-44.9) translate(-8118,-7585)"><tspan class="TextParagraph" font-family="Liberation Sans, sans-serif" font-size="353px" font-weight="400"><tspan class="TextPosition" x="8118" y="7585"><tspan fill="rgb(0,0,0)" stroke="none">&gt;=0.0055</tspan></tspan></tspan></text>
 <text class="TextShape" transform="translate(8851,7453) rotate(-44.9) translate(-8851,-7453)"><tspan class="TextParagraph" font-family="Liberation Sans, sans-serif" font-size="353px" font-weight="400"><tspan class="TextPosition" x="8851" y="7453"><tspan fill="rgb(0,0,0)" stroke="none">&gt;=0.006</tspan></tspan></tspan></text>
 <text class="TextShape" transform="translate(9323,7585) rotate(-44.9) translate(-9323,-7585)"><tspan class="TextParagraph" font-family="Liberation Sans, sans-serif" font-size="353px" font-weight="400"><tspan class="TextPosition" x="9323" y="7585"><tspan fill="rgb(0,0,0)" stroke="none">&gt;=0.0065</tspan></tspan></tspan></text>
 <text class="TextShape" transform="translate(10056,7453) rotate(-44.9) translate(-10056,-7453)"><tspan class="TextParagraph" font-family="Liberation Sans, sans-serif" font-size="353px" font-weight="400"><tspan class="TextPosition" x="10056" y="7453"><tspan fill="rgb(0,0,0)" stroke="none">&gt;=0.007</tspan></tspan></tspan></text>
 <text class="TextShape" transform="translate(10527,7585) rotate(-44.9) translate(-10527,-7585)"><tspan class="TextParagraph" font-family="Liberation Sans, sans-serif" font-size="353px" font-weight="400"><tspan class="TextPosition" x="10527" y="7585"><tspan fill="rgb(0,0,0)" stroke="none">&gt;=0.0075</tspan></tspan></tspan></text>
 <text class="TextShape" transform="translate(11260,7453) rotate(-44.9) translate(-11260,-7453)"><tspan class="TextParagraph" font-family="Liberation Sans, sans-serif" font-size="353px" font-weight="400"><tspan class="TextPosition" x="11260" y="7453"><tspan fill="rgb(0,0,0)" stroke="none">&gt;=0.008</tspan></tspan></tspan></text>
 <text class="TextShape" transform="translate(11731,7585) rotate(-44.9) translate(-11731,-7585)"><tspan class="TextParagraph" font-family="Liberation Sans, sans-serif" font-size="353px" font-weight="400"><tspan class="TextPosition" x="11731" y="7585"><tspan fill="rgb(0,0,0)" stroke="none">&gt;=0.0085</tspan></tspan></tspan></text>
 <text class="TextShape" transform="translate(12464,7453) rotate(-44.9) translate(-12464,-7453)"><tspan class="TextParagraph" font-family="Liberation Sans, sans-serif" font-size="353px" font-weight="400"><tspan class="TextPosition" x="12464" y="7453"><tspan fill="rgb(0,0,0)" stroke="none">&gt;=0.009</tspan></tspan></tspan></text>
 <text class="TextShape" transform="translate(12935,7585) rotate(-44.9) translate(-12935,-7585)"><tspan class="TextParagraph" font-family="Liberation Sans, sans-serif" font-size="353px" font-weight="400"><tspan class="TextPosition" x="12935" y="7585"><tspan fill="rgb(0,0,0)" stroke="none">&gt;=0.0095</tspan></tspan></tspan></text>
 <text class="TextShape"><tspan class="TextParagraph" font-family="Liberation Sans, sans-serif" font-size="352px" font-weight="400"><tspan class="TextPosition" x="1703" y="6204"><tspan fill="rgb(0,0,0)" stroke="none">0</tspan></tspan></tspan></text>
 <text class="TextShape"><tspan class="TextParagraph" font-family="Liberation Sans, sans-serif" font-size="352px" font-weight="400"><tspan class="TextPosition" x="1518" y="5549"><tspan fill="rgb(0,0,0)" stroke="none">50</tspan></tspan></tspan></text>
 <text class="TextShape"><tspan class="TextParagraph" font-family="Liberation Sans, sans-serif" font-size="352px" font-weight="400"><tspan class="TextPosition" x="1332" y="4895"><tspan fill="rgb(0,0,0)" stroke="none">100</tspan></tspan></tspan></text>
 <text class="TextShape"><tspan class="TextParagraph" font-family="Liberation Sans, sans-serif" font-size="352px" font-weight="400"><tspan class="TextPosition" x="1332" y="4241"><tspan fill="rgb(0,0,0)" stroke="none">150</tspan></tspan></tspan></text>
 <text class="TextShape"><tspan class="TextParagraph" font-family="Liberation Sans, sans-serif" font-size="352px" font-weight="400"><tspan class="TextPosition" x="1332" y="3587"><tspan fill="rgb(0,0,0)" stroke="none">200</tspan></tspan></tspan></text>
 <text class="TextShape"><tspan class="TextParagraph" font-family="Liberation Sans, sans-serif" font-size="352px" font-weight="400"><tspan class="TextPosition" x="1332" y="2933"><tspan fill="rgb(0,0,0)" stroke="none">250</tspan></tspan></tspan></text>
 <text class="TextShape"><tspan class="TextParagraph" font-family="Liberation Sans, sans-serif" font-size="352px" font-weight="400"><tspan class="TextPosition" x="1332" y="2278"><tspan fill="rgb(0,0,0)" stroke="none">300</tspan></tspan></tspan></text>
 <text class="TextShape"><tspan class="TextParagraph" font-family="Liberation Sans, sans-serif" font-size="352px" font-weight="400"><tspan class="TextPosition" x="1332" y="1625"><tspan fill="rgb(0,0,0)" stroke="none">350</tspan></tspan></tspan></text>
 <text class="TextShape"><tspan class="TextParagraph" font-family="Liberation Sans, sans-serif" font-size="352px" font-weight="400"><tspan class="TextPosition" x="1332" y="970"><tspan fill="rgb(0,0,0)" stroke="none">400</tspan></tspan></tspan></text>
 <text class="TextShape"><tspan class="TextParagraph" font-family="Liberation Sans, sans-serif" font-size="352px" font-weight="400"><tspan class="TextPosition" x="1332" y="317"><tspan fill="rgb(0,0,0)" stroke="none">450</tspan></tspan></tspan></text>
 <path fill="rgb(0,69,134)" stroke="none" d="M 14725,4364 L 14619,4364 14619,4154 14830,4154 14830,4364 14725,4364 Z"/>
 <path fill="rgb(255,66,14)" stroke="none" d="M 14725,4861 L 14619,4861 14619,4651 14830,4651 14830,4861 14725,4861 Z"/>
 <text class="TextShape"><tspan class="TextParagraph" font-family="Liberation Sans, sans-serif" font-size="352px" font-weight="400"><tspan class="TextPosition" x="14930" y="4378"><tspan fill="rgb(0,0,0)" stroke="none">Long</tspan></tspan></tspan></text>
 <text class="TextShape"><tspan class="TextParagraph" font-family="Liberation Sans, sans-serif" font-size="352px" font-weight="400"><tspan class="TextPosition" x="14930" y="4875"><tspan fill="rgb(0,0,0)" stroke="none">V4</tspan></tspan></tspan></text>
 <text class="TextShape"><tspan class="TextParagraph" font-family="Liberation Sans, sans-serif" font-size="317px" font-weight="400"><tspan class="TextPosition" x="7333" y="8405"><tspan fill="rgb(0,0,0)" stroke="none">EDPL</tspan></tspan></tspan></text>
 <text class="TextShape" transform="translate(837,5219) rotate(-90) translate(-837,-5219)"><tspan class="TextParagraph" font-family="Liberation Sans, sans-serif" font-size="318px" font-weight="400"><tspan class="TextPosition" x="837" y="5219"><tspan fill="rgb(0,0,0)" stroke="none">Number of OTUs</tspan></tspan></tspan></text>
</svg>