<?xml version="1.0" encoding="UTF-8"?>
<!DOCTYPE svg PUBLIC "-//W3C//DTD SVG 1.1//EN" "http://www.w3.org/Graphics/SVG/1.1/DTD/svg11.dtd">
<svg width="160mm" height="90mm" viewBox="0 0 16000 9000" version="1.1" xmlns="http://www.w3.org/2000/svg" stroke-width="28.222" stroke-linejoin="round" xml:space="preserve">
 <path fill="rgb(255,255,255)" stroke="none" d="M 8000,8999 L 0,8999 0,19 15999,19 15999,8999 8000,8999 Z"/>
 <path fill="none" stroke="rgb(179,179,179)" stroke-linejoin="round" d="M 8160,6347 L 2138,6347 2138,199 14183,199 14183,6347 8160,6347 Z"/>
 <path fill="none" stroke="rgb(179,179,179)" stroke-linejoin="round" d="M 14183,6346 L 2138,6346"/>
 <path fill="none" stroke="rgb(179,179,179)" stroke-linejoin="round" d="M 14183,5577 L 2138,5577"/>
 <path fill="none" stroke="rgb(179,179,179)" stroke-linejoin="round" d="M 14183,4808 L 2138,4808"/>
 <path fill="none" stroke="rgb(179,179,179)" stroke-linejoin="round" d="M 14183,4040 L 2138,4040"/>
 <path fill="none" stroke="rgb(179,179,179)" stroke-linejoin="round" d="M 14183,3272 L 2138,3272"/>
 <path fill="none" stroke="rgb(179,179,179)" stroke-linejoin="round" d="M 14183,2502 L 2138,2502"/>
 <path fill="none" stroke="rgb(179,179,179)" stroke-linejoin="round" d="M 14183,1734 L 2138,1734"/>
 <path fill="none" stroke="rgb(179,179,179)" stroke-linejoin="round" d="M 14183,966 L 2138,966"/>
 <path fill="none" stroke="rgb(179,179,179)" stroke-linejoin="round" d="M 14183,198 L 2138,198"/>
 <path fill="none" stroke="rgb(179,179,179)" stroke-linejoin="round" d="M 2138,6496 L 2138,6346"/>
 <path fill="none" stroke="rgb(179,179,179)" stroke-linejoin="round" d="M 2138,6496 L 2138,6346"/>
 <path fill="none" stroke="rgb(179,179,179)" stroke-linejoin="round" d="M 2740,6496 L 2740,6346"/>
 <path fill="none" stroke="rgb(179,179,179)" stroke-linejoin="round" d="M 2740,6496 L 2740,6346"/>
 <path fill="none" stroke="rgb(179,179,179)" stroke-linejoin="round" d="M 3342,6496 L 3342,6346"/>
 <path fill="none" stroke="rgb(179,179,179)" stroke-linejoin="round" d="M 3342,6496 L 3342,6346"/>
 <path fill="none" stroke="rgb(179,179,179)" stroke-linejoin="round" d="M 3944,6496 L 3944,6346"/>
 <path fill="none" stroke="rgb(179,179,179)" stroke-linejoin="round" d="M 3944,6496 L 3944,6346"/>
 <path fill="none" stroke="rgb(179,179,179)" stroke-linejoin="round" d="M 4547,6496 L 4547,6346"/>
 <path fill="none" stroke="rgb(179,179,179)" stroke-linejoin="round" d="M 4547,6496 L 4547,6346"/>
 <path fill="none" stroke="rgb(179,179,179)" stroke-linejoin="round" d="M 5149,6496 L 5149,6346"/>
 <path fill="none" stroke="rgb(179,179,179)" stroke-linejoin="round" d="M 5149,6496 L 5149,6346"/>
 <path fill="none" stroke="rgb(179,179,179)" stroke-linejoin="round" d="M 5751,6496 L 5751,6346"/>
 <path fill="none" stroke="rgb(179,179,179)" stroke-linejoin="round" d="M 5751,6496 L 5751,6346"/>
 <path fill="none" stroke="rgb(179,179,179)" stroke-linejoin="round" d="M 6354,6496 L 6354,6346"/>
 <path fill="none" stroke="rgb(179,179,179)" stroke-linejoin="round" d="M 6354,6496 L 6354,6346"/>
 <path fill="none" stroke="rgb(179,179,179)" stroke-linejoin="round" d="M 6956,6496 L 6956,6346"/>
 <path fill="none" stroke="rgb(179,179,179)" stroke-linejoin="round" d="M 6956,6496 L 6956,6346"/>
 <path fill="none" stroke="rgb(179,179,179)" stroke-linejoin="round" d="M 7558,6496 L 7558,6346"/>
 <path fill="none" stroke="rgb(179,179,179)" stroke-linejoin="round" d="M 7558,6496 L 7558,6346"/>
 <path fill="none" stroke="rgb(179,179,179)" stroke-linejoin="round" d="M 8160,6496 L 8160,6346"/>
 <path fill="none" stroke="rgb(179,179,179)" stroke-linejoin="round" d="M 8160,6496 L 8160,6346"/>
 <path fill="none" stroke="rgb(179,179,179)" stroke-linejoin="round" d="M 8762,6496 L 8762,6346"/>
 <path fill="none" stroke="rgb(179,179,179)" stroke-linejoin="round" d="M 8762,6496 L 8762,6346"/>
 <path fill="none" stroke="rgb(179,179,179)" stroke-linejoin="round" d="M 9364,6496 L 9364,6346"/>
 <path fill="none" stroke="rgb(179,179,179)" stroke-linejoin="round" d="M 9364,6496 L 9364,6346"/>
 <path fill="none" stroke="rgb(179,179,179)" stroke-linejoin="round" d="M 9966,6496 L 9966,6346"/>
 <path fill="none" stroke="rgb(179,179,179)" stroke-linejoin="round" d="M 9966,6496 L 9966,6346"/>
 <path fill="none" stroke="rgb(179,179,179)" stroke-linejoin="round" d="M 10569,6496 L 10569,6346"/>
 <path fill="none" stroke="rgb(179,179,179)" stroke-linejoin="round" d="M 10569,6496 L 10569,6346"/>
 <path fill="none" stroke="rgb(179,179,179)" stroke-linejoin="round" d="M 11171,6496 L 11171,6346"/>
 <path fill="none" stroke="rgb(179,179,179)" stroke-linejoin="round" d="M 11171,6496 L 11171,6346"/>
 <path fill="none" stroke="rgb(179,179,179)" stroke-linejoin="round" d="M 11773,6496 L 11773,6346"/>
 <path fill="none" stroke="rgb(179,179,179)" stroke-linejoin="round" d="M 11773,6496 L 11773,6346"/>
 <path fill="none" stroke="rgb(179,179,179)" stroke-linejoin="round" d="M 12376,6496 L 12376,6346"/>
 <path fill="none" stroke="rgb(179,179,179)" stroke-linejoin="round" d="M 12376,6496 L 12376,6346"/>
 <path fill="none" stroke="rgb(179,179,179)" stroke-linejoin="round" d="M 12978,6496 L 12978,6346"/>
 <path fill="none" stroke="rgb(179,179,179)" stroke-linejoin="round" d="M 12978,6496 L 12978,6346"/>
 <path fill="none" stroke="rgb(179,179,179)" stroke-linejoin="round" d="M 13580,6496 L 13580,6346"/>
 <path fill="none" stroke="rgb(179,179,179)" stroke-linejoin="round" d="M 13580,6496 L 13580,6346"/>
 <path fill="none" stroke="rgb(179,179,179)" stroke-linejoin="round" d="M 14183,6496 L 14183,6346"/>
 <path fill="none" stroke="rgb(179,179,179)" stroke-linejoin="round" d="M 14183,6496 L 14183,6346"/>
 <path fill="none" stroke="rgb(179,179,179)" stroke-linejoin="round" d="M 2138,6346 L 14183,6346"/>
 <path fill="none" stroke="rgb(179,179,179)" stroke-linejoin="round" d="M 1988,6346 L 2138,6346"/>
 <path fill="none" stroke="rgb(179,179,179)" stroke-linejoin="round" d="M 1988,6346 L 2138,6346"/>
 <path fill="none" stroke="rgb(179,179,179)" stroke-linejoin="round" d="M 1988,5577 L 2138,5577"/>
 <path fill="none" stroke="rgb(179,179,179)" stroke-linejoin="round" d="M 1988,5577 L 2138,5577"/>
 <path fill="none" stroke="rgb(179,179,179)" stroke-linejoin="round" d="M 1988,4808 L 2138,4808"/>
 <path fill="none" stroke="rgb(179,179,179)" stroke-linejoin="round" d="M 1988,4808 L 2138,4808"/>
 <path fill="none" stroke="rgb(179,179,179)" stroke-linejoin="round" d="M 1988,4040 L 2138,4040"/>
 <path fill="none" stroke="rgb(179,179,179)" stroke-linejoin="round" d="M 1988,4040 L 2138,4040"/>
 <path fill="none" stroke="rgb(179,179,179)" stroke-linejoin="round" d="M 1988,3272 L 2138,3272"/>
 <path fill="none" stroke="rgb(179,179,179)" stroke-linejoin="round" d="M 1988,3272 L 2138,3272"/>
 <path fill="none" stroke="rgb(179,179,179)" stroke-linejoin="round" d="M 1988,2502 L 2138,2502"/>
 <path fill="none" stroke="rgb(179,179,179)" stroke-linejoin="round" d="M 1988,2502 L 2138,2502"/>
 <path fill="none" stroke="rgb(179,179,179)" stroke-linejoin="round" d="M 1988,1734 L 2138,1734"/>
 <path fill="none" stroke="rgb(179,179,179)" stroke-linejoin="round" d="M 1988,1734 L 2138,1734"/>
 <path fill="none" stroke="rgb(179,179,179)" stroke-linejoin="round" d="M 1988,966 L 2138,966"/>
 <path fill="none" stroke="rgb(179,179,179)" stroke-linejoin="round" d="M 1988,966 L 2138,966"/>
 <path fill="none" stroke="rgb(179,179,179)" stroke-linejoin="round" d="M 1988,198 L 2138,198"/>
 <path fill="none" stroke="rgb(179,179,179)" stroke-linejoin="round" d="M 1988,198 L 2138,198"/>
 <path fill="none" stroke="rgb(179,179,179)" stroke-linejoin="round" d="M 2138,6346 L 2138,198"/>
 <path fill="rgb(0,69,134)" stroke="none" d="M 13681,6346 L 13881,6346 13881,781 13681,781 13681,6346 Z"/>
 <path fill="rgb(0,69,134)" stroke="none" d="M 13078,6346 L 13279,6346 13279,5838 13078,5838 13078,6346 Z"/>
 <path fill="rgb(0,69,134)" stroke="none" d="M 12476,6346 L 12677,6346 12677,6023 12476,6023 12476,6346 Z"/>
 <path fill="rgb(0,69,134)" stroke="none" d="M 11874,6346 L 12074,6346 12074,6191 11874,6191 11874,6346 Z"/>
 <path fill="rgb(0,69,134)" stroke="none" d="M 11271,6346 L 11472,6346 11472,6099 11271,6099 11271,6346 Z"/>
 <path fill="rgb(0,69,134)" stroke="none" d="M 10669,6346 L 10870,6346 10870,6145 10669,6145 10669,6346 Z"/>
 <path fill="rgb(0,69,134)" stroke="none" d="M 10067,6346 L 10268,6346 10268,6253 10067,6253 10067,6346 Z"/>
 <path fill="rgb(0,69,134)" stroke="none" d="M 9464,6346 L 9665,6346 9665,6161 9464,6161 9464,6346 Z"/>
 <path fill="rgb(0,69,134)" stroke="none" d="M 8862,6346 L 9063,6346 9063,6222 8862,6222 8862,6346 Z"/>
 <path fill="rgb(0,69,134)" stroke="none" d="M 8260,6346 L 8461,6346 8461,6084 8260,6084 8260,6346 Z"/>
 <path fill="rgb(0,69,134)" stroke="none" d="M 7659,6346 L 7859,6346 7859,6145 7659,6145 7659,6346 Z"/>
 <path fill="rgb(0,69,134)" stroke="none" d="M 7056,6346 L 7257,6346 7257,6099 7056,6099 7056,6346 Z"/>
 <path fill="rgb(0,69,134)" stroke="none" d="M 6454,6346 L 6655,6346 6655,5931 6454,5931 6454,6346 Z"/>
 <path fill="rgb(0,69,134)" stroke="none" d="M 5852,6346 L 6052,6346 6052,5684 5852,5684 5852,6346 Z"/>
 <path fill="rgb(0,69,134)" stroke="none" d="M 5249,6346 L 5450,6346 5450,6222 5249,6222 5249,6346 Z"/>
 <path fill="rgb(0,69,134)" stroke="none" d="M 4647,6346 L 4848,6346 4848,5946 4647,5946 4647,6346 Z"/>
 <path fill="rgb(0,69,134)" stroke="none" d="M 4045,6346 L 4246,6346 4246,6299 4045,6299 4045,6346 Z"/>
 <path fill="rgb(0,69,134)" stroke="none" d="M 3442,6346 L 3643,6346 3643,6145 3442,6145 3442,6346 Z"/>
 <path fill="rgb(0,69,134)" stroke="none" d="M 2840,6346 L 3041,6346 3041,6315 2840,6315 2840,6346 Z"/>
 <path fill="rgb(0,69,134)" stroke="none" d="M 2238,6346 L 2439,6346 2439,6330 2238,6330 2238,6346 Z"/>
 <path fill="rgb(255,66,14)" stroke="none" d="M 13881,6346 L 14082,6346 14082,2502 13881,2502 13881,6346 Z"/>
 <path fill="rgb(255,66,14)" stroke="none" d="M 13279,6346 L 13480,6346 13480,5931 13279,5931 13279,6346 Z"/>
 <path fill="rgb(255,66,14)" stroke="none" d="M 12677,6346 L 12878,6346 12878,6176 12677,6176 12677,6346 Z"/>
 <path fill="rgb(255,66,14)" stroke="none" d="M 12074,6346 L 12275,6346 12275,6069 12074,6069 12074,6346 Z"/>
 <path fill="rgb(255,66,14)" stroke="none" d="M 11472,6346 L 11673,6346 11673,6130 11472,6130 11472,6346 Z"/>
 <path fill="rgb(255,66,14)" stroke="none" d="M 10870,6346 L 11071,6346 11071,6161 10870,6161 10870,6346 Z"/>
 <path fill="rgb(255,66,14)" stroke="none" d="M 10268,6346 L 10468,6346 10468,6114 10268,6114 10268,6346 Z"/>
 <path fill="rgb(255,66,14)" stroke="none" d="M 9665,6346 L 9866,6346 9866,6114 9665,6114 9665,6346 Z"/>
 <path fill="rgb(255,66,14)" stroke="none" d="M 9063,6346 L 9264,6346 9264,6084 9063,6084 9063,6346 Z"/>
 <path fill="rgb(255,66,14)" stroke="none" d="M 8461,6346 L 8661,6346 8661,6114 8461,6114 8461,6346 Z"/>
 <path fill="rgb(255,66,14)" stroke="none" d="M 7859,6346 L 8059,6346 8059,6084 7859,6084 7859,6346 Z"/>
 <path fill="rgb(255,66,14)" stroke="none" d="M 7257,6346 L 7458,6346 7458,6038 7257,6038 7257,6346 Z"/>
 <path fill="rgb(255,66,14)" stroke="none" d="M 6655,6346 L 6856,6346 6856,5992 6655,5992 6655,6346 Z"/>
 <path fill="rgb(255,66,14)" stroke="none" d="M 6052,6346 L 6253,6346 6253,5761 6052,5761 6052,6346 Z"/>
 <path fill="rgb(255,66,14)" stroke="none" d="M 5450,6346 L 5651,6346 5651,6069 5450,6069 5450,6346 Z"/>
 <path fill="rgb(255,66,14)" stroke="none" d="M 4848,6346 L 5049,6346 5049,5684 4848,5684 4848,6346 Z"/>
 <path fill="rgb(255,66,14)" stroke="none" d="M 4246,6346 L 4446,6346 4446,5992 4246,5992 4246,6346 Z"/>
 <path fill="rgb(255,66,14)" stroke="none" d="M 3643,6346 L 3844,6346 3844,5730 3643,5730 3643,6346 Z"/>
 <path fill="rgb(255,66,14)" stroke="none" d="M 3041,6346 L 3242,6346 3242,6054 3041,6054 3041,6346 Z"/>
 <path fill="rgb(255,66,14)" stroke="none" d="M 2439,6346 L 2639,6346 2639,6114 2439,6114 2439,6346 Z"/>
 <text class="TextShape" transform="translate(2091,7250) rotate(-44.9) translate(-2091,-7250)"><tspan class="TextParagraph" font-family="Liberation Sans, sans-serif" font-size="353px" font-weight="400"><tspan class="TextPosition" x="2091" y="7250"><tspan fill="rgb(0,0,0)" stroke="none">&gt;=0</tspan></tspan></tspan></text>
 <text class="TextShape" transform="translate(2356,7586) rotate(-44.9) translate(-2356,-7586)"><tspan class="TextParagraph" font-family="Liberation Sans, sans-serif" font-size="353px" font-weight="400"><tspan class="TextPosition" x="2356" y="7586"><tspan fill="rgb(0,0,0)" stroke="none">&gt;=0.05</tspan></tspan></tspan></text>
 <text class="TextShape" transform="translate(3090,7454) rotate(-44.9) translate(-3090,-7454)"><tspan class="TextParagraph" font-family="Liberation Sans, sans-serif" font-size="353px" font-weight="400"><tspan class="TextPosition" x="3090" y="7454"><tspan fill="rgb(0,0,0)" stroke="none">&gt;=0.1</tspan></tspan></tspan></text>
 <text class="TextShape" transform="translate(3561,7586) rotate(-44.9) translate(-3561,-7586)"><tspan class="TextParagraph" font-family="Liberation Sans, sans-serif" font-size="353px" font-weight="400"><tspan class="TextPosition" x="3561" y="7586"><tspan fill="rgb(0,0,0)" stroke="none">&gt;=0.15</tspan></tspan></tspan></text>
 <text class="TextShape" transform="translate(4295,7454) rotate(-44.9) translate(-4295,-7454)"><tspan class="TextParagraph" font-family="Liberation Sans, sans-serif" font-size="353px" font-weight="400"><tspan class="TextPosition" x="4295" y="7454"><tspan fill="rgb(0,0,0)" stroke="none">&gt;=0.2</tspan></tspan></tspan></text>
 <text class="TextShape" transform="translate(4765,7586) rotate(-44.9) translate(-4765,-7586)"><tspan class="TextParagraph" font-family="Liberation Sans, sans-serif" font-size="353px" font-weight="400"><tspan class="TextPosition" x="4765" y="7586"><tspan fill="rgb(0,0,0)" stroke="none">&gt;=0.25</tspan></tspan></tspan></text>
 <text class="TextShape" transform="translate(5499,7454) rotate(-44.9) translate(-5499,-7454)"><tspan class="TextParagraph" font-family="Liberation Sans, sans-serif" font-size="353px" font-weight="400"><tspan class="TextPosition" x="5499" y="7454"><tspan fill="rgb(0,0,0)" stroke="none">&gt;=0.3</tspan></tspan></tspan></text>
 <text class="TextShape" transform="translate(5970,7586) rotate(-44.9) translate(-5970,-7586)"><tspan class="TextParagraph" font-family="Liberation Sans, sans-serif" font-size="353px" font-weight="400"><tspan class="TextPosition" x="5970" y="7586"><tspan fill="rgb(0,0,0)" stroke="none">&gt;=0.35</tspan></tspan></tspan></text>
 <text class="TextShape" transform="translate(6704,7454) rotate(-44.9) translate(-6704,-7454)"><tspan class="TextParagraph" font-family="Liberation Sans, sans-serif" font-size="353px" font-weight="400"><tspan class="TextPosition" x="6704" y="7454"><tspan fill="rgb(0,0,0)" stroke="none">&gt;=0.4</tspan></tspan></tspan></text>
 <text class="TextShape" transform="translate(7174,7586) rotate(-44.9) translate(-7174,-7586)"><tspan class="TextParagraph" font-family="Liberation Sans, sans-serif" font-size="353px" font-weight="400"><tspan class="TextPosition" x="7174" y="7586"><tspan fill="rgb(0,0,0)" stroke="none">&gt;=0.45</tspan></tspan></tspan></text>
 <text class="TextShape" transform="translate(7909,7454) rotate(-44.9) translate(-7909,-7454)"><tspan class="TextParagraph" font-family="Liberation Sans, sans-serif" font-size="353px" font-weight="400"><tspan class="TextPosition" x="7909" y="7454"><tspan fill="rgb(0,0,0)" stroke="none">&gt;=0.5</tspan></tspan></tspan></text>
 <text class="TextShape" transform="translate(8379,7586) rotate(-44.9) translate(-8379,-7586)"><tspan class="TextParagraph" font-family="Liberation Sans, sans-serif" font-size="353px" font-weight="400"><tspan class="TextPosition" x="8379" y="7586"><tspan fill="rgb(0,0,0)" stroke="none">&gt;=0.55</tspan></tspan></tspan></text>
 <text class="TextShape" transform="translate(9113,7454) rotate(-44.9) translate(-9113,-7454)"><tspan class="TextParagraph" font-family="Liberation Sans, sans-serif" font-size="353px" font-weight="400"><tspan class="TextPosition" x="9113" y="7454"><tspan fill="rgb(0,0,0)" stroke="none">&gt;=0.6</tspan></tspan></tspan></text>
 <text class="TextShape" transform="translate(9584,7586) rotate(-44.9) translate(-9584,-7586)"><tspan class="TextParagraph" font-family="Liberation Sans, sans-serif" font-size="353px" font-weight="400"><tspan class="TextPosition" x="9584" y="7586"><tspan fill="rgb(0,0,0)" stroke="none">&gt;=0.65</tspan></tspan></tspan></text>
 <text class="TextShape" transform="translate(10318,7454) rotate(-44.9) translate(-10318,-7454)"><tspan class="TextParagraph" font-family="Liberation Sans, sans-serif" font-size="353px" font-weight="400"><tspan class="TextPosition" x="10318" y="7454"><tspan fill="rgb(0,0,0)" stroke="none">&gt;=0.7</tspan></tspan></tspan></text>
 <text class="TextShape" transform="translate(10788,7586) rotate(-44.9) translate(-10788,-7586)"><tspan class="TextParagraph" font-family="Liberation Sans, sans-serif" font-size="353px" font-weight="400"><tspan class="TextPosition" x="10788" y="7586"><tspan fill="rgb(0,0,0)" stroke="none">&gt;=0.75</tspan></tspan></tspan></text>
 <text class="TextShape" transform="translate(11521,7454) rotate(-44.9) translate(-11521,-7454)"><tspan class="TextParagraph" font-family="Liberation Sans, sans-serif" font-size="353px" font-weight="400"><tspan class="TextPosition" x="11521" y="7454"><tspan fill="rgb(0,0,0)" stroke="none">&gt;=0.8</tspan></tspan></tspan></text>
 <text class="TextShape" transform="translate(11992,7586) rotate(-44.9) translate(-11992,-7586)"><tspan class="TextParagraph" font-family="Liberation Sans, sans-serif" font-size="353px" font-weight="400"><tspan class="TextPosition" x="11992" y="7586"><tspan fill="rgb(0,0,0)" stroke="none">&gt;=0.85</tspan></tspan></tspan></text>
 <text class="TextShape" transform="translate(12726,7454) rotate(-44.9) translate(-12726,-7454)"><tspan class="TextParagraph" font-family="Liberation Sans, sans-serif" font-size="353px" font-weight="400"><tspan class="TextPosition" x="12726" y="7454"><tspan fill="rgb(0,0,0)" stroke="none">&gt;=0.9</tspan></tspan></tspan></text>
 <text class="TextShape" transform="translate(13196,7586) rotate(-44.9) translate(-13196,-7586)"><tspan class="TextParagraph" font-family="Liberation Sans, sans-serif" font-size="353px" font-weight="400"><tspan class="TextPosition" x="13196" y="7586"><tspan fill="rgb(0,0,0)" stroke="none">&gt;=0.95</tspan></tspan></tspan></text>
 <text class="TextShape"><tspan class="TextParagraph" font-family="Liberation Sans, sans-serif" font-size="352px" font-weight="400"><tspan class="TextPosition" x="1703" y="6466"><tspan fill="rgb(0,0,0)" stroke="none">0</tspan></tspan></tspan></text>
 <text class="TextShape"><tspan class="TextParagraph" font-family="Liberation Sans, sans-serif" font-size="352px" font-weight="400"><tspan class="TextPosition" x="1518" y="5697"><tspan fill="rgb(0,0,0)" stroke="none">50</tspan></tspan></tspan></text>
 <text class="TextShape"><tspan class="TextParagraph" font-family="Liberation Sans, sans-serif" font-size="352px" font-weight="400"><tspan class="TextPosition" x="1332" y="4929"><tspan fill="rgb(0,0,0)" stroke="none">100</tspan></tspan></tspan></text>
 <text class="TextShape"><tspan class="TextParagraph" font-family="Liberation Sans, sans-serif" font-size="352px" font-weight="400"><tspan class="TextPosition" x="1332" y="4160"><tspan fill="rgb(0,0,0)" stroke="none">150</tspan></tspan></tspan></text>
 <text class="TextShape"><tspan class="TextParagraph" font-family="Liberation Sans, sans-serif" font-size="352px" font-weight="400"><tspan class="TextPosition" x="1332" y="3392"><tspan fill="rgb(0,0,0)" stroke="none">200</tspan></tspan></tspan></text>
 <text class="TextShape"><tspan class="TextParagraph" font-family="Liberation Sans, sans-serif" font-size="352px" font-weight="400"><tspan class="TextPosition" x="1332" y="2623"><tspan fill="rgb(0,0,0)" stroke="none">250</tspan></tspan></tspan></text>
 <text class="TextShape"><tspan class="TextParagraph" font-family="Liberation Sans, sans-serif" font-size="352px" font-weight="400"><tspan class="TextPosition" x="1332" y="1854"><tspan fill="rgb(0,0,0)" stroke="none">300</tspan></tspan></tspan></text>
 <text class="TextShape"><tspan class="TextParagraph" font-family="Liberation Sans, sans-serif" font-size="352px" font-weight="400"><tspan class="TextPosition" x="1332" y="1086"><tspan fill="rgb(0,0,0)" stroke="none">350</tspan></tspan></tspan></text>
 <text class="TextShape"><tspan class="TextParagraph" font-family="Liberation Sans, sans-serif" font-size="352px" font-weight="400"><tspan class="TextPosition" x="1332" y="318"><tspan fill="rgb(0,0,0)" stroke="none">400</tspan></tspan></tspan></text>
 <path fill="rgb(0,69,134)" stroke="none" d="M 14725,4365 L 14619,4365 14619,4155 14830,4155 14830,4365 14725,4365 Z"/>
 <path fill="rgb(255,66,14)" stroke="none" d="M 14725,4862 L 14619,4862 14619,4652 14830,4652 14830,4862 14725,4862 Z"/>
 <text class="TextShape"><tspan class="TextParagraph" font-family="Liberation Sans, sans-serif" font-size="352px" font-weight="400"><tspan class="TextPosition" x="14930" y="4379"><tspan fill="rgb(0,0,0)" stroke="none">Long</tspan></tspan></tspan></text>
 <text class="TextShape"><tspan class="TextParagraph" font-family="Liberation Sans, sans-serif" font-size="352px" font-weight="400"><tspan class="TextPosition" x="14930" y="4876"><tspan fill="rgb(0,0,0)" stroke="none">V4</tspan></tspan></tspan></text>
 <text class="TextShape"><tspan class="TextParagraph" font-family="Liberation Sans, sans-serif" font-size="317px" font-weight="400"><tspan class="TextPosition" x="7400" y="8406"><tspan fill="rgb(0,0,0)" stroke="none">LWR</tspan></tspan></tspan></text>
 <text class="TextShape" transform="translate(837,5220) rotate(-90) translate(-837,-5220)"><tspan class="TextParagraph" font-family="Liberation Sans, sans-serif" font-size="318px" font-weight="400"><tspan class="TextPosition" x="837" y="5220"><tspan fill="rgb(0,0,0)" stroke="none">Number of OTUs</tspan></tspan></tspan></text>
</svg>